<svg width="122" height="36" viewBox="0 0 122 36" fill="none" xmlns="http://www.w3.org/2000/svg">
<path d="M120.346 31.6683C120.346 33.5684 118.807 35.1073 116.904 35.1073H4.24624C2.34361 35.1073 0.799316 33.5684 0.799316 31.6683V4.24407C0.799316 2.34504 2.34369 0.800659 4.24624 0.800659H116.903C118.807 0.800659 120.345 2.34504 120.345 4.24407L120.346 31.6683Z" fill="white"/>
<path d="M116.904 35.9074H4.24612C1.90532 35.9074 0 34.0066 0 31.6685V4.24511C0 1.90521 1.90532 0.00167847 4.24612 0.00167847H116.903C119.241 0.00167847 121.149 1.90521 121.149 4.24511V31.6685C121.151 34.0066 119.243 35.9074 116.904 35.9074Z" fill="#A6A6A6"/>
<path d="M120.346 31.6683C120.346 33.5684 118.807 35.1073 116.904 35.1073H4.24624C2.34361 35.1073 0.799316 33.5684 0.799316 31.6683V4.24407C0.799316 2.34504 2.34369 0.800659 4.24624 0.800659H116.903C118.807 0.800659 120.345 2.34504 120.345 4.24407L120.346 31.6683Z" fill="black"/>
<path d="M27.0516 17.7654C27.0256 14.8715 29.4212 13.4636 29.5307 13.3981C28.174 11.42 26.0712 11.1498 25.3323 11.1282C23.5661 10.9424 21.8529 12.185 20.9532 12.185C20.0356 12.185 18.6502 11.1462 17.157 11.1767C15.2355 11.2063 13.438 12.3188 12.452 14.0464C10.4175 17.5688 11.9348 22.7451 13.8842 25.5923C14.8593 26.9877 15.9988 28.5437 17.4901 28.4889C18.9492 28.4297 19.4942 27.5596 21.2549 27.5596C22.9995 27.5596 23.5113 28.4889 25.0323 28.4539C26.5983 28.4297 27.5841 27.0532 28.5252 25.6462C29.652 24.0489 30.1045 22.474 30.1225 22.3931C30.0865 22.3806 27.0822 21.2331 27.0516 17.7654ZM24.1784 9.25521C24.9631 8.27382 25.5001 6.93866 25.351 5.58374C24.2151 5.63402 22.7947 6.36939 21.9767 7.32924C21.253 8.17505 20.6065 9.5614 20.7735 10.8651C22.0495 10.9603 23.3595 10.2213 24.1784 9.25521Z" fill="white"/>
<path d="M116.904 0.0015564H56.5608L80.196 35.9073H116.904C119.242 35.9073 121.15 34.0065 121.15 31.6657V4.24499C121.151 1.90508 119.243 0.0015564 116.904 0.0015564Z" fill="url(#paint0_linear)"/>
<path d="M48.1852 28.2887H46.1461L45.0291 24.7788H41.1465L40.0825 28.2887H38.0974L41.9448 16.3396H44.3206L48.1852 28.2887ZM44.6925 23.3063L43.6823 20.1861C43.5755 19.8674 43.3743 19.1167 43.0798 17.9351H43.0439C42.9254 18.4433 42.7359 19.194 42.4765 20.1861L41.4834 23.3063H44.6925ZM58.0602 23.8747C58.0602 25.34 57.6625 26.4983 56.866 27.3487C56.1531 28.1055 55.2669 28.4836 54.21 28.4836C53.0688 28.4836 52.2481 28.0768 51.7498 27.2616V31.7825H49.8355V22.5045C49.8355 21.5841 49.8113 20.6405 49.7646 19.6725H51.4482L51.555 21.0382H51.5909C52.2293 20.0092 53.1981 19.4947 54.4982 19.4947C55.5146 19.4947 56.3632 19.896 57.042 20.6996C57.7199 21.5051 58.0602 22.5628 58.0602 23.8747ZM56.11 23.9447C56.11 23.1061 55.9214 22.4147 55.5425 21.8697C55.1286 21.3031 54.5728 21.0194 53.876 21.0194C53.4037 21.0194 52.9745 21.1774 52.5911 21.489C52.2068 21.8032 51.9554 22.2136 51.8379 22.7218C51.7786 22.9588 51.749 23.1519 51.749 23.3046V24.742C51.749 25.3678 51.9411 25.8968 52.3254 26.3296C52.7097 26.7606 53.2089 26.9769 53.8231 26.9769C54.5442 26.9769 55.1054 26.6977 55.5066 26.1436C55.9088 25.5878 56.11 24.8552 56.11 23.9447ZM67.9702 23.8747C67.9702 25.34 67.5724 26.4983 66.776 27.3487C66.0622 28.1055 65.1768 28.4836 64.1191 28.4836C62.9779 28.4836 62.1572 28.0768 61.6589 27.2616V31.7825H59.7446V22.5045C59.7446 21.5841 59.7204 20.6405 59.6737 19.6725H61.3572L61.4641 21.0382H61.5C62.1375 20.0092 63.1063 19.4947 64.4073 19.4947C65.4228 19.4947 66.2713 19.896 66.952 20.6996C67.6291 21.5051 67.9702 22.5628 67.9702 23.8747ZM66.0191 23.9447C66.0191 23.1061 65.8297 22.4147 65.4507 21.8697C65.0368 21.3031 64.4828 21.0194 63.786 21.0194C63.3137 21.0194 62.8845 21.1774 62.4993 21.489C62.115 21.8032 61.8646 22.2136 61.7469 22.7218C61.6885 22.9588 61.6571 23.1519 61.6571 23.3046V24.742C61.6571 25.3678 61.8502 25.8968 62.2327 26.3296C62.617 26.7597 63.1162 26.9769 63.7321 26.9769C64.454 26.9769 65.0152 26.6977 65.4157 26.1436C65.8179 25.5878 66.0191 24.8552 66.0191 23.9447ZM79.0501 24.9369C79.0501 25.9542 78.6946 26.7811 77.988 27.4195C77.2104 28.1163 76.1249 28.4656 74.7331 28.4656C73.4473 28.4656 72.4165 28.2178 71.639 27.7212L72.0816 26.1257C72.9212 26.6231 73.8433 26.8709 74.8471 26.8709C75.569 26.8709 76.1302 26.7075 76.5307 26.3834C76.9319 26.0583 77.1349 25.6237 77.1349 25.0814C77.1349 24.5957 76.967 24.1889 76.6375 23.8577C76.3062 23.5272 75.7585 23.2193 74.9891 22.9364C72.8969 22.1562 71.85 21.015 71.85 19.5137C71.85 18.5332 72.2199 17.7305 72.958 17.1028C73.6961 16.4761 74.6748 16.1628 75.8923 16.1628C76.9797 16.1628 77.8857 16.3523 78.6049 16.7303L78.1245 18.2908C77.4475 17.9244 76.6833 17.7412 75.8285 17.7412C75.1534 17.7412 74.6235 17.9074 74.2446 18.2378C73.9259 18.5332 73.7643 18.8933 73.7643 19.3206C73.7643 19.7921 73.9484 20.1836 74.3147 20.4907C74.6325 20.7734 75.2126 21.0815 76.0512 21.4119C77.0802 21.8267 77.8361 22.3098 78.3202 22.8647C78.8077 23.4194 79.0501 24.1117 79.0501 24.9369ZM85.3956 21.1092H83.2855V25.2924C83.2855 26.3564 83.6573 26.8871 84.4025 26.8871C84.7446 26.8871 85.0284 26.8583 85.2528 26.7982L85.3057 28.2519C84.9287 28.3929 84.4321 28.4638 83.817 28.4638C83.061 28.4638 82.4702 28.233 82.0437 27.7715C81.619 27.31 81.4054 26.5369 81.4054 25.4487V21.1056H80.1483V19.6689H81.4054V18.0913L83.2855 17.5239V19.6689H85.3956V21.1092ZM94.897 23.9097C94.897 25.234 94.5182 26.3213 93.7621 27.1717C92.971 28.0472 91.9187 28.4835 90.6069 28.4835C89.3409 28.4835 88.3343 28.0642 87.5837 27.2265C86.8331 26.3869 86.4577 25.3292 86.4577 24.0533C86.4577 22.7181 86.8456 21.6245 87.6187 20.7742C88.3936 19.923 89.437 19.4975 90.7488 19.4975C92.013 19.4975 93.0286 19.9177 93.7971 20.7563C94.5316 21.5698 94.897 22.6203 94.897 23.9097ZM92.9127 23.9537C92.9127 23.1644 92.7422 22.4873 92.4 21.9208C91.9986 21.2366 91.424 20.8946 90.6796 20.8946C89.9128 20.8946 89.3248 21.2366 88.9242 21.9208C88.5813 22.4873 88.4107 23.176 88.4107 23.9895C88.4107 24.7797 88.5813 25.4585 88.9242 26.0233C89.3382 26.7075 89.9155 27.0496 90.6635 27.0496C91.3952 27.0496 91.969 26.7003 92.3838 26.0062C92.7359 25.4262 92.9127 24.7447 92.9127 23.9537ZM101.122 21.3561C100.933 21.321 100.73 21.303 100.519 21.303C99.8454 21.303 99.3246 21.5563 98.9583 22.0662C98.6405 22.5152 98.4806 23.0826 98.4806 23.7677V28.2886H96.5663V22.386C96.5663 21.3938 96.5474 20.4887 96.5106 19.6734H98.1781L98.2481 21.3219H98.3011C98.504 20.7554 98.8218 20.2983 99.2582 19.9562C99.6847 19.6483 100.145 19.4947 100.642 19.4947C100.819 19.4947 100.979 19.5072 101.121 19.5298L101.122 21.3561ZM109.684 23.573C109.684 23.916 109.661 24.205 109.614 24.4412H103.871C103.892 25.2924 104.171 25.9443 104.704 26.3932C105.188 26.7938 105.814 26.9948 106.582 26.9948C107.433 26.9948 108.208 26.8601 108.906 26.5881L109.206 27.9161C108.391 28.2716 107.428 28.4485 106.317 28.4485C104.981 28.4485 103.933 28.0552 103.169 27.2705C102.408 26.4848 102.026 25.4289 102.026 24.1063C102.026 22.8079 102.381 21.726 103.091 20.8631C103.835 19.9419 104.839 19.4812 106.104 19.4812C107.346 19.4812 108.286 19.9418 108.924 20.8631C109.429 21.5931 109.684 22.4982 109.684 23.573ZM107.858 23.0764C107.872 22.5081 107.746 22.0187 107.486 21.6048C107.155 21.0714 106.645 20.8057 105.962 20.8057C105.336 20.8057 104.826 21.0652 104.438 21.5859C104.119 21.9999 103.93 22.4973 103.872 23.0746L107.858 23.0764Z" fill="white"/>
<path d="M43.7694 12.0629H42.7664L42.2178 10.3381H40.3097L39.7863 12.0629H38.8103L40.7012 6.18982H41.8685L43.7694 12.0629ZM42.0525 9.61438L41.556 8.08078C41.5039 7.92365 41.4079 7.55821 41.2597 6.97458H41.2418C41.1807 7.22689 41.0936 7.59322 40.9625 8.08078L40.475 9.61438H42.0525ZM48.4976 7.82847L46.894 12.0629H45.9789L44.4275 7.82847H45.4385L46.1622 10.0678C46.2843 10.4422 46.3885 10.7996 46.4666 11.139H46.4926C46.5627 10.8346 46.6668 10.4772 46.797 10.0678L47.5117 7.82847H48.4976ZM51.9114 12.0629L51.8413 11.5753H51.8152C51.5279 11.9677 51.1095 12.1589 50.578 12.1589C49.8201 12.1589 49.2796 11.6274 49.2796 10.9126C49.2796 9.86751 50.1856 9.32698 51.7542 9.32698V9.24886C51.7542 8.69127 51.4579 8.41203 50.8742 8.41203C50.4558 8.41203 50.0895 8.51708 49.768 8.72629L49.5767 8.10764C49.9691 7.86341 50.4567 7.7413 51.0322 7.7413C52.1384 7.7413 52.6969 8.32493 52.6969 9.49309V11.0527C52.6969 11.4801 52.7148 11.8114 52.7579 12.0637L51.9114 12.0629ZM51.7803 9.95378C50.7343 9.95378 50.2117 10.207 50.2117 10.8077C50.2117 11.2521 50.4819 11.4694 50.8564 11.4694C51.3358 11.4694 51.7803 11.104 51.7803 10.6074V9.95378ZM54.7927 7.13081C54.4794 7.13081 54.2351 6.88658 54.2351 6.56424C54.2351 6.2419 54.4875 6.00665 54.8107 6.00665C55.133 6.00665 55.3943 6.2419 55.3854 6.56424C55.3854 6.90454 55.1421 7.13081 54.7927 7.13081ZM55.2812 12.0629H54.3402V7.82847H55.2812V12.0629ZM57.894 12.0629H56.953V5.88544H57.894V12.0629ZM61.8932 12.0629L61.8231 11.5753H61.7972C61.5098 11.9677 61.0914 12.1589 60.5599 12.1589C59.802 12.1589 59.2615 11.6274 59.2615 10.9126C59.2615 9.86751 60.1674 9.32698 61.736 9.32698V9.24886C61.736 8.69127 61.4397 8.41203 60.8561 8.41203C60.4377 8.41203 60.0713 8.51708 59.7499 8.72629L59.5578 8.10674C59.9502 7.86252 60.4378 7.7404 61.0133 7.7404C62.1195 7.7404 62.6779 8.32403 62.6779 9.49219V11.0518C62.6779 11.4792 62.6968 11.8105 62.7381 12.0628H61.8932V12.0629ZM61.7621 9.95378C60.7161 9.95378 60.1935 10.207 60.1935 10.8077C60.1935 11.2521 60.4637 11.4694 60.8381 11.4694C61.3176 11.4694 61.7621 11.104 61.7621 10.6074V9.95378ZM66.4905 12.159C65.8898 12.159 65.4462 11.9058 65.1589 11.4093H65.14L65.0861 12.0629H64.2843C64.3104 11.7235 64.3193 11.3392 64.3193 10.9217V5.88544H65.2612V8.44802H65.2792C65.5583 7.97752 66.0101 7.74227 66.6296 7.74227C67.6496 7.74227 68.3643 8.61413 68.3643 9.88554C68.3643 11.2 67.5706 12.159 66.4905 12.159ZM66.2992 8.48124C65.7578 8.48124 65.2622 8.95173 65.2622 9.6054V10.3462C65.2622 10.9298 65.7075 11.4093 66.2831 11.4093C66.9879 11.4093 67.4073 10.8346 67.4073 9.91966C67.4063 9.06576 66.9699 8.48124 66.2992 8.48124ZM70.6961 12.0629H69.7561V5.88544H70.6961V12.0629ZM75.8187 10.172H72.9939C73.0128 10.9738 73.5425 11.4263 74.3272 11.4263C74.7456 11.4263 75.129 11.3563 75.4684 11.2261L75.6148 11.8798C75.2143 12.0539 74.7438 12.141 74.1952 12.141C72.8699 12.141 72.0861 11.3042 72.0861 10.0068C72.0861 8.7084 72.8889 7.7324 74.0893 7.7324C75.1695 7.7324 75.85 8.53421 75.85 9.74547C75.8536 9.91068 75.8456 10.0588 75.8187 10.172ZM74.9557 9.50124C74.9557 8.84758 74.6243 8.38606 74.0228 8.38606C73.4822 8.38606 73.0567 8.85656 72.9938 9.50124H74.9557ZM81.522 12.159C80.2847 12.159 79.4829 11.2351 79.4829 9.98071C79.4829 8.67339 80.3018 7.74138 81.5929 7.74138C82.8113 7.74138 83.6321 8.62131 83.6321 9.91158C83.6321 11.2351 82.7862 12.159 81.522 12.159ZM81.5579 8.42916C80.8782 8.42916 80.4428 9.06487 80.4428 9.95378C80.4428 10.8256 80.8873 11.4613 81.549 11.4613C82.2108 11.4613 82.6543 10.7816 82.6543 9.93582C82.6551 9.07385 82.2197 8.42916 81.5579 8.42916ZM88.6908 12.0629H87.7508V9.63143C87.7508 8.88259 87.4634 8.50728 86.8969 8.50728C86.3393 8.50728 85.955 8.98675 85.955 9.54434V12.0629H85.0149V9.03883C85.0149 8.66441 85.005 8.26305 84.9799 7.82757H85.8077L85.8517 8.48124H85.8778C86.1291 8.0287 86.6445 7.74048 87.2192 7.74048C88.1072 7.74048 88.6908 8.42018 88.6908 9.52638V12.0629ZM94.8476 8.53421H93.8123V10.5904C93.8123 11.1139 93.9947 11.3751 94.3601 11.3751C94.5262 11.3751 94.6662 11.3572 94.7785 11.3311L94.8046 12.0459C94.6213 12.116 94.3762 12.1509 94.0736 12.1509C93.332 12.1509 92.8893 11.7415 92.8893 10.6694V8.53421H92.2716V7.82847H92.8893V7.05269L93.8123 6.77345V7.82757H94.8476V8.53421ZM99.831 12.0629H98.889V9.64939C98.889 8.89157 98.6017 8.50817 98.0352 8.50817C97.5476 8.50817 97.0951 8.8395 97.0951 9.51022V12.0629H96.1532V5.88544H97.0951V8.42916H97.1131C97.4094 7.96764 97.8368 7.74048 98.3854 7.74048C99.2824 7.74048 99.831 8.43724 99.831 9.54434V12.0629ZM104.639 10.172H101.815C101.833 10.9738 102.363 11.4263 103.148 11.4263C103.567 11.4263 103.95 11.3563 104.289 11.2261L104.436 11.8798C104.036 12.0539 103.565 12.141 103.016 12.141C101.691 12.141 100.907 11.3042 100.907 10.0068C100.907 8.7084 101.71 7.7324 102.91 7.7324C103.99 7.7324 104.671 8.53421 104.671 9.74547C104.674 9.91068 104.665 10.0588 104.639 10.172ZM103.776 9.50124C103.776 8.84758 103.446 8.38606 102.844 8.38606C102.303 8.38606 101.877 8.85656 101.815 9.50124H103.776Z" fill="white"/>
<defs>
<linearGradient id="paint0_linear" x1="88.8558" y1="36.0049" x2="88.8558" y2="3.63951" gradientUnits="userSpaceOnUse">
<stop stop-color="#1A1A1A" stop-opacity="0.1"/>
<stop offset="0.123" stop-color="#212121" stop-opacity="0.151"/>
<stop offset="0.308" stop-color="#353535" stop-opacity="0.227"/>
<stop offset="0.532" stop-color="#575757" stop-opacity="0.318"/>
<stop offset="0.783" stop-color="#858585" stop-opacity="0.421"/>
<stop offset="1" stop-color="#B3B3B3" stop-opacity="0.51"/>
</linearGradient>
</defs>
</svg>
