<svg width="162" height="286" viewBox="0 0 162 286" fill="none" xmlns="http://www.w3.org/2000/svg">
<g clip-path="url(#clip0)">
<rect width="160.795" height="286" transform="translate(0.445801)" fill="url(#paint0_linear)"/>
<rect x="33.4622" y="231.115" width="94.7616" height="19.7241" rx="9.86207" fill="white"/>
<path d="M67.5738 239.101C66.9683 239.101 66.4896 239.303 66.1379 239.708C65.7887 240.11 65.6141 240.661 65.6141 241.362C65.6141 242.083 65.7824 242.641 66.1191 243.035C66.4582 243.427 66.9406 243.623 67.5662 243.623C67.9506 243.623 68.389 243.554 68.8815 243.416V243.977C68.4996 244.121 68.0285 244.192 67.4682 244.192C66.6567 244.192 66.0299 243.946 65.5877 243.454C65.148 242.961 64.9282 242.261 64.9282 241.354C64.9282 240.787 65.0337 240.289 65.2447 239.862C65.4583 239.435 65.7648 239.106 66.1643 238.875C66.5663 238.644 67.0386 238.528 67.5813 238.528C68.1591 238.528 68.6641 238.633 69.0963 238.845L68.8249 239.395C68.4079 239.199 67.9908 239.101 67.5738 239.101ZM73.5546 242.048C73.5546 242.721 73.385 243.248 73.0458 243.627C72.7066 244.004 72.2381 244.192 71.6401 244.192C71.2708 244.192 70.9429 244.106 70.6565 243.932C70.3701 243.759 70.149 243.51 69.9932 243.186C69.8374 242.862 69.7596 242.482 69.7596 242.048C69.7596 241.375 69.9279 240.851 70.2646 240.476C70.6012 240.099 71.0685 239.911 71.6665 239.911C72.2443 239.911 72.7029 240.103 73.042 240.488C73.3837 240.872 73.5546 241.392 73.5546 242.048ZM70.4078 242.048C70.4078 242.575 70.5133 242.977 70.7243 243.254C70.9354 243.53 71.2457 243.668 71.6552 243.668C72.0647 243.668 72.375 243.531 72.586 243.258C72.7996 242.981 72.9064 242.578 72.9064 242.048C72.9064 241.523 72.7996 241.125 72.586 240.853C72.375 240.579 72.0622 240.442 71.6476 240.442C71.2381 240.442 70.9291 240.577 70.7206 240.846C70.512 241.114 70.4078 241.515 70.4078 242.048ZM77.4815 244.117V241.445C77.4815 241.108 77.4048 240.857 77.2516 240.691C77.0983 240.525 76.8584 240.442 76.5318 240.442C76.0996 240.442 75.7831 240.559 75.5821 240.793C75.3811 241.027 75.2806 241.412 75.2806 241.95V244.117H74.655V239.986H75.1638L75.2655 240.552H75.2957C75.4238 240.348 75.6034 240.191 75.8346 240.081C76.0657 239.968 76.3232 239.911 76.6071 239.911C77.1046 239.911 77.479 240.032 77.7302 240.273C77.9814 240.512 78.1071 240.895 78.1071 241.422V244.117H77.4815ZM80.73 243.676C80.8406 243.676 80.9473 243.668 81.0504 243.653C81.1534 243.636 81.235 243.618 81.2953 243.601V244.079C81.2275 244.112 81.127 244.138 80.9938 244.158C80.8632 244.181 80.7451 244.192 80.6396 244.192C79.8406 244.192 79.4412 243.771 79.4412 242.93V240.473H78.8495V240.171L79.4412 239.911L79.705 239.029H80.0667V239.986H81.2652V240.473H80.0667V242.903C80.0667 243.152 80.1258 243.343 80.2439 243.476C80.362 243.609 80.524 243.676 80.73 243.676ZM82.75 244.117H82.1244V239.986H82.75V244.117ZM82.0717 238.867C82.0717 238.724 82.1068 238.62 82.1772 238.554C82.2475 238.486 82.3355 238.453 82.441 238.453C82.5415 238.453 82.6282 238.486 82.701 238.554C82.7739 238.622 82.8103 238.726 82.8103 238.867C82.8103 239.008 82.7739 239.113 82.701 239.184C82.6282 239.252 82.5415 239.285 82.441 239.285C82.3355 239.285 82.2475 239.252 82.1772 239.184C82.1068 239.113 82.0717 239.008 82.0717 238.867ZM86.903 244.117V241.445C86.903 241.108 86.8264 240.857 86.6731 240.691C86.5199 240.525 86.2799 240.442 85.9533 240.442C85.5212 240.442 85.2046 240.559 85.0036 240.793C84.8026 241.027 84.7021 241.412 84.7021 241.95V244.117H84.0766V239.986H84.5853L84.6871 240.552H84.7172C84.8454 240.348 85.025 240.191 85.2561 240.081C85.4873 239.968 85.7448 239.911 86.0287 239.911C86.5262 239.911 86.9005 240.032 87.1518 240.273C87.403 240.512 87.5286 240.895 87.5286 241.422V244.117H86.903ZM89.4054 239.986V242.666C89.4054 243.003 89.482 243.254 89.6353 243.42C89.7885 243.585 90.0285 243.668 90.3551 243.668C90.7872 243.668 91.1025 243.55 91.301 243.314C91.502 243.078 91.6025 242.692 91.6025 242.157V239.986H92.2281V244.117H91.7118L91.6213 243.563H91.5874C91.4593 243.766 91.2809 243.922 91.0523 244.03C90.8262 244.138 90.5674 244.192 90.2759 244.192C89.7735 244.192 89.3966 244.073 89.1454 243.834C88.8966 243.595 88.7723 243.214 88.7723 242.689V239.986H89.4054ZM95.3033 244.192C94.6928 244.192 94.2104 244.006 93.8561 243.634C93.5044 243.263 93.3285 242.746 93.3285 242.086C93.3285 241.42 93.4918 240.891 93.8185 240.499C94.1476 240.107 94.5885 239.911 95.1412 239.911C95.6588 239.911 96.0683 240.082 96.3698 240.424C96.6713 240.763 96.822 241.211 96.822 241.769V242.165H93.9767C93.9893 242.65 94.1112 243.018 94.3423 243.269C94.5759 243.52 94.9038 243.646 95.3259 243.646C95.7706 243.646 96.2103 243.553 96.6449 243.367V243.925C96.4238 244.02 96.214 244.088 96.0156 244.128C95.8196 244.171 95.5822 244.192 95.3033 244.192ZM95.1337 240.435C94.8021 240.435 94.537 240.543 94.3385 240.759C94.1426 240.975 94.027 241.274 93.9918 241.656H96.1512C96.1512 241.261 96.0633 240.96 95.8874 240.751C95.7116 240.54 95.4603 240.435 95.1337 240.435Z" fill="#274483"/>
<rect x="33.4622" y="231.115" width="94.7616" height="19.7241" rx="9.86207" stroke="url(#paint1_linear)" stroke-width="0.857571"/>
<path d="M65.1999 262.733C65.1999 263.218 65.024 263.596 64.6723 263.868C64.3205 264.139 63.8432 264.275 63.2402 264.275C62.5869 264.275 62.0845 264.191 61.7327 264.022V263.404C61.9588 263.5 62.2051 263.575 62.4714 263.63C62.7377 263.686 63.0015 263.713 63.2628 263.713C63.6899 263.713 64.0115 263.633 64.2276 263.472C64.4436 263.309 64.5517 263.083 64.5517 262.794C64.5517 262.603 64.5127 262.447 64.4348 262.326C64.3595 262.203 64.2313 262.09 64.0504 261.987C63.872 261.884 63.5995 261.767 63.2326 261.637C62.7201 261.453 62.3533 261.236 62.1322 260.985C61.9136 260.734 61.8043 260.406 61.8043 260.001C61.8043 259.577 61.9639 259.239 62.2829 258.987C62.602 258.736 63.0241 258.611 63.5492 258.611C64.0969 258.611 64.6006 258.711 65.0604 258.912L64.8607 259.47C64.4059 259.279 63.9638 259.183 63.5341 259.183C63.195 259.183 62.9299 259.256 62.7389 259.402C62.548 259.548 62.4525 259.75 62.4525 260.009C62.4525 260.2 62.4877 260.357 62.5581 260.48C62.6284 260.6 62.7465 260.712 62.9123 260.815C63.0806 260.916 63.3369 261.028 63.6811 261.151C64.259 261.357 64.6559 261.578 64.872 261.814C65.0906 262.05 65.1999 262.357 65.1999 262.733ZM66.8505 262.085C66.9586 261.932 67.1231 261.731 67.3442 261.482L68.6783 260.069H69.4207L67.7474 261.829L69.5375 264.199H68.7801L67.3216 262.247L66.8505 262.654V264.199H66.2325V258.335H66.8505V261.445C66.8505 261.583 66.8405 261.796 66.8204 262.085H66.8505ZM70.9131 264.199H70.2875V260.069H70.9131V264.199ZM70.2347 258.95C70.2347 258.807 70.2699 258.702 70.3403 258.637C70.4106 258.569 70.4985 258.535 70.6041 258.535C70.7046 258.535 70.7912 258.569 70.8641 258.637C70.937 258.705 70.9734 258.809 70.9734 258.95C70.9734 259.09 70.937 259.196 70.8641 259.266C70.7912 259.334 70.7046 259.368 70.6041 259.368C70.4985 259.368 70.4106 259.334 70.3403 259.266C70.2699 259.196 70.2347 259.09 70.2347 258.95ZM74.1616 264.275C73.8928 264.275 73.6466 264.226 73.423 264.128C73.2019 264.027 73.016 263.874 72.8652 263.668H72.82C72.8502 263.909 72.8652 264.138 72.8652 264.354V266.054H72.2396V260.069H72.7484L72.8351 260.634H72.8652C73.026 260.408 73.2132 260.245 73.4268 260.144C73.6403 260.044 73.8853 259.994 74.1616 259.994C74.7094 259.994 75.1314 260.181 75.4279 260.555C75.7269 260.93 75.8764 261.455 75.8764 262.13C75.8764 262.809 75.7244 263.336 75.4204 263.713C75.1189 264.088 74.6993 264.275 74.1616 264.275ZM74.0712 260.525C73.6491 260.525 73.3439 260.642 73.1554 260.876C72.967 261.109 72.8703 261.481 72.8652 261.991V262.13C72.8652 262.711 72.962 263.127 73.1554 263.378C73.3489 263.627 73.6592 263.751 74.0863 263.751C74.443 263.751 74.7219 263.607 74.9229 263.318C75.1264 263.029 75.2282 262.63 75.2282 262.123C75.2282 261.608 75.1264 261.213 74.9229 260.94C74.7219 260.663 74.438 260.525 74.0712 260.525ZM80.8397 260.555H79.7882V264.199H79.1626V260.555H78.424V260.273L79.1626 260.046V259.817C79.1626 258.802 79.6061 258.294 80.4929 258.294C80.7115 258.294 80.9678 258.338 81.2617 258.426L81.0997 258.927C80.8585 258.849 80.6525 258.81 80.4816 258.81C80.2455 258.81 80.0709 258.889 79.9578 259.048C79.8447 259.204 79.7882 259.455 79.7882 259.801V260.069H80.8397V260.555ZM85.1585 262.13C85.1585 262.804 84.9889 263.33 84.6497 263.71C84.3106 264.086 83.842 264.275 83.244 264.275C82.8747 264.275 82.5468 264.188 82.2604 264.015C81.974 263.841 81.7529 263.593 81.5971 263.269C81.4414 262.945 81.3635 262.565 81.3635 262.13C81.3635 261.457 81.5318 260.933 81.8685 260.559C82.2051 260.182 82.6725 259.994 83.2704 259.994C83.8483 259.994 84.3068 260.186 84.646 260.57C84.9876 260.955 85.1585 261.475 85.1585 262.13ZM82.0117 262.13C82.0117 262.658 82.1172 263.06 82.3283 263.336C82.5393 263.613 82.8496 263.751 83.2591 263.751C83.6686 263.751 83.9789 263.614 84.19 263.34C84.4035 263.064 84.5103 262.661 84.5103 262.13C84.5103 261.605 84.4035 261.207 84.19 260.936C83.9789 260.662 83.6661 260.525 83.2516 260.525C82.842 260.525 82.533 260.659 82.3245 260.928C82.116 261.197 82.0117 261.598 82.0117 262.13ZM88.1432 259.994C88.3266 259.994 88.4912 260.009 88.6369 260.039L88.5503 260.619C88.3794 260.582 88.2287 260.563 88.098 260.563C87.7639 260.563 87.4775 260.698 87.2388 260.97C87.0026 261.241 86.8845 261.579 86.8845 261.984V264.199H86.2589V260.069H86.7752L86.8468 260.834H86.877C87.0302 260.565 87.2149 260.358 87.431 260.212C87.647 260.067 87.8845 259.994 88.1432 259.994ZM94.2409 264.199V261.528C94.2409 261.191 94.1642 260.94 94.011 260.774C93.8577 260.608 93.6178 260.525 93.2912 260.525C92.859 260.525 92.5425 260.642 92.3415 260.876C92.1405 261.109 92.04 261.495 92.04 262.033V264.199H91.4144V260.069H91.9232L92.0249 260.634H92.0551C92.1832 260.431 92.3628 260.274 92.594 260.163C92.8251 260.05 93.0827 259.994 93.3666 259.994C93.864 259.994 94.2384 260.114 94.4896 260.355C94.7408 260.594 94.8665 260.977 94.8665 261.505V264.199H94.2409ZM99.7205 262.13C99.7205 262.804 99.5509 263.33 99.2117 263.71C98.8725 264.086 98.404 264.275 97.806 264.275C97.4367 264.275 97.1088 264.188 96.8224 264.015C96.536 263.841 96.3149 263.593 96.1591 263.269C96.0033 262.945 95.9255 262.565 95.9255 262.13C95.9255 261.457 96.0938 260.933 96.4304 260.559C96.7671 260.182 97.2344 259.994 97.8324 259.994C98.4102 259.994 98.8687 260.186 99.2079 260.57C99.5496 260.955 99.7205 261.475 99.7205 262.13ZM96.5737 262.13C96.5737 262.658 96.6792 263.06 96.8902 263.336C97.1013 263.613 97.4115 263.751 97.8211 263.751C98.2306 263.751 98.5409 263.614 98.7519 263.34C98.9655 263.064 99.0723 262.661 99.0723 262.13C99.0723 261.605 98.9655 261.207 98.7519 260.936C98.5409 260.662 98.2281 260.525 97.8135 260.525C97.404 260.525 97.095 260.659 96.8865 260.928C96.6779 261.197 96.5737 261.598 96.5737 262.13ZM104.194 264.199L103.436 261.776C103.389 261.628 103.299 261.291 103.169 260.766H103.139C103.038 261.206 102.95 261.545 102.875 261.784L102.095 264.199H101.371L100.244 260.069H100.9C101.166 261.107 101.369 261.897 101.507 262.44C101.647 262.982 101.728 263.348 101.748 263.536H101.778C101.806 263.393 101.85 263.208 101.91 262.982C101.973 262.754 102.027 262.573 102.072 262.44L102.83 260.069H103.508L104.247 262.44C104.387 262.872 104.483 263.235 104.533 263.529H104.563C104.573 263.438 104.6 263.299 104.642 263.11C104.688 262.922 104.95 261.908 105.43 260.069H106.078L104.936 264.199H104.194Z" fill="white"/>
<rect x="7.73514" y="118.13" width="145.358" height="20.1529" rx="3.21589" fill="white"/>
<path d="M18.248 129.88C18.248 130.365 18.0721 130.743 17.7203 131.015C17.3686 131.286 16.8913 131.422 16.2883 131.422C15.635 131.422 15.1326 131.337 14.7808 131.169V130.551C15.0069 130.647 15.2532 130.722 15.5195 130.777C15.7858 130.832 16.0496 130.86 16.3109 130.86C16.738 130.86 17.0596 130.78 17.2757 130.619C17.4917 130.456 17.5998 130.229 17.5998 129.941C17.5998 129.75 17.5608 129.594 17.4829 129.473C17.4076 129.35 17.2794 129.237 17.0985 129.134C16.9201 129.031 16.6475 128.914 16.2807 128.784C15.7682 128.6 15.4014 128.383 15.1803 128.132C14.9617 127.88 14.8524 127.553 14.8524 127.148C14.8524 126.723 15.012 126.385 15.331 126.134C15.6501 125.883 16.0722 125.757 16.5973 125.757C17.145 125.757 17.6487 125.858 18.1085 126.059L17.9088 126.617C17.454 126.426 17.0118 126.33 16.5822 126.33C16.243 126.33 15.978 126.403 15.787 126.549C15.5961 126.695 15.5006 126.897 15.5006 127.156C15.5006 127.346 15.5358 127.504 15.6062 127.627C15.6765 127.747 15.7946 127.859 15.9604 127.962C16.1287 128.063 16.385 128.174 16.7292 128.297C17.3071 128.503 17.704 128.725 17.9201 128.961C18.1387 129.197 18.248 129.503 18.248 129.88ZM20.6147 130.905C20.7252 130.905 20.832 130.898 20.935 130.883C21.038 130.865 21.1196 130.848 21.1799 130.83V131.309C21.1121 131.341 21.0116 131.368 20.8785 131.388C20.7478 131.41 20.6297 131.422 20.5242 131.422C19.7253 131.422 19.3258 131.001 19.3258 130.159V127.702H18.7341V127.401L19.3258 127.14L19.5896 126.259H19.9514V127.216H21.1498V127.702H19.9514V130.133C19.9514 130.381 20.0104 130.572 20.1285 130.706C20.2466 130.839 20.4086 130.905 20.6147 130.905ZM24.5491 131.346L24.4247 130.758H24.3946C24.1886 131.017 23.9825 131.193 23.7765 131.286C23.573 131.376 23.318 131.422 23.0115 131.422C22.602 131.422 22.2804 131.316 22.0467 131.105C21.8156 130.894 21.7 130.594 21.7 130.204C21.7 129.37 22.3671 128.933 23.7012 128.893L24.4021 128.87V128.614C24.4021 128.29 24.3318 128.051 24.1911 127.898C24.0529 127.742 23.8305 127.664 23.524 127.664C23.1798 127.664 22.7904 127.77 22.3558 127.981L22.1636 127.502C22.3671 127.392 22.5894 127.305 22.8306 127.242C23.0743 127.179 23.318 127.148 23.5617 127.148C24.0541 127.148 24.4184 127.257 24.6546 127.476C24.8933 127.694 25.0126 128.045 25.0126 128.527V131.346H24.5491ZM23.1359 130.905C23.5253 130.905 23.8305 130.799 24.0516 130.585C24.2752 130.371 24.387 130.072 24.387 129.688V129.315L23.7615 129.341C23.264 129.359 22.9047 129.437 22.6836 129.575C22.465 129.711 22.3558 129.923 22.3558 130.212C22.3558 130.438 22.4236 130.61 22.5593 130.728C22.6974 130.846 22.8896 130.905 23.1359 130.905ZM28.1896 127.14C28.373 127.14 28.5376 127.156 28.6833 127.186L28.5966 127.766C28.4258 127.728 28.275 127.71 28.1444 127.71C27.8102 127.71 27.5238 127.845 27.2851 128.117C27.0489 128.388 26.9309 128.726 26.9309 129.13V131.346H26.3053V127.216H26.8216L26.8932 127.981H26.9233C27.0766 127.712 27.2612 127.505 27.4773 127.359C27.6934 127.213 27.9308 127.14 28.1896 127.14ZM30.7899 130.905C30.9005 130.905 31.0073 130.898 31.1103 130.883C31.2133 130.865 31.2949 130.848 31.3552 130.83V131.309C31.2874 131.341 31.1869 131.368 31.0537 131.388C30.9231 131.41 30.805 131.422 30.6995 131.422C29.9005 131.422 29.5011 131.001 29.5011 130.159V127.702H28.9094V127.401L29.5011 127.14L29.7649 126.259H30.1267V127.216H31.3251V127.702H30.1267V130.133C30.1267 130.381 30.1857 130.572 30.3038 130.706C30.4219 130.839 30.5839 130.905 30.7899 130.905ZM36.7293 131.346L36.6049 130.758H36.5748C36.3688 131.017 36.1627 131.193 35.9567 131.286C35.7532 131.376 35.4982 131.422 35.1917 131.422C34.7822 131.422 34.4606 131.316 34.2269 131.105C33.9958 130.894 33.8802 130.594 33.8802 130.204C33.8802 129.37 34.5473 128.933 35.8813 128.893L36.5823 128.87V128.614C36.5823 128.29 36.512 128.051 36.3713 127.898C36.2331 127.742 36.0107 127.664 35.7042 127.664C35.36 127.664 34.9706 127.77 34.5359 127.981L34.3437 127.502C34.5473 127.392 34.7696 127.305 35.0108 127.242C35.2545 127.179 35.4982 127.148 35.7419 127.148C36.2343 127.148 36.5986 127.257 36.8348 127.476C37.0735 127.694 37.1928 128.045 37.1928 128.527V131.346H36.7293ZM35.3161 130.905C35.7055 130.905 36.0107 130.799 36.2318 130.585C36.4554 130.371 36.5672 130.072 36.5672 129.688V129.315L35.9416 129.341C35.4442 129.359 35.0849 129.437 34.8638 129.575C34.6452 129.711 34.5359 129.923 34.5359 130.212C34.5359 130.438 34.6038 130.61 34.7395 130.728C34.8776 130.846 35.0698 130.905 35.3161 130.905ZM39.8196 130.905C39.9301 130.905 40.0369 130.898 40.1399 130.883C40.2429 130.865 40.3246 130.848 40.3849 130.83V131.309C40.317 131.341 40.2165 131.368 40.0834 131.388C39.9527 131.41 39.8346 131.422 39.7291 131.422C38.9302 131.422 38.5307 131.001 38.5307 130.159V127.702H37.939V127.401L38.5307 127.14L38.7945 126.259H39.1563V127.216H40.3547V127.702H39.1563V130.133C39.1563 130.381 39.2153 130.572 39.3334 130.706C39.4515 130.839 39.6135 130.905 39.8196 130.905Z" fill="#274483"/>
<path fill-rule="evenodd" clip-rule="evenodd" d="M89.4188 122.633H97.9945C98.7049 122.633 99.2808 123.209 99.2808 123.919V132.495C99.2808 133.205 98.7049 133.781 97.9945 133.781H89.4188C88.7083 133.781 88.1324 133.205 88.1324 132.495V123.919C88.1324 123.209 88.7083 122.633 89.4188 122.633ZM87.7036 123.919C87.7036 122.972 88.4715 122.204 89.4188 122.204H97.9945C98.9417 122.204 99.7096 122.972 99.7096 123.919V132.495C99.7096 133.442 98.9417 134.21 97.9945 134.21H89.4188C88.4715 134.21 87.7036 133.442 87.7036 132.495V123.919ZM91.4555 127.778C91.2779 127.778 91.1339 127.922 91.1339 128.1C91.1339 128.277 91.2779 128.421 91.4555 128.421H95.9578C96.1354 128.421 96.2794 128.277 96.2794 128.1C96.2794 127.922 96.1354 127.778 95.9578 127.778H91.4555Z" fill="#212121"/>
<path d="M112.1 128.085C112.1 129.037 111.949 129.748 111.647 130.218C111.348 130.688 110.89 130.922 110.272 130.922C109.679 130.922 109.228 130.682 108.919 130.203C108.61 129.72 108.455 129.014 108.455 128.085C108.455 127.125 108.605 126.413 108.904 125.948C109.203 125.483 109.659 125.251 110.272 125.251C110.87 125.251 111.323 125.493 111.632 125.978C111.944 126.463 112.1 127.165 112.1 128.085ZM109.089 128.085C109.089 128.886 109.183 129.47 109.371 129.837C109.56 130.201 109.86 130.384 110.272 130.384C110.689 130.384 110.99 130.199 111.176 129.83C111.365 129.458 111.459 128.876 111.459 128.085C111.459 127.293 111.365 126.714 111.176 126.347C110.99 125.978 110.689 125.793 110.272 125.793C109.86 125.793 109.56 125.975 109.371 126.34C109.183 126.702 109.089 127.283 109.089 128.085ZM116.486 127.689C116.486 129.845 115.652 130.922 113.984 130.922C113.693 130.922 113.461 130.897 113.291 130.847V130.308C113.492 130.373 113.72 130.406 113.976 130.406C114.579 130.406 115.034 130.22 115.341 129.848C115.65 129.474 115.818 128.901 115.846 128.13H115.8C115.662 128.338 115.479 128.498 115.25 128.608C115.022 128.717 114.764 128.771 114.478 128.771C113.99 128.771 113.603 128.625 113.317 128.333C113.031 128.042 112.887 127.635 112.887 127.112C112.887 126.54 113.047 126.087 113.366 125.756C113.688 125.424 114.11 125.258 114.632 125.258C115.007 125.258 115.333 125.355 115.612 125.548C115.893 125.739 116.11 126.019 116.26 126.389C116.411 126.756 116.486 127.189 116.486 127.689ZM114.632 125.793C114.273 125.793 113.995 125.909 113.799 126.14C113.603 126.371 113.505 126.693 113.505 127.105C113.505 127.467 113.596 127.752 113.777 127.96C113.958 128.166 114.233 128.269 114.602 128.269C114.831 128.269 115.04 128.223 115.231 128.13C115.425 128.037 115.577 127.91 115.687 127.749C115.798 127.588 115.853 127.42 115.853 127.244C115.853 126.98 115.802 126.737 115.699 126.513C115.596 126.29 115.451 126.114 115.265 125.986C115.082 125.857 114.871 125.793 114.632 125.793ZM117.478 130.448C117.478 130.279 117.515 130.152 117.591 130.067C117.668 129.979 117.779 129.935 117.922 129.935C118.068 129.935 118.181 129.979 118.261 130.067C118.344 130.152 118.386 130.279 118.386 130.448C118.386 130.611 118.344 130.736 118.261 130.824C118.178 130.912 118.065 130.956 117.922 130.956C117.794 130.956 117.687 130.917 117.602 130.84C117.519 130.759 117.478 130.628 117.478 130.448ZM117.478 127.12C117.478 126.781 117.626 126.611 117.922 126.611C118.231 126.611 118.386 126.781 118.386 127.12C118.386 127.283 118.344 127.409 118.261 127.497C118.178 127.585 118.065 127.629 117.922 127.629C117.794 127.629 117.687 127.59 117.602 127.512C117.519 127.431 117.478 127.301 117.478 127.12ZM122.991 128.085C122.991 129.037 122.84 129.748 122.539 130.218C122.24 130.688 121.781 130.922 121.163 130.922C120.57 130.922 120.119 130.682 119.81 130.203C119.501 129.72 119.347 129.014 119.347 128.085C119.347 127.125 119.496 126.413 119.795 125.948C120.094 125.483 120.55 125.251 121.163 125.251C121.761 125.251 122.215 125.493 122.524 125.978C122.835 126.463 122.991 127.165 122.991 128.085ZM119.98 128.085C119.98 128.886 120.074 129.47 120.263 129.837C120.451 130.201 120.751 130.384 121.163 130.384C121.58 130.384 121.882 130.199 122.068 129.83C122.256 129.458 122.35 128.876 122.35 128.085C122.35 127.293 122.256 126.714 122.068 126.347C121.882 125.978 121.58 125.793 121.163 125.793C120.751 125.793 120.451 125.975 120.263 126.34C120.074 126.702 119.98 127.283 119.98 128.085ZM127.408 128.085C127.408 129.037 127.257 129.748 126.956 130.218C126.657 130.688 126.198 130.922 125.58 130.922C124.987 130.922 124.536 130.682 124.227 130.203C123.918 129.72 123.764 129.014 123.764 128.085C123.764 127.125 123.913 126.413 124.212 125.948C124.511 125.483 124.967 125.251 125.58 125.251C126.178 125.251 126.632 125.493 126.941 125.978C127.252 126.463 127.408 127.165 127.408 128.085ZM124.397 128.085C124.397 128.886 124.491 129.47 124.679 129.837C124.868 130.201 125.168 130.384 125.58 130.384C125.997 130.384 126.299 130.199 126.485 129.83C126.673 129.458 126.767 128.876 126.767 128.085C126.767 127.293 126.673 126.714 126.485 126.347C126.299 125.978 125.997 125.793 125.58 125.793C125.168 125.793 124.868 125.975 124.679 126.34C124.491 126.702 124.397 127.283 124.397 128.085Z" fill="black"/>
<path fill-rule="evenodd" clip-rule="evenodd" d="M146.876 122.633H138.3C137.59 122.633 137.014 123.209 137.014 123.919V132.495C137.014 133.205 137.59 133.781 138.3 133.781H146.876C147.586 133.781 148.162 133.205 148.162 132.495V123.919C148.162 123.209 147.586 122.633 146.876 122.633ZM138.3 122.204C137.353 122.204 136.585 122.972 136.585 123.919V132.495C136.585 133.442 137.353 134.21 138.3 134.21H146.876C147.823 134.21 148.591 133.442 148.591 132.495V123.919C148.591 122.972 147.823 122.204 146.876 122.204H138.3ZM140.016 128.1C140.016 127.922 140.159 127.778 140.337 127.778H142.159V125.956C142.159 125.778 142.303 125.634 142.481 125.634C142.659 125.634 142.803 125.778 142.803 125.956V127.778H144.839C145.017 127.778 145.161 127.922 145.161 128.1C145.161 128.277 145.017 128.421 144.839 128.421H142.803V130.458C142.803 130.636 142.659 130.78 142.481 130.78C142.303 130.78 142.159 130.636 142.159 130.458V128.421H140.337C140.159 128.421 140.016 128.277 140.016 128.1Z" fill="#212121"/>
<rect x="7.73514" y="118.13" width="145.358" height="20.1529" rx="3.21589" stroke="url(#paint2_linear)" stroke-width="0.428786"/>
<rect x="7.73514" y="145.573" width="145.358" height="20.1529" rx="3.21589" fill="white"/>
<path d="M18.2103 158.789H15.1388V153.279H18.2103V153.848H15.7795V155.623H18.0633V156.188H15.7795V158.216H18.2103V158.789ZM22.1673 158.789V156.117C22.1673 155.78 22.0907 155.529 21.9374 155.363C21.7842 155.197 21.5442 155.114 21.2176 155.114C20.7855 155.114 20.4689 155.231 20.2679 155.465C20.0669 155.698 19.9664 156.084 19.9664 156.622V158.789H19.3409V154.658H19.8496L19.9514 155.223H19.9815C20.1097 155.02 20.2893 154.863 20.5204 154.752C20.7516 154.639 21.0091 154.583 21.293 154.583C21.7905 154.583 22.1648 154.703 22.4161 154.945C22.6673 155.183 22.7929 155.566 22.7929 156.094V158.789H22.1673ZM26.8932 158.235H26.8593C26.5703 158.654 26.1382 158.864 25.5629 158.864C25.0227 158.864 24.6019 158.679 24.3004 158.31C24.0014 157.941 23.8519 157.416 23.8519 156.735C23.8519 156.054 24.0026 155.525 24.3041 155.148C24.6056 154.771 25.0252 154.583 25.5629 154.583C26.1231 154.583 26.5527 154.786 26.8517 155.193H26.9007L26.8743 154.896L26.8593 154.605V152.925H27.4849V158.789H26.9761L26.8932 158.235ZM25.642 158.34C26.0691 158.34 26.3781 158.225 26.5691 157.993C26.7625 157.76 26.8593 157.384 26.8593 156.867V156.735C26.8593 156.149 26.7613 155.732 26.5653 155.483C26.3719 155.232 26.0616 155.107 25.6345 155.107C25.2676 155.107 24.9863 155.25 24.7903 155.536C24.5968 155.82 24.5001 156.222 24.5001 156.742C24.5001 157.27 24.5968 157.668 24.7903 157.937C24.9837 158.206 25.2676 158.34 25.642 158.34ZM33.3601 158.789L33.2358 158.201H33.2056C32.9996 158.459 32.7936 158.635 32.5876 158.728C32.3841 158.819 32.1291 158.864 31.8225 158.864C31.413 158.864 31.0914 158.758 30.8578 158.547C30.6266 158.336 30.5111 158.036 30.5111 157.647C30.5111 156.813 31.1781 156.375 32.5122 156.335L33.2132 156.313V156.056C33.2132 155.732 33.1428 155.494 33.0021 155.34C32.8639 155.185 32.6416 155.107 32.3351 155.107C31.9909 155.107 31.6014 155.212 31.1668 155.423L30.9746 154.945C31.1781 154.834 31.4005 154.747 31.6416 154.685C31.8854 154.622 32.1291 154.59 32.3728 154.59C32.8652 154.59 33.2295 154.7 33.4657 154.918C33.7043 155.137 33.8237 155.487 33.8237 155.97V158.789H33.3601ZM31.9469 158.348C32.3363 158.348 32.6416 158.241 32.8627 158.027C33.0863 157.814 33.1981 157.515 33.1981 157.13V156.757L32.5725 156.784C32.075 156.801 31.7158 156.879 31.4947 157.017C31.2761 157.153 31.1668 157.365 31.1668 157.654C31.1668 157.88 31.2346 158.052 31.3703 158.171C31.5085 158.289 31.7007 158.348 31.9469 158.348ZM36.4504 158.348C36.561 158.348 36.6677 158.34 36.7707 158.325C36.8738 158.307 36.9554 158.29 37.0157 158.272V158.751C36.9479 158.784 36.8474 158.81 36.7142 158.83C36.5836 158.853 36.4655 158.864 36.36 158.864C35.561 158.864 35.1615 158.443 35.1615 157.601V155.144H34.5699V154.843L35.1615 154.583L35.4253 153.701H35.7871V154.658H36.9856V155.144H35.7871V157.575C35.7871 157.824 35.8462 158.015 35.9643 158.148C36.0823 158.281 36.2444 158.348 36.4504 158.348Z" fill="#274483"/>
<path fill-rule="evenodd" clip-rule="evenodd" d="M89.4188 150.075H97.9945C98.7049 150.075 99.2808 150.651 99.2808 151.361V159.937C99.2808 160.647 98.7049 161.223 97.9945 161.223H89.4188C88.7083 161.223 88.1324 160.647 88.1324 159.937V151.361C88.1324 150.651 88.7083 150.075 89.4188 150.075ZM87.7036 151.361C87.7036 150.414 88.4715 149.646 89.4188 149.646H97.9945C98.9417 149.646 99.7096 150.414 99.7096 151.361V159.937C99.7096 160.884 98.9417 161.652 97.9945 161.652H89.4188C88.4715 161.652 87.7036 160.884 87.7036 159.937V151.361ZM91.4555 155.22C91.2779 155.22 91.1339 155.364 91.1339 155.542C91.1339 155.719 91.2779 155.863 91.4555 155.863H95.9578C96.1354 155.863 96.2794 155.719 96.2794 155.542C96.2794 155.364 96.1354 155.22 95.9578 155.22H91.4555Z" fill="#212121"/>
<path d="M110.766 158.289H110.155V154.362C110.155 154.036 110.165 153.727 110.185 153.435C110.132 153.488 110.073 153.543 110.008 153.601C109.943 153.659 109.644 153.904 109.111 154.336L108.78 153.906L110.238 152.78H110.766V158.289ZM114.689 152.7C115.191 152.7 115.589 152.817 115.883 153.051C116.177 153.285 116.324 153.607 116.324 154.019C116.324 154.291 116.24 154.538 116.072 154.762C115.904 154.985 115.635 155.189 115.265 155.372C115.713 155.586 116.03 155.811 116.219 156.047C116.407 156.281 116.501 156.552 116.501 156.861C116.501 157.318 116.342 157.684 116.023 157.958C115.704 158.229 115.267 158.365 114.711 158.365C114.123 158.365 113.671 158.236 113.355 157.98C113.038 157.721 112.88 157.356 112.88 156.884C112.88 156.253 113.264 155.762 114.033 155.41C113.686 155.214 113.438 155.003 113.287 154.777C113.136 154.548 113.061 154.293 113.061 154.012C113.061 153.612 113.208 153.295 113.502 153.058C113.798 152.82 114.194 152.7 114.689 152.7ZM113.498 156.899C113.498 157.2 113.602 157.435 113.811 157.603C114.022 157.772 114.317 157.856 114.696 157.856C115.071 157.856 115.362 157.768 115.571 157.592C115.779 157.416 115.883 157.175 115.883 156.868C115.883 156.625 115.785 156.409 115.589 156.22C115.393 156.029 115.052 155.845 114.564 155.666C114.19 155.827 113.919 156.005 113.75 156.201C113.582 156.395 113.498 156.627 113.498 156.899ZM114.681 153.209C114.367 153.209 114.121 153.285 113.943 153.435C113.764 153.586 113.675 153.787 113.675 154.038C113.675 154.269 113.749 154.468 113.897 154.634C114.046 154.799 114.319 154.965 114.719 155.131C115.078 154.98 115.332 154.818 115.48 154.645C115.631 154.472 115.706 154.269 115.706 154.038C115.706 153.784 115.615 153.583 115.431 153.435C115.25 153.285 115 153.209 114.681 153.209ZM117.478 157.89C117.478 157.721 117.515 157.595 117.591 157.509C117.668 157.421 117.779 157.377 117.922 157.377C118.068 157.377 118.181 157.421 118.261 157.509C118.344 157.595 118.386 157.721 118.386 157.89C118.386 158.053 118.344 158.179 118.261 158.267C118.178 158.355 118.065 158.399 117.922 158.399C117.794 158.399 117.687 158.36 117.602 158.282C117.519 158.201 117.478 158.071 117.478 157.89ZM117.478 154.562C117.478 154.223 117.626 154.053 117.922 154.053C118.231 154.053 118.386 154.223 118.386 154.562C118.386 154.725 118.344 154.851 118.261 154.939C118.178 155.027 118.065 155.071 117.922 155.071C117.794 155.071 117.687 155.032 117.602 154.954C117.519 154.874 117.478 154.743 117.478 154.562ZM122.991 155.527C122.991 156.479 122.84 157.19 122.539 157.66C122.24 158.13 121.781 158.365 121.163 158.365C120.57 158.365 120.119 158.125 119.81 157.645C119.501 157.162 119.347 156.456 119.347 155.527C119.347 154.567 119.496 153.855 119.795 153.39C120.094 152.925 120.55 152.693 121.163 152.693C121.761 152.693 122.215 152.935 122.524 153.42C122.835 153.905 122.991 154.607 122.991 155.527ZM119.98 155.527C119.98 156.328 120.074 156.912 120.263 157.279C120.451 157.644 120.751 157.826 121.163 157.826C121.58 157.826 121.882 157.641 122.068 157.272C122.256 156.9 122.35 156.318 122.35 155.527C122.35 154.735 122.256 154.156 122.068 153.79C121.882 153.42 121.58 153.236 121.163 153.236C120.751 153.236 120.451 153.418 120.263 153.782C120.074 154.144 119.98 154.725 119.98 155.527ZM127.408 155.527C127.408 156.479 127.257 157.19 126.956 157.66C126.657 158.13 126.198 158.365 125.58 158.365C124.987 158.365 124.536 158.125 124.227 157.645C123.918 157.162 123.764 156.456 123.764 155.527C123.764 154.567 123.913 153.855 124.212 153.39C124.511 152.925 124.967 152.693 125.58 152.693C126.178 152.693 126.632 152.935 126.941 153.42C127.252 153.905 127.408 154.607 127.408 155.527ZM124.397 155.527C124.397 156.328 124.491 156.912 124.679 157.279C124.868 157.644 125.168 157.826 125.58 157.826C125.997 157.826 126.299 157.641 126.485 157.272C126.673 156.9 126.767 156.318 126.767 155.527C126.767 154.735 126.673 154.156 126.485 153.79C126.299 153.42 125.997 153.236 125.58 153.236C125.168 153.236 124.868 153.418 124.679 153.782C124.491 154.144 124.397 154.725 124.397 155.527Z" fill="black"/>
<path fill-rule="evenodd" clip-rule="evenodd" d="M146.876 150.075H138.3C137.59 150.075 137.014 150.651 137.014 151.361V159.937C137.014 160.647 137.59 161.223 138.3 161.223H146.876C147.586 161.223 148.162 160.647 148.162 159.937V151.361C148.162 150.651 147.586 150.075 146.876 150.075ZM138.3 149.646C137.353 149.646 136.585 150.414 136.585 151.361V159.937C136.585 160.884 137.353 161.652 138.3 161.652H146.876C147.823 161.652 148.591 160.884 148.591 159.937V151.361C148.591 150.414 147.823 149.646 146.876 149.646H138.3ZM140.016 155.542C140.016 155.364 140.159 155.22 140.337 155.22H142.159V153.398C142.159 153.22 142.303 153.076 142.481 153.076C142.659 153.076 142.803 153.22 142.803 153.398V155.22H144.839C145.017 155.22 145.161 155.364 145.161 155.542C145.161 155.719 145.017 155.863 144.839 155.863H142.803V157.9C142.803 158.078 142.659 158.222 142.481 158.222C142.303 158.222 142.159 158.078 142.159 157.9V155.863H140.337C140.159 155.863 140.016 155.719 140.016 155.542Z" fill="#212121"/>
<rect x="7.73514" y="145.573" width="145.358" height="20.1529" rx="3.21589" stroke="url(#paint3_linear)" stroke-width="0.428786"/>
<rect x="7.30643" y="75.6806" width="145.358" height="20.1529" rx="3.21589" fill="white"/>
<path d="M14.7101 83.3869H16.2666C16.9977 83.3869 17.5265 83.4962 17.8532 83.7147C18.1798 83.9333 18.3431 84.2788 18.3431 84.7511C18.3431 85.0777 18.2514 85.3478 18.068 85.5614C17.8871 85.7724 17.622 85.9093 17.2728 85.9722V86.0098C18.1094 86.153 18.5277 86.5927 18.5277 87.3289C18.5277 87.8213 18.3607 88.2057 18.0265 88.4821C17.6949 88.7584 17.2301 88.8966 16.6321 88.8966H14.7101V83.3869ZM15.3508 85.746H16.406C16.8582 85.746 17.1836 85.6757 17.3821 85.535C17.5806 85.3918 17.6798 85.1519 17.6798 84.8152C17.6798 84.5062 17.5693 84.2838 17.3482 84.1481C17.1271 84.01 16.7753 83.9409 16.293 83.9409H15.3508V85.746ZM15.3508 86.2887V88.3502H16.5002C16.9449 88.3502 17.2791 88.2647 17.5027 88.0939C17.7288 87.9205 17.8419 87.6504 17.8419 87.2836C17.8419 86.9419 17.7263 86.6907 17.4951 86.5299C17.2665 86.3691 16.9173 86.2887 16.4475 86.2887H15.3508ZM21.505 84.6908C21.6884 84.6908 21.8529 84.7059 21.9986 84.736L21.912 85.3164C21.7411 85.2787 21.5904 85.2599 21.4597 85.2599C21.1256 85.2599 20.8392 85.3956 20.6005 85.6669C20.3643 85.9382 20.2462 86.2762 20.2462 86.6807V88.8966H19.6206V84.7662H20.1369L20.2086 85.5312H20.2387C20.392 85.2624 20.5766 85.0551 20.7927 84.9094C21.0088 84.7637 21.2462 84.6908 21.505 84.6908ZM24.5161 88.972C23.9056 88.972 23.4232 88.7861 23.0689 88.4142C22.7172 88.0424 22.5413 87.5261 22.5413 86.8653C22.5413 86.1995 22.7046 85.6707 23.0313 85.2787C23.3604 84.8868 23.8013 84.6908 24.354 84.6908C24.8716 84.6908 25.2811 84.8617 25.5826 85.2034C25.8841 85.5425 26.0348 85.991 26.0348 86.5488V86.9445H23.1895C23.2021 87.4294 23.3239 87.7974 23.5551 88.0487C23.7887 88.2999 24.1166 88.4255 24.5387 88.4255C24.9834 88.4255 25.4231 88.3326 25.8577 88.1467V88.7044C25.6366 88.7999 25.4268 88.8677 25.2284 88.9079C25.0324 88.9506 24.795 88.972 24.5161 88.972ZM24.3465 85.2147C24.0149 85.2147 23.7498 85.3227 23.5513 85.5388C23.3554 85.7548 23.2398 86.0538 23.2046 86.4357H25.364C25.364 86.0412 25.2761 85.7398 25.1002 85.5312C24.9244 85.3202 24.6731 85.2147 24.3465 85.2147ZM29.6452 88.8966L29.5208 88.3087H29.4907C29.2847 88.5675 29.0786 88.7433 28.8726 88.8363C28.6691 88.9268 28.4141 88.972 28.1076 88.972C27.6981 88.972 27.3765 88.8665 27.1428 88.6554C26.9117 88.4444 26.7961 88.1441 26.7961 87.7547C26.7961 86.9206 27.4632 86.4834 28.7972 86.4432L29.4982 86.4206V86.1644C29.4982 85.8403 29.4279 85.6016 29.2872 85.4483C29.149 85.2925 28.9266 85.2147 28.6201 85.2147C28.2759 85.2147 27.8865 85.3202 27.4518 85.5312L27.2596 85.0526C27.4632 84.9421 27.6855 84.8554 27.9267 84.7926C28.1704 84.7298 28.4141 84.6984 28.6578 84.6984C29.1502 84.6984 29.5145 84.8076 29.7507 85.0262C29.9894 85.2448 30.1087 85.5953 30.1087 86.0777V88.8966H29.6452ZM28.232 88.4557C28.6214 88.4557 28.9266 88.3489 29.1477 88.1353C29.3713 87.9218 29.4831 87.6228 29.4831 87.2384V86.8653L28.8575 86.8917C28.3601 86.9093 28.0008 86.9872 27.7797 87.1254C27.5611 87.261 27.4518 87.4733 27.4518 87.7623C27.4518 87.9884 27.5197 88.1605 27.6554 88.2786C27.7935 88.3966 27.9857 88.4557 28.232 88.4557ZM32.0194 86.7824C32.1275 86.6292 32.292 86.4282 32.5131 86.1794L33.8472 84.7662H34.5896L32.9164 86.5261L34.7064 88.8966H33.949L32.4905 86.9445L32.0194 87.3515V88.8966H31.4014V83.0326H32.0194V86.1417C32.0194 86.2799 32.0094 86.4935 31.9893 86.7824H32.0194ZM38.1208 87.7698C38.1208 88.1542 37.9776 88.4507 37.6912 88.6592C37.4048 88.8677 37.0028 88.972 36.4852 88.972C35.9375 88.972 35.5104 88.8853 35.2039 88.7119V88.1316C35.4024 88.2321 35.6147 88.3112 35.8408 88.369C36.0694 88.4268 36.2893 88.4557 36.5003 88.4557C36.8269 88.4557 37.0782 88.4042 37.254 88.3012C37.4299 88.1956 37.5178 88.0361 37.5178 87.8225C37.5178 87.6618 37.4475 87.5248 37.3068 87.4118C37.1686 87.2962 36.8973 87.1605 36.4928 87.0048C36.1084 86.8615 35.8345 86.7372 35.6712 86.6317C35.5104 86.5236 35.3898 86.4018 35.3094 86.2661C35.2315 86.1304 35.1926 85.9684 35.1926 85.78C35.1926 85.4433 35.3295 85.1782 35.6034 84.9848C35.8772 84.7888 36.2528 84.6908 36.7302 84.6908C37.1749 84.6908 37.6095 84.7813 38.0341 84.9622L37.8118 85.4709C37.3972 85.3001 37.0216 85.2147 36.685 85.2147C36.3885 85.2147 36.1649 85.2611 36.0142 85.3541C35.8634 85.4471 35.788 85.5752 35.788 85.7385C35.788 85.849 35.8157 85.9433 35.871 86.0211C35.9287 86.099 36.0204 86.1731 36.1461 86.2435C36.2717 86.3138 36.5129 86.4156 36.8696 86.5488C37.3596 86.7271 37.6899 86.9068 37.8608 87.0877C38.0341 87.2686 38.1208 87.4959 38.1208 87.7698ZM43.069 88.972C42.8002 88.972 42.554 88.923 42.3304 88.825C42.1093 88.7245 41.9234 88.5712 41.7726 88.3652H41.7274C41.7575 88.6064 41.7726 88.8351 41.7726 89.0511V90.7508H41.147V84.7662H41.6558L41.7425 85.3315H41.7726C41.9334 85.1054 42.1206 84.9421 42.3341 84.8416C42.5477 84.7411 42.7927 84.6908 43.069 84.6908C43.6167 84.6908 44.0388 84.878 44.3353 85.2523C44.6343 85.6267 44.7837 86.1518 44.7837 86.8276C44.7837 87.506 44.6317 88.0336 44.3277 88.4105C44.0263 88.7848 43.6067 88.972 43.069 88.972ZM42.9786 85.2222C42.5565 85.2222 42.2512 85.339 42.0628 85.5727C41.8744 85.8063 41.7776 86.1782 41.7726 86.6882V86.8276C41.7726 87.408 41.8693 87.8238 42.0628 88.075C42.2563 88.3238 42.5665 88.4481 42.9937 88.4481C43.3504 88.4481 43.6293 88.3037 43.8303 88.0147C44.0338 87.7258 44.1355 87.3276 44.1355 86.8201C44.1355 86.305 44.0338 85.9106 43.8303 85.6367C43.6293 85.3604 43.3454 85.2222 42.9786 85.2222ZM47.6253 88.972C47.0148 88.972 46.5324 88.7861 46.1781 88.4142C45.8264 88.0424 45.6505 87.5261 45.6505 86.8653C45.6505 86.1995 45.8138 85.6707 46.1405 85.2787C46.4696 84.8868 46.9105 84.6908 47.4632 84.6908C47.9808 84.6908 48.3903 84.8617 48.6918 85.2034C48.9933 85.5425 49.144 85.991 49.144 86.5488V86.9445H46.2987C46.3113 87.4294 46.4332 87.7974 46.6643 88.0487C46.8979 88.2999 47.2258 88.4255 47.6479 88.4255C48.0926 88.4255 48.5323 88.3326 48.9669 88.1467V88.7044C48.7458 88.7999 48.536 88.8677 48.3376 88.9079C48.1416 88.9506 47.9042 88.972 47.6253 88.972ZM47.4557 85.2147C47.1241 85.2147 46.859 85.3227 46.6605 85.5388C46.4646 85.7548 46.349 86.0538 46.3138 86.4357H48.4732C48.4732 86.0412 48.3853 85.7398 48.2094 85.5312C48.0336 85.3202 47.7823 85.2147 47.4557 85.2147ZM52.0986 84.6908C52.2821 84.6908 52.4466 84.7059 52.5923 84.736L52.5057 85.3164C52.3348 85.2787 52.1841 85.2599 52.0534 85.2599C51.7193 85.2599 51.4329 85.3956 51.1942 85.6669C50.958 85.9382 50.8399 86.2762 50.8399 86.6807V88.8966H50.2143V84.7662H50.7306L50.8022 85.5312H50.8324C50.9856 85.2624 51.1703 85.0551 51.3864 84.9094C51.6024 84.7637 51.8399 84.6908 52.0986 84.6908ZM58.1812 88.3426H58.1473C57.8584 88.7622 57.4262 88.972 56.8509 88.972C56.3107 88.972 55.8899 88.7873 55.5884 88.418C55.2894 88.0487 55.1399 87.5236 55.1399 86.8427C55.1399 86.1618 55.2907 85.633 55.5922 85.2561C55.8937 84.8793 56.3132 84.6908 56.8509 84.6908C57.4112 84.6908 57.8408 84.8943 58.1398 85.3013H58.1887L58.1624 85.0036L58.1473 84.7134V83.0326H58.7729V88.8966H58.2641L58.1812 88.3426ZM56.93 88.4481C57.3571 88.4481 57.6662 88.3326 57.8571 88.1014C58.0506 87.8678 58.1473 87.4922 58.1473 86.9746V86.8427C58.1473 86.2573 58.0493 85.8403 57.8533 85.5915C57.6599 85.3403 57.3496 85.2147 56.9225 85.2147C56.5557 85.2147 56.2743 85.3579 56.0783 85.6443C55.8849 85.9282 55.7881 86.3302 55.7881 86.8502C55.7881 87.3779 55.8849 87.7761 56.0783 88.0449C56.2718 88.3137 56.5557 88.4481 56.93 88.4481ZM62.6433 88.8966L62.5189 88.3087H62.4887C62.2827 88.5675 62.0767 88.7433 61.8707 88.8363C61.6672 88.9268 61.4122 88.972 61.1057 88.972C60.6961 88.972 60.3745 88.8665 60.1409 88.6554C59.9098 88.4444 59.7942 88.1441 59.7942 87.7547C59.7942 86.9206 60.4612 86.4834 61.7953 86.4432L62.4963 86.4206V86.1644C62.4963 85.8403 62.4259 85.6016 62.2852 85.4483C62.1471 85.2925 61.9247 85.2147 61.6182 85.2147C61.274 85.2147 60.8846 85.3202 60.4499 85.5312L60.2577 85.0526C60.4612 84.9421 60.6836 84.8554 60.9248 84.7926C61.1685 84.7298 61.4122 84.6984 61.6559 84.6984C62.1483 84.6984 62.5126 84.8076 62.7488 85.0262C62.9875 85.2448 63.1068 85.5953 63.1068 86.0777V88.8966H62.6433ZM61.23 88.4557C61.6195 88.4557 61.9247 88.3489 62.1458 88.1353C62.3694 87.9218 62.4812 87.6228 62.4812 87.2384V86.8653L61.8556 86.8917C61.3582 86.9093 60.9989 86.9872 60.7778 87.1254C60.5592 87.261 60.4499 87.4733 60.4499 87.7623C60.4499 87.9884 60.5178 88.1605 60.6534 88.2786C60.7916 88.3966 60.9838 88.4557 61.23 88.4557ZM63.7437 84.7662H64.4145L65.319 87.1216C65.5175 87.6592 65.6406 88.0474 65.6883 88.2861H65.7185C65.7511 88.158 65.819 87.9394 65.922 87.6303C66.0275 87.3188 66.3692 86.3641 66.947 84.7662H67.6178L65.8428 89.4694C65.667 89.9342 65.4609 90.2634 65.2248 90.4568C64.9911 90.6528 64.7034 90.7508 64.3618 90.7508C64.1708 90.7508 63.9824 90.7294 63.7965 90.6867V90.1855C63.9346 90.2156 64.0892 90.2307 64.26 90.2307C64.6896 90.2307 64.9961 89.9895 65.1795 89.5071L65.4094 88.9192L63.7437 84.7662Z" fill="#274483"/>
<path fill-rule="evenodd" clip-rule="evenodd" d="M88.99 80.1829H97.5658C98.2762 80.1829 98.8521 80.7589 98.8521 81.4693V90.045C98.8521 90.7554 98.2762 91.3314 97.5658 91.3314H88.99C88.2796 91.3314 87.7037 90.7554 87.7037 90.045V81.4693C87.7037 80.7589 88.2796 80.1829 88.99 80.1829ZM87.2749 81.4693C87.2749 80.522 88.0428 79.7542 88.99 79.7542H97.5658C98.513 79.7542 99.2809 80.522 99.2809 81.4693V90.045C99.2809 90.9923 98.513 91.7601 97.5658 91.7601H88.99C88.0428 91.7601 87.2749 90.9923 87.2749 90.045V81.4693ZM91.0267 85.3284C90.8491 85.3284 90.7052 85.4724 90.7052 85.65C90.7052 85.8276 90.8491 85.9716 91.0267 85.9716H95.529C95.7066 85.9716 95.8506 85.8276 95.8506 85.65C95.8506 85.4724 95.7066 85.3284 95.529 85.3284H91.0267Z" fill="#212121"/>
<path d="M113.767 88.3973H113.157V84.4704C113.157 84.1438 113.167 83.8347 113.187 83.5433C113.134 83.5961 113.075 83.6513 113.01 83.7091C112.944 83.7669 112.645 84.0119 112.113 84.444L111.781 84.0144L113.239 82.8875H113.767V88.3973ZM117.588 85.0319C118.169 85.0319 118.625 85.1764 118.956 85.4653C119.291 85.7517 119.458 86.1449 119.458 86.6449C119.458 87.2152 119.276 87.6624 118.911 87.9865C118.549 88.3106 118.049 88.4727 117.411 88.4727C116.791 88.4727 116.317 88.3734 115.991 88.1749V87.5719C116.166 87.685 116.385 87.7742 116.646 87.8395C116.908 87.9023 117.165 87.9337 117.419 87.9337C117.861 87.9337 118.204 87.8295 118.448 87.6209C118.694 87.4124 118.817 87.1109 118.817 86.7165C118.817 85.9477 118.346 85.5633 117.404 85.5633C117.165 85.5633 116.846 85.5997 116.447 85.6726L116.122 85.4653L116.33 82.8875H119.07V83.4641H116.865L116.725 85.1186C117.014 85.0608 117.302 85.0319 117.588 85.0319ZM121.564 86.2831L120.129 84.2669H120.841L121.93 85.8497L123.015 84.2669H123.72L122.284 86.2831L123.795 88.3973H123.087L121.93 86.724L120.762 88.3973H120.053L121.564 86.2831Z" fill="black"/>
<path fill-rule="evenodd" clip-rule="evenodd" d="M146.447 80.1829H137.872C137.161 80.1829 136.585 80.7589 136.585 81.4693V90.045C136.585 90.7554 137.161 91.3314 137.872 91.3314H146.447C147.158 91.3314 147.734 90.7554 147.734 90.045V81.4693C147.734 80.7589 147.158 80.1829 146.447 80.1829ZM137.872 79.7542C136.924 79.7542 136.156 80.522 136.156 81.4693V90.045C136.156 90.9923 136.924 91.7601 137.872 91.7601H146.447C147.395 91.7601 148.162 90.9923 148.162 90.045V81.4693C148.162 80.522 147.395 79.7542 146.447 79.7542H137.872ZM139.587 85.6501C139.587 85.4724 139.731 85.3285 139.908 85.3285H141.731V83.5061C141.731 83.3285 141.875 83.1845 142.052 83.1845C142.23 83.1845 142.374 83.3285 142.374 83.5061V85.3285H144.411C144.588 85.3285 144.732 85.4724 144.732 85.6501C144.732 85.8277 144.588 85.9716 144.411 85.9716H142.374V88.0084C142.374 88.186 142.23 88.3299 142.052 88.3299C141.875 88.3299 141.731 88.186 141.731 88.0084V85.9716H139.908C139.731 85.9716 139.587 85.8277 139.587 85.6501Z" fill="#212121"/>
<rect x="7.30643" y="75.6806" width="145.358" height="20.1529" rx="3.21589" stroke="url(#paint4_linear)" stroke-width="0.428786"/>
<path d="M7.98209 48.4072C7.98209 48.2494 8.0404 48.0916 8.15703 47.9338C8.28052 47.7692 8.41773 47.6868 8.56867 47.6868C8.65785 47.6868 8.75733 47.728 8.8671 47.8103C8.98373 47.8926 9.0935 47.9853 9.19641 48.0882C9.30618 48.1842 9.46054 48.2734 9.6595 48.3557C9.85845 48.4381 10.078 48.4792 10.3181 48.4792C10.6474 48.4792 10.9218 48.4038 11.1414 48.2528C11.3609 48.1019 11.4707 47.8789 11.4707 47.5839C11.4707 47.3781 11.4089 47.1963 11.2855 47.0385C11.1688 46.8739 11.011 46.7401 10.8121 46.6372C10.62 46.5274 10.4073 46.4245 10.174 46.3284C9.94078 46.2255 9.70409 46.1123 9.46397 45.9888C9.23071 45.8653 9.0146 45.7281 8.81565 45.5772C8.62355 45.4194 8.46576 45.2136 8.34227 44.9598C8.22564 44.6991 8.16732 44.404 8.16732 44.0747C8.16732 43.7111 8.23936 43.3921 8.38343 43.1177C8.53436 42.8364 8.73332 42.6203 8.9803 42.4694C9.22728 42.3116 9.49141 42.1984 9.7727 42.1298C10.054 42.0543 10.3524 42.0166 10.668 42.0166C10.8464 42.0166 11.035 42.0303 11.234 42.0577C11.433 42.0783 11.6422 42.116 11.8617 42.1709C12.0881 42.2258 12.2699 42.3116 12.4072 42.4282C12.5512 42.5448 12.6233 42.682 12.6233 42.8398C12.6233 42.9908 12.5752 43.1486 12.4792 43.3132C12.3831 43.471 12.2528 43.5499 12.0881 43.5499C12.0264 43.5499 11.8583 43.4847 11.5839 43.3544C11.3095 43.224 11.0042 43.1589 10.668 43.1589C10.2975 43.1589 10.0094 43.2309 9.80357 43.375C9.60461 43.5122 9.50513 43.7043 9.50513 43.9512C9.50513 44.1502 9.58746 44.3251 9.75212 44.4761C9.91677 44.6202 10.1192 44.7402 10.3593 44.8363C10.6063 44.9254 10.8704 45.0421 11.1517 45.1862C11.4398 45.3234 11.7039 45.4743 11.9441 45.6389C12.191 45.8036 12.3969 46.0437 12.5615 46.3593C12.7262 46.668 12.8085 47.0316 12.8085 47.4501C12.8085 48.1636 12.5821 48.7159 12.1293 49.107C11.6834 49.4912 11.0934 49.6833 10.3593 49.6833C9.70752 49.6833 9.14839 49.5495 8.68187 49.2819C8.21535 49.0143 7.98209 48.7228 7.98209 48.4072ZM13.441 47.5736V46.6989C13.441 46.1363 13.6605 45.6527 14.0996 45.2479C14.5387 44.8431 15.0704 44.6407 15.6947 44.6407C16.2778 44.6407 16.7752 44.826 17.1869 45.1964C17.6054 45.5601 17.8146 46.0197 17.8146 46.5754C17.8146 46.7812 17.7872 46.9527 17.7323 47.09C17.6842 47.2203 17.6054 47.3129 17.4956 47.3678C17.3927 47.4227 17.2966 47.457 17.2074 47.4707C17.1183 47.4844 17.0016 47.4913 16.8575 47.4913H14.7685V47.6457C14.7685 47.9407 14.8783 48.1808 15.0978 48.366C15.3174 48.5444 15.6089 48.6336 15.9725 48.6336C16.2332 48.6336 16.4905 48.5684 16.7443 48.4381C16.9982 48.3077 17.1628 48.2425 17.2383 48.2425C17.3824 48.2425 17.5024 48.3111 17.5985 48.4484C17.6945 48.5787 17.7426 48.7056 17.7426 48.8291C17.7426 49.0212 17.5676 49.2133 17.2177 49.4054C16.8747 49.5906 16.4459 49.6833 15.9314 49.6833C15.1973 49.6833 14.597 49.4912 14.1305 49.107C13.6708 48.7159 13.441 48.2048 13.441 47.5736ZM14.7685 46.7092H16.271C16.3807 46.7092 16.4562 46.692 16.4974 46.6577C16.5454 46.6166 16.5694 46.5411 16.5694 46.4313C16.5694 46.1912 16.4802 45.9957 16.3018 45.8448C16.1303 45.6938 15.9177 45.6184 15.6638 45.6184C15.4237 45.6184 15.2144 45.6938 15.0361 45.8448C14.8577 45.9888 14.7685 46.1809 14.7685 46.4211V46.7092ZM18.6006 47.9235V42.9325C18.6006 42.8158 18.6692 42.7198 18.8064 42.6443C18.9436 42.562 19.0945 42.5208 19.2592 42.5208C19.4376 42.5208 19.5919 42.562 19.7223 42.6443C19.8595 42.7198 19.9281 42.8158 19.9281 42.9325V44.7025H21.1424C21.2453 44.7025 21.3276 44.7505 21.3894 44.8466C21.4511 44.9426 21.482 45.0558 21.482 45.1862C21.482 45.3165 21.4511 45.4297 21.3894 45.5257C21.3276 45.6218 21.2453 45.6698 21.1424 45.6698H19.9281V47.9235C19.9281 48.1225 19.9692 48.2631 20.0516 48.3454C20.1408 48.4278 20.2917 48.4689 20.5044 48.4689H20.9057C21.0841 48.4689 21.2213 48.5238 21.3173 48.6336C21.4203 48.7434 21.4717 48.8737 21.4717 49.0246C21.4717 49.1824 21.4203 49.3162 21.3173 49.426C21.2213 49.5358 21.0841 49.5906 20.9057 49.5906H20.5044C19.2352 49.5906 18.6006 49.0349 18.6006 47.9235ZM24.0637 47.5736V46.7298C24.0637 46.1604 24.2421 45.6698 24.5988 45.2582C24.9625 44.8466 25.3947 44.6407 25.8955 44.6407C26.1974 44.6407 26.4615 44.7162 26.6879 44.8671C26.9211 45.0181 27.0995 45.2033 27.223 45.4228V42.2635C27.223 42.1401 27.2848 42.0406 27.4082 41.9651C27.5386 41.8896 27.6998 41.8519 27.8919 41.8519C28.084 41.8519 28.2418 41.8896 28.3653 41.9651C28.4888 42.0406 28.5505 42.1401 28.5505 42.2635V49.1687C28.5505 49.2785 28.4854 49.378 28.355 49.4671C28.2315 49.5495 28.0772 49.5906 27.8919 49.5906C27.7341 49.5906 27.5935 49.546 27.47 49.4569C27.3534 49.3677 27.295 49.2716 27.295 49.1687V48.8703C27.1853 49.0898 26.9966 49.2819 26.7291 49.4466C26.4683 49.6044 26.1802 49.6833 25.8646 49.6833C25.3912 49.6833 24.9727 49.4706 24.6091 49.0452C24.2455 48.6199 24.0637 48.1293 24.0637 47.5736ZM25.3912 47.5736C25.3912 47.8137 25.4804 48.0333 25.6588 48.2322C25.8372 48.4243 26.0464 48.5204 26.2865 48.5204C26.5267 48.5204 26.7428 48.4278 26.9349 48.2425C27.127 48.0504 27.223 47.8892 27.223 47.7589V46.7298C27.223 46.4554 27.127 46.2324 26.9349 46.0609C26.7496 45.8894 26.537 45.8036 26.2968 45.8036C26.0499 45.8036 25.8372 45.8997 25.6588 46.0917C25.4804 46.277 25.3912 46.4897 25.3912 46.7298V47.5736ZM29.2969 48.3146C29.2969 47.7589 29.5028 47.3678 29.9144 47.1414C30.326 46.915 30.9195 46.8018 31.6947 46.8018H32.1166V46.668C32.1166 46.4142 32.0412 46.1947 31.8902 46.0094C31.7462 45.8173 31.5198 45.7213 31.211 45.7213C30.9023 45.7213 30.6382 45.7762 30.4186 45.8859C30.1991 45.9888 30.0722 46.0403 30.0379 46.0403C29.9007 46.0403 29.7909 45.9717 29.7086 45.8345C29.6262 45.6973 29.5851 45.5463 29.5851 45.3817C29.5851 45.1827 29.76 45.0112 30.1099 44.8671C30.4667 44.7162 30.8406 44.6407 31.2316 44.6407C31.9794 44.6407 32.5351 44.8328 32.8987 45.217C33.2623 45.5944 33.4442 46.0712 33.4442 46.6475V49.1687C33.4442 49.2853 33.3824 49.3848 33.2589 49.4671C33.1354 49.5495 32.9811 49.5906 32.7958 49.5906C32.6243 49.5906 32.4802 49.5495 32.3636 49.4671C32.2538 49.3848 32.199 49.2853 32.199 49.1687V48.8703C31.7256 49.4123 31.2042 49.6833 30.6348 49.6833C30.2437 49.6833 29.9213 49.5666 29.6674 49.3334C29.4204 49.1001 29.2969 48.7605 29.2969 48.3146ZM30.6245 48.1396C30.6245 48.3249 30.6725 48.4655 30.7685 48.5616C30.8714 48.6507 31.0052 48.6953 31.1699 48.6953C31.3894 48.6953 31.6021 48.5924 31.8079 48.3866C32.0137 48.1808 32.1166 47.9544 32.1166 47.7074V47.4913H31.9623C31.5438 47.4913 31.2145 47.5359 30.9743 47.6251C30.7411 47.7074 30.6245 47.8789 30.6245 48.1396ZM34.357 42.9633C34.357 42.785 34.4256 42.634 34.5628 42.5105C34.7069 42.3802 34.8818 42.315 35.0876 42.315C35.2866 42.315 35.4547 42.3802 35.5919 42.5105C35.736 42.634 35.808 42.785 35.808 42.9633C35.808 43.1348 35.736 43.2858 35.5919 43.4161C35.4547 43.5465 35.2866 43.6116 35.0876 43.6116C34.8818 43.6116 34.7069 43.5465 34.5628 43.4161C34.4256 43.2858 34.357 43.1348 34.357 42.9633ZM34.429 49.1687V45.1141C34.429 44.9906 34.4908 44.8911 34.6143 44.8157C34.7377 44.7402 34.8955 44.7025 35.0876 44.7025C35.2797 44.7025 35.4375 44.7402 35.561 44.8157C35.6914 44.8911 35.7565 44.9906 35.7565 45.1141V49.1687C35.7565 49.2716 35.6879 49.3677 35.5507 49.4569C35.4204 49.546 35.266 49.5906 35.0876 49.5906C34.9024 49.5906 34.7446 49.5495 34.6143 49.4671C34.4908 49.378 34.429 49.2785 34.429 49.1687ZM36.8733 49.1687V42.2635C36.8733 42.1401 36.9316 42.0406 37.0482 41.9651C37.1717 41.8896 37.3329 41.8519 37.5319 41.8519C37.7171 41.8519 37.8749 41.8896 38.0053 41.9651C38.1356 42.0406 38.2008 42.1401 38.2008 42.2635V49.1687C38.2008 49.2716 38.1322 49.3677 37.995 49.4569C37.8646 49.546 37.7103 49.5906 37.5319 49.5906C37.3466 49.5906 37.1888 49.5495 37.0585 49.4671C36.935 49.378 36.8733 49.2785 36.8733 49.1687ZM38.8704 51.2989C38.8704 50.9284 38.9836 50.7432 39.21 50.7432C39.5325 50.7432 39.848 50.6266 40.1568 50.3933C40.4724 50.1601 40.6473 49.7724 40.6816 49.2305L38.9116 45.4434C38.8841 45.3748 38.8704 45.3165 38.8704 45.2685C38.8704 45.1038 38.9699 44.9563 39.1688 44.826C39.3747 44.6956 39.5702 44.6304 39.7554 44.6304C39.9612 44.6304 40.0882 44.7059 40.1362 44.8568L41.3711 47.9338L42.3693 44.8568C42.4173 44.7059 42.534 44.6304 42.7192 44.6304C42.8976 44.6304 43.0931 44.6991 43.3058 44.8363C43.5184 44.9666 43.6248 45.1175 43.6248 45.2891C43.6248 45.3439 43.6145 45.3954 43.5939 45.4434L42.0914 49.2819L41.9165 49.7347C41.8342 49.968 41.7724 50.1292 41.7313 50.2184C41.697 50.3076 41.6318 50.4448 41.5357 50.63C41.4466 50.8221 41.3642 50.9593 41.2888 51.0416C41.2202 51.1308 41.1207 51.2372 40.9903 51.3607C40.86 51.491 40.7262 51.5836 40.589 51.6385C40.4586 51.7003 40.2974 51.7517 40.1053 51.7929C39.9132 51.8409 39.704 51.8649 39.4776 51.8649C39.2786 51.8649 39.1277 51.8272 39.0248 51.7517C38.9219 51.6763 38.8704 51.5253 38.8704 51.2989ZM46.2776 49.1687V45.1141C46.2776 44.9906 46.3359 44.8911 46.4525 44.8157C46.576 44.7402 46.7372 44.7025 46.9362 44.7025C47.1008 44.7025 47.2381 44.7402 47.3478 44.8157C47.4645 44.8911 47.5228 44.9906 47.5228 45.1141V45.4228C47.8178 44.9014 48.2706 44.6407 48.8812 44.6407C49.1693 44.6407 49.4266 44.7368 49.653 44.9289C49.8862 45.1141 50.0578 45.3611 50.1675 45.6698C50.339 45.3337 50.562 45.0798 50.8364 44.9083C51.1177 44.7299 51.4127 44.6407 51.7214 44.6407C52.2154 44.6407 52.6442 44.8294 53.0078 45.2067C53.3714 45.5841 53.5532 46.0917 53.5532 46.7298V49.1687C53.5532 49.2716 53.4846 49.3677 53.3474 49.4569C53.217 49.546 53.0627 49.5906 52.8843 49.5906C52.7128 49.5906 52.5584 49.546 52.4212 49.4569C52.2909 49.3677 52.2257 49.2716 52.2257 49.1687V46.7298C52.2257 46.4416 52.1434 46.2152 51.9787 46.0506C51.8141 45.8791 51.6185 45.7933 51.3921 45.7933C51.1726 45.7933 50.9805 45.8791 50.8158 46.0506C50.6581 46.2152 50.5792 46.4382 50.5792 46.7195V49.179C50.5792 49.3162 50.514 49.4191 50.3836 49.4877C50.2533 49.5563 50.0955 49.5906 49.9102 49.5906C49.7387 49.5906 49.5844 49.5563 49.4472 49.4877C49.3168 49.4123 49.2516 49.3094 49.2516 49.179V46.7298C49.2516 46.4554 49.1659 46.2324 48.9944 46.0609C48.8297 45.8894 48.6342 45.8036 48.4078 45.8036C48.1882 45.8036 47.9996 45.8859 47.8418 46.0506C47.684 46.2152 47.6051 46.4416 47.6051 46.7298V49.1687C47.6051 49.2716 47.5365 49.3677 47.3993 49.4569C47.2689 49.546 47.1146 49.5906 46.9362 49.5906C46.751 49.5906 46.5932 49.5495 46.4628 49.4671C46.3393 49.378 46.2776 49.2785 46.2776 49.1687ZM54.3532 47.5736V46.7298C54.3532 46.1672 54.5727 45.6801 55.0118 45.2685C55.4509 44.85 55.9757 44.6407 56.5863 44.6407C57.1831 44.6407 57.7046 44.8466 58.1505 45.2582C58.5964 45.6698 58.8194 46.1604 58.8194 46.7298V47.5736C58.8194 48.1293 58.5964 48.6199 58.1505 49.0452C57.7046 49.4706 57.1831 49.6833 56.5863 49.6833C55.9894 49.6833 55.468 49.4706 55.0221 49.0452C54.5761 48.6199 54.3532 48.1293 54.3532 47.5736ZM55.6807 47.5736C55.6807 47.8206 55.7699 48.0401 55.9482 48.2322C56.1266 48.4243 56.3393 48.5204 56.5863 48.5204C56.8264 48.5204 57.0356 48.4243 57.214 48.2322C57.3993 48.0401 57.4919 47.8206 57.4919 47.5736V46.7298C57.4919 46.4965 57.3993 46.2838 57.214 46.0917C57.0356 45.8997 56.8264 45.8036 56.5863 45.8036C56.3393 45.8036 56.1266 45.8997 55.9482 46.0917C55.7699 46.277 55.6807 46.4897 55.6807 46.7298V47.5736ZM59.6534 47.9235V42.9325C59.6534 42.8158 59.722 42.7198 59.8593 42.6443C59.9965 42.562 60.1474 42.5208 60.3121 42.5208C60.4904 42.5208 60.6448 42.562 60.7751 42.6443C60.9124 42.7198 60.981 42.8158 60.981 42.9325V44.7025H62.1953C62.2982 44.7025 62.3805 44.7505 62.4423 44.8466C62.504 44.9426 62.5349 45.0558 62.5349 45.1862C62.5349 45.3165 62.504 45.4297 62.4423 45.5257C62.3805 45.6218 62.2982 45.6698 62.1953 45.6698H60.981V47.9235C60.981 48.1225 61.0221 48.2631 61.1044 48.3454C61.1936 48.4278 61.3446 48.4689 61.5572 48.4689H61.9586C62.137 48.4689 62.2742 48.5238 62.3702 48.6336C62.4731 48.7434 62.5246 48.8737 62.5246 49.0246C62.5246 49.1824 62.4731 49.3162 62.3702 49.426C62.2742 49.5358 62.137 49.5906 61.9586 49.5906H61.5572C60.288 49.5906 59.6534 49.0349 59.6534 47.9235ZM63.1593 42.9633C63.1593 42.785 63.2279 42.634 63.3651 42.5105C63.5092 42.3802 63.6842 42.315 63.89 42.315C64.0889 42.315 64.257 42.3802 64.3942 42.5105C64.5383 42.634 64.6103 42.785 64.6103 42.9633C64.6103 43.1348 64.5383 43.2858 64.3942 43.4161C64.257 43.5465 64.0889 43.6116 63.89 43.6116C63.6842 43.6116 63.5092 43.5465 63.3651 43.4161C63.2279 43.2858 63.1593 43.1348 63.1593 42.9633ZM63.2314 49.1687V45.1141C63.2314 44.9906 63.2931 44.8911 63.4166 44.8157C63.5401 44.7402 63.6979 44.7025 63.89 44.7025C64.0821 44.7025 64.2399 44.7402 64.3634 44.8157C64.4937 44.8911 64.5589 44.9906 64.5589 45.1141V49.1687C64.5589 49.2716 64.4903 49.3677 64.3531 49.4569C64.2227 49.546 64.0683 49.5906 63.89 49.5906C63.7047 49.5906 63.5469 49.5495 63.4166 49.4671C63.2931 49.378 63.2314 49.2785 63.2314 49.1687ZM65.1302 45.2067C65.1302 45.0627 65.2297 44.9323 65.4286 44.8157C65.6344 44.6991 65.83 44.6407 66.0152 44.6407C66.2142 44.6407 66.3445 44.7162 66.4062 44.8671L67.5485 47.8515L68.6908 44.8877C68.7526 44.7231 68.8795 44.6407 69.0716 44.6407C69.2362 44.6407 69.4249 44.7025 69.6376 44.826C69.8503 44.9426 69.9566 45.073 69.9566 45.217C69.9566 45.2788 69.9429 45.3371 69.9154 45.392L68.1557 49.4671C68.0802 49.6249 67.8778 49.7038 67.5485 49.7038C67.2192 49.7038 67.0203 49.6249 66.9517 49.4671L65.1816 45.392C65.1473 45.3439 65.1302 45.2822 65.1302 45.2067ZM70.2493 48.3146C70.2493 47.7589 70.4551 47.3678 70.8668 47.1414C71.2784 46.915 71.8718 46.8018 72.6471 46.8018H73.069V46.668C73.069 46.4142 72.9935 46.1947 72.8426 46.0094C72.6985 45.8173 72.4721 45.7213 72.1634 45.7213C71.8547 45.7213 71.5906 45.7762 71.371 45.8859C71.1515 45.9888 71.0246 46.0403 70.9903 46.0403C70.853 46.0403 70.7433 45.9717 70.661 45.8345C70.5786 45.6973 70.5375 45.5463 70.5375 45.3817C70.5375 45.1827 70.7124 45.0112 71.0623 44.8671C71.419 44.7162 71.7929 44.6407 72.184 44.6407C72.9318 44.6407 73.4875 44.8328 73.8511 45.217C74.2147 45.5944 74.3965 46.0712 74.3965 46.6475V49.1687C74.3965 49.2853 74.3348 49.3848 74.2113 49.4671C74.0878 49.5495 73.9334 49.5906 73.7482 49.5906C73.5767 49.5906 73.4326 49.5495 73.316 49.4671C73.2062 49.3848 73.1513 49.2853 73.1513 49.1687V48.8703C72.678 49.4123 72.1566 49.6833 71.5871 49.6833C71.1961 49.6833 70.8736 49.5666 70.6198 49.3334C70.3728 49.1001 70.2493 48.7605 70.2493 48.3146ZM71.5768 48.1396C71.5768 48.3249 71.6249 48.4655 71.7209 48.5616C71.8238 48.6507 71.9576 48.6953 72.1223 48.6953C72.3418 48.6953 72.5545 48.5924 72.7603 48.3866C72.9661 48.1808 73.069 47.9544 73.069 47.7074V47.4913H72.9146C72.4962 47.4913 72.1668 47.5359 71.9267 47.6251C71.6935 47.7074 71.5768 47.8789 71.5768 48.1396ZM75.3711 47.9235V42.9325C75.3711 42.8158 75.4397 42.7198 75.5769 42.6443C75.7141 42.562 75.8651 42.5208 76.0297 42.5208C76.2081 42.5208 76.3625 42.562 76.4928 42.6443C76.63 42.7198 76.6986 42.8158 76.6986 42.9325V44.7025H77.913C78.0159 44.7025 78.0982 44.7505 78.1599 44.8466C78.2217 44.9426 78.2526 45.0558 78.2526 45.1862C78.2526 45.3165 78.2217 45.4297 78.1599 45.5257C78.0982 45.6218 78.0159 45.6698 77.913 45.6698H76.6986V47.9235C76.6986 48.1225 76.7398 48.2631 76.8221 48.3454C76.9113 48.4278 77.0622 48.4689 77.2749 48.4689H77.6763C77.8546 48.4689 77.9918 48.5238 78.0879 48.6336C78.1908 48.7434 78.2423 48.8737 78.2423 49.0246C78.2423 49.1824 78.1908 49.3162 78.0879 49.426C77.9918 49.5358 77.8546 49.5906 77.6763 49.5906H77.2749C76.0057 49.5906 75.3711 49.0349 75.3711 47.9235ZM78.877 42.9633C78.877 42.785 78.9456 42.634 79.0828 42.5105C79.2269 42.3802 79.4018 42.315 79.6076 42.315C79.8066 42.315 79.9747 42.3802 80.1119 42.5105C80.256 42.634 80.328 42.785 80.328 42.9633C80.328 43.1348 80.256 43.2858 80.1119 43.4161C79.9747 43.5465 79.8066 43.6116 79.6076 43.6116C79.4018 43.6116 79.2269 43.5465 79.0828 43.4161C78.9456 43.2858 78.877 43.1348 78.877 42.9633ZM78.949 49.1687V45.1141C78.949 44.9906 79.0108 44.8911 79.1343 44.8157C79.2578 44.7402 79.4155 44.7025 79.6076 44.7025C79.7997 44.7025 79.9575 44.7402 80.081 44.8157C80.2114 44.8911 80.2765 44.9906 80.2765 45.1141V49.1687C80.2765 49.2716 80.2079 49.3677 80.0707 49.4569C79.9404 49.546 79.786 49.5906 79.6076 49.5906C79.4224 49.5906 79.2646 49.5495 79.1343 49.4671C79.0108 49.378 78.949 49.2785 78.949 49.1687ZM81.1154 47.5736V46.7298C81.1154 46.1672 81.335 45.6801 81.774 45.2685C82.2131 44.85 82.7379 44.6407 83.3485 44.6407C83.9454 44.6407 84.4668 44.8466 84.9127 45.2582C85.3587 45.6698 85.5816 46.1604 85.5816 46.7298V47.5736C85.5816 48.1293 85.3587 48.6199 84.9127 49.0452C84.4668 49.4706 83.9454 49.6833 83.3485 49.6833C82.7517 49.6833 82.2303 49.4706 81.7843 49.0452C81.3384 48.6199 81.1154 48.1293 81.1154 47.5736ZM82.4429 47.5736C82.4429 47.8206 82.5321 48.0401 82.7105 48.2322C82.8889 48.4243 83.1016 48.5204 83.3485 48.5204C83.5887 48.5204 83.7979 48.4243 83.9763 48.2322C84.1615 48.0401 84.2541 47.8206 84.2541 47.5736V46.7298C84.2541 46.4965 84.1615 46.2838 83.9763 46.0917C83.7979 45.8997 83.5887 45.8036 83.3485 45.8036C83.1016 45.8036 82.8889 45.8997 82.7105 46.0917C82.5321 46.277 82.4429 46.4897 82.4429 46.7298V47.5736ZM86.426 49.1687V45.1141C86.426 44.9906 86.4843 44.8911 86.6009 44.8157C86.7244 44.7402 86.8856 44.7025 87.0846 44.7025C87.2492 44.7025 87.3865 44.7402 87.4962 44.8157C87.6129 44.8911 87.6712 44.9906 87.6712 45.1141V45.4228C87.7809 45.2033 87.9559 45.0181 88.196 44.8671C88.443 44.7162 88.7277 44.6407 89.0501 44.6407C89.5235 44.6407 89.9352 44.8466 90.2851 45.2582C90.6418 45.6698 90.8202 46.1604 90.8202 46.7298V49.1687C90.8202 49.2991 90.7516 49.402 90.6144 49.4774C90.484 49.5529 90.3296 49.5906 90.1513 49.5906C89.9798 49.5906 89.8254 49.5529 89.6882 49.4774C89.5578 49.402 89.4927 49.2991 89.4927 49.1687V46.7298C89.4927 46.4897 89.4035 46.277 89.2251 46.0917C89.0467 45.8997 88.8375 45.8036 88.5974 45.8036C88.371 45.8036 88.172 45.8894 88.0005 46.0609C87.8358 46.2324 87.7535 46.4554 87.7535 46.7298V49.1687C87.7535 49.2716 87.6849 49.3677 87.5477 49.4569C87.4173 49.546 87.263 49.5906 87.0846 49.5906C86.8994 49.5906 86.7416 49.5495 86.6112 49.4671C86.4877 49.378 86.426 49.2785 86.426 49.1687ZM93.8728 49.1687V45.1141C93.8728 44.9906 93.9311 44.8911 94.0477 44.8157C94.1712 44.7402 94.329 44.7025 94.5211 44.7025C94.6926 44.7025 94.8333 44.7402 94.943 44.8157C95.0597 44.8911 95.118 44.9906 95.118 45.1141V45.536C95.2277 45.2959 95.3993 45.0867 95.6325 44.9083C95.8658 44.7299 96.1162 44.6407 96.3837 44.6407H96.7028C96.8263 44.6407 96.936 44.6991 97.0321 44.8157C97.135 44.9323 97.1864 45.0661 97.1864 45.217C97.1864 45.3748 97.135 45.512 97.0321 45.6287C96.936 45.7453 96.8263 45.8036 96.7028 45.8036H96.3837C96.0682 45.8036 95.7903 45.9442 95.5502 46.2255C95.3169 46.5068 95.2003 46.8739 95.2003 47.3266V49.1687C95.2003 49.2716 95.1317 49.3677 94.9945 49.4569C94.8573 49.546 94.6995 49.5906 94.5211 49.5906C94.3359 49.5906 94.1815 49.5495 94.058 49.4671C93.9345 49.378 93.8728 49.2785 93.8728 49.1687ZM97.4662 47.5736V46.6989C97.4662 46.1363 97.6858 45.6527 98.1248 45.2479C98.5639 44.8431 99.0956 44.6407 99.7199 44.6407C100.303 44.6407 100.8 44.826 101.212 45.1964C101.631 45.5601 101.84 46.0197 101.84 46.5754C101.84 46.7812 101.812 46.9527 101.758 47.09C101.709 47.2203 101.631 47.3129 101.521 47.3678C101.418 47.4227 101.322 47.457 101.233 47.4707C101.143 47.4844 101.027 47.4913 100.883 47.4913H98.7937V47.6457C98.7937 47.9407 98.9035 48.1808 99.123 48.366C99.3426 48.5444 99.6342 48.6336 99.9978 48.6336C100.258 48.6336 100.516 48.5684 100.77 48.4381C101.023 48.3077 101.188 48.2425 101.264 48.2425C101.408 48.2425 101.528 48.3111 101.624 48.4484C101.72 48.5787 101.768 48.7056 101.768 48.8291C101.768 49.0212 101.593 49.2133 101.243 49.4054C100.9 49.5906 100.471 49.6833 99.9566 49.6833C99.2225 49.6833 98.6222 49.4912 98.1557 49.107C97.696 48.7159 97.4662 48.2048 97.4662 47.5736ZM98.7937 46.7092H100.296C100.406 46.7092 100.481 46.692 100.523 46.6577C100.571 46.6166 100.595 46.5411 100.595 46.4313C100.595 46.1912 100.505 45.9957 100.327 45.8448C100.156 45.6938 99.9429 45.6184 99.689 45.6184C99.4489 45.6184 99.2397 45.6938 99.0613 45.8448C98.8829 45.9888 98.7937 46.1809 98.7937 46.4211V46.7092ZM102.636 49.1687V45.1141C102.636 44.9906 102.694 44.8911 102.811 44.8157C102.935 44.7402 103.096 44.7025 103.295 44.7025C103.459 44.7025 103.597 44.7402 103.706 44.8157C103.823 44.8911 103.881 44.9906 103.881 45.1141V45.4228C104.176 44.9014 104.629 44.6407 105.24 44.6407C105.528 44.6407 105.785 44.7368 106.011 44.9289C106.245 45.1141 106.416 45.3611 106.526 45.6698C106.698 45.3337 106.921 45.0798 107.195 44.9083C107.476 44.7299 107.771 44.6407 108.08 44.6407C108.574 44.6407 109.003 44.8294 109.366 45.2067C109.73 45.5841 109.912 46.0917 109.912 46.7298V49.1687C109.912 49.2716 109.843 49.3677 109.706 49.4569C109.576 49.546 109.421 49.5906 109.243 49.5906C109.071 49.5906 108.917 49.546 108.78 49.4569C108.649 49.3677 108.584 49.2716 108.584 49.1687V46.7298C108.584 46.4416 108.502 46.2152 108.337 46.0506C108.173 45.8791 107.977 45.7933 107.751 45.7933C107.531 45.7933 107.339 45.8791 107.174 46.0506C107.017 46.2152 106.938 46.4382 106.938 46.7195V49.179C106.938 49.3162 106.872 49.4191 106.742 49.4877C106.612 49.5563 106.454 49.5906 106.269 49.5906C106.097 49.5906 105.943 49.5563 105.806 49.4877C105.675 49.4123 105.61 49.3094 105.61 49.179V46.7298C105.61 46.4554 105.524 46.2324 105.353 46.0609C105.188 45.8894 104.993 45.8036 104.766 45.8036C104.547 45.8036 104.358 45.8859 104.2 46.0506C104.043 46.2152 103.964 46.4416 103.964 46.7298V49.1687C103.964 49.2716 103.895 49.3677 103.758 49.4569C103.627 49.546 103.473 49.5906 103.295 49.5906C103.109 49.5906 102.952 49.5495 102.821 49.4671C102.698 49.378 102.636 49.2785 102.636 49.1687ZM110.825 42.9633C110.825 42.785 110.893 42.634 111.031 42.5105C111.175 42.3802 111.35 42.315 111.556 42.315C111.754 42.315 111.923 42.3802 112.06 42.5105C112.204 42.634 112.276 42.785 112.276 42.9633C112.276 43.1348 112.204 43.2858 112.06 43.4161C111.923 43.5465 111.754 43.6116 111.556 43.6116C111.35 43.6116 111.175 43.5465 111.031 43.4161C110.893 43.2858 110.825 43.1348 110.825 42.9633ZM110.897 49.1687V45.1141C110.897 44.9906 110.959 44.8911 111.082 44.8157C111.206 44.7402 111.363 44.7025 111.556 44.7025C111.748 44.7025 111.905 44.7402 112.029 44.8157C112.159 44.8911 112.224 44.9906 112.224 45.1141V49.1687C112.224 49.2716 112.156 49.3677 112.019 49.4569C111.888 49.546 111.734 49.5906 111.556 49.5906C111.37 49.5906 111.212 49.5495 111.082 49.4671C110.959 49.378 110.897 49.2785 110.897 49.1687ZM113.249 49.1687V45.1141C113.249 44.9906 113.307 44.8911 113.423 44.8157C113.547 44.7402 113.708 44.7025 113.907 44.7025C114.072 44.7025 114.209 44.7402 114.319 44.8157C114.435 44.8911 114.494 44.9906 114.494 45.1141V45.4228C114.603 45.2033 114.778 45.0181 115.019 44.8671C115.266 44.7162 115.55 44.6407 115.873 44.6407C116.346 44.6407 116.758 44.8466 117.108 45.2582C117.464 45.6698 117.643 46.1604 117.643 46.7298V49.1687C117.643 49.2991 117.574 49.402 117.437 49.4774C117.307 49.5529 117.152 49.5906 116.974 49.5906C116.802 49.5906 116.648 49.5529 116.511 49.4774C116.38 49.402 116.315 49.2991 116.315 49.1687V46.7298C116.315 46.4897 116.226 46.277 116.048 46.0917C115.869 45.8997 115.66 45.8036 115.42 45.8036C115.194 45.8036 114.995 45.8894 114.823 46.0609C114.658 46.2324 114.576 46.4554 114.576 46.7298V49.1687C114.576 49.2716 114.507 49.3677 114.37 49.4569C114.24 49.546 114.086 49.5906 113.907 49.5906C113.722 49.5906 113.564 49.5495 113.434 49.4671C113.31 49.378 113.249 49.2785 113.249 49.1687ZM118.46 47.5736V46.7298C118.46 46.1604 118.639 45.6698 118.995 45.2582C119.359 44.8466 119.791 44.6407 120.292 44.6407C120.594 44.6407 120.858 44.7162 121.084 44.8671C121.318 45.0181 121.496 45.2033 121.62 45.4228V42.2635C121.62 42.1401 121.681 42.0406 121.805 41.9651C121.935 41.8896 122.096 41.8519 122.288 41.8519C122.481 41.8519 122.638 41.8896 122.762 41.9651C122.885 42.0406 122.947 42.1401 122.947 42.2635V49.1687C122.947 49.2785 122.882 49.378 122.751 49.4671C122.628 49.5495 122.474 49.5906 122.288 49.5906C122.131 49.5906 121.99 49.546 121.866 49.4569C121.75 49.3677 121.692 49.2716 121.692 49.1687V48.8703C121.582 49.0898 121.393 49.2819 121.126 49.4466C120.865 49.6044 120.577 49.6833 120.261 49.6833C119.788 49.6833 119.369 49.4706 119.006 49.0452C118.642 48.6199 118.46 48.1293 118.46 47.5736ZM119.788 47.5736C119.788 47.8137 119.877 48.0333 120.055 48.2322C120.234 48.4243 120.443 48.5204 120.683 48.5204C120.923 48.5204 121.139 48.4278 121.331 48.2425C121.523 48.0504 121.62 47.8892 121.62 47.7589V46.7298C121.62 46.4554 121.523 46.2324 121.331 46.0609C121.146 45.8894 120.933 45.8036 120.693 45.8036C120.446 45.8036 120.234 45.8997 120.055 46.0917C119.877 46.277 119.788 46.4897 119.788 46.7298V47.5736ZM123.796 47.5736V46.6989C123.796 46.1363 124.016 45.6527 124.455 45.2479C124.894 44.8431 125.426 44.6407 126.05 44.6407C126.633 44.6407 127.131 44.826 127.542 45.1964C127.961 45.5601 128.17 46.0197 128.17 46.5754C128.17 46.7812 128.143 46.9527 128.088 47.09C128.04 47.2203 127.961 47.3129 127.851 47.3678C127.748 47.4227 127.652 47.457 127.563 47.4707C127.474 47.4844 127.357 47.4913 127.213 47.4913H125.124V47.6457C125.124 47.9407 125.234 48.1808 125.453 48.366C125.673 48.5444 125.964 48.6336 126.328 48.6336C126.589 48.6336 126.846 48.5684 127.1 48.4381C127.354 48.3077 127.518 48.2425 127.594 48.2425C127.738 48.2425 127.858 48.3111 127.954 48.4484C128.05 48.5787 128.098 48.7056 128.098 48.8291C128.098 49.0212 127.923 49.2133 127.573 49.4054C127.23 49.5906 126.801 49.6833 126.287 49.6833C125.553 49.6833 124.952 49.4912 124.486 49.107C124.026 48.7159 123.796 48.2048 123.796 47.5736ZM125.124 46.7092H126.626C126.736 46.7092 126.812 46.692 126.853 46.6577C126.901 46.6166 126.925 46.5411 126.925 46.4313C126.925 46.1912 126.836 45.9957 126.657 45.8448C126.486 45.6938 126.273 45.6184 126.019 45.6184C125.779 45.6184 125.57 45.6938 125.391 45.8448C125.213 45.9888 125.124 46.1809 125.124 46.4211V46.7092ZM128.966 49.1687V45.1141C128.966 44.9906 129.025 44.8911 129.141 44.8157C129.265 44.7402 129.422 44.7025 129.615 44.7025C129.786 44.7025 129.927 44.7402 130.036 44.8157C130.153 44.8911 130.211 44.9906 130.211 45.1141V45.536C130.321 45.2959 130.493 45.0867 130.726 44.9083C130.959 44.7299 131.21 44.6407 131.477 44.6407H131.796C131.92 44.6407 132.029 44.6991 132.125 44.8157C132.228 44.9323 132.28 45.0661 132.28 45.217C132.28 45.3748 132.228 45.512 132.125 45.6287C132.029 45.7453 131.92 45.8036 131.796 45.8036H131.477C131.162 45.8036 130.884 45.9442 130.644 46.2255C130.41 46.5068 130.294 46.8739 130.294 47.3266V49.1687C130.294 49.2716 130.225 49.3677 130.088 49.4569C129.951 49.546 129.793 49.5906 129.615 49.5906C129.429 49.5906 129.275 49.5495 129.151 49.4671C129.028 49.378 128.966 49.2785 128.966 49.1687ZM132.568 48.7982C132.568 48.6748 132.612 48.5478 132.701 48.4175C132.79 48.2803 132.893 48.2117 133.01 48.2117C133.085 48.2117 133.178 48.2494 133.288 48.3249C133.405 48.4003 133.555 48.4792 133.741 48.5616C133.926 48.637 134.145 48.6748 134.399 48.6748C134.9 48.6748 135.151 48.5272 135.151 48.2322C135.151 48.0676 135.065 47.9372 134.893 47.8412C134.729 47.7451 134.526 47.6662 134.286 47.6045C134.053 47.5428 133.816 47.4707 133.576 47.3884C133.336 47.2992 133.13 47.1551 132.959 46.9562C132.794 46.7504 132.712 46.4897 132.712 46.1741C132.712 45.7556 132.859 45.3954 133.154 45.0935C133.449 44.7917 133.916 44.6407 134.554 44.6407C134.979 44.6407 135.356 44.7059 135.686 44.8363C136.022 44.9666 136.19 45.1244 136.19 45.3096C136.19 45.4263 136.142 45.5635 136.046 45.7213C135.957 45.8722 135.843 45.9477 135.706 45.9477C135.651 45.9477 135.5 45.8997 135.253 45.8036C135.013 45.7007 134.787 45.6492 134.574 45.6492C134.341 45.6492 134.163 45.6973 134.039 45.7933C133.916 45.8894 133.854 45.9957 133.854 46.1123C133.854 46.229 133.916 46.325 134.039 46.4005C134.163 46.4759 134.314 46.5343 134.492 46.5754C134.677 46.6166 134.876 46.6749 135.089 46.7504C135.301 46.819 135.497 46.9013 135.675 46.9973C135.861 47.0934 136.015 47.2443 136.138 47.4501C136.262 47.6491 136.324 47.8926 136.324 48.1808C136.324 48.6473 136.156 49.0143 135.819 49.2819C135.49 49.5495 135.027 49.6833 134.43 49.6833C133.916 49.6833 133.477 49.5941 133.113 49.4157C132.749 49.2373 132.568 49.0315 132.568 48.7982Z" fill="white"/>
</g>
<defs>
<linearGradient id="paint0_linear" x1="81.0303" y1="7.56449e-06" x2="56.7748" y2="288.58" gradientUnits="userSpaceOnUse">
<stop stop-color="#5464BD" stop-opacity="0.34"/>
<stop offset="0.460316" stop-color="#477DDE"/>
<stop offset="0.905036" stop-color="#477DDE" stop-opacity="0"/>
</linearGradient>
<linearGradient id="paint1_linear" x1="34.5133" y1="230.687" x2="39.4836" y2="263.585" gradientUnits="userSpaceOnUse">
<stop stop-color="#914EFF"/>
<stop offset="1" stop-color="#005CFF"/>
</linearGradient>
<linearGradient id="paint2_linear" x1="9.77698" y1="117.916" x2="13.079" y2="151.238" gradientUnits="userSpaceOnUse">
<stop stop-color="#914EFF"/>
<stop offset="1" stop-color="#005CFF"/>
</linearGradient>
<linearGradient id="paint3_linear" x1="9.77698" y1="145.358" x2="13.079" y2="178.68" gradientUnits="userSpaceOnUse">
<stop stop-color="#914EFF"/>
<stop offset="1" stop-color="#005CFF"/>
</linearGradient>
<linearGradient id="paint4_linear" x1="9.34827" y1="75.4662" x2="12.6502" y2="108.788" gradientUnits="userSpaceOnUse">
<stop stop-color="#914EFF"/>
<stop offset="1" stop-color="#005CFF"/>
</linearGradient>
<clipPath id="clip0">
<rect width="160.795" height="286" fill="white" transform="translate(0.445801)"/>
</clipPath>
</defs>
</svg>
