<svg width="162" height="286" viewBox="0 0 162 286" fill="none" xmlns="http://www.w3.org/2000/svg">
<rect width="160.795" height="286" transform="translate(0.557373)" fill="url(#paint0_linear)"/>
<path d="M62.31 260.59C62.31 261.074 62.1341 261.453 61.7824 261.724C61.4306 261.995 60.9533 262.131 60.3503 262.131C59.6971 262.131 59.1946 262.047 58.8428 261.878V261.26C59.069 261.356 59.3152 261.431 59.5815 261.486C59.8478 261.542 60.1116 261.569 60.3729 261.569C60.8 261.569 61.1216 261.489 61.3377 261.328C61.5537 261.165 61.6618 260.939 61.6618 260.65C61.6618 260.459 61.6228 260.303 61.5449 260.183C61.4696 260.059 61.3414 259.946 61.1605 259.843C60.9822 259.74 60.7096 259.624 60.3427 259.493C59.8302 259.309 59.4634 259.092 59.2423 258.841C59.0237 258.59 58.9144 258.262 58.9144 257.857C58.9144 257.433 59.074 257.095 59.3931 256.844C59.7121 256.592 60.1342 256.467 60.6593 256.467C61.207 256.467 61.7108 256.567 62.1705 256.768L61.9708 257.326C61.516 257.135 61.0739 257.04 60.6442 257.04C60.3051 257.04 60.04 257.112 59.8491 257.258C59.6581 257.404 59.5626 257.606 59.5626 257.865C59.5626 258.056 59.5978 258.213 59.6682 258.336C59.7385 258.457 59.8566 258.568 60.0224 258.671C60.1907 258.772 60.447 258.884 60.7912 259.007C61.3691 259.213 61.766 259.434 61.9821 259.67C62.2007 259.906 62.31 260.213 62.31 260.59ZM63.9606 259.941C64.0687 259.788 64.2332 259.587 64.4543 259.338L65.7884 257.925H66.5308L64.8576 259.685L66.6477 262.056H65.8902L64.4317 260.103L63.9606 260.51V262.056H63.3426V256.192H63.9606V259.301C63.9606 259.439 63.9506 259.652 63.9305 259.941H63.9606ZM68.0232 262.056H67.3976V257.925H68.0232V262.056ZM67.3448 256.806C67.3448 256.663 67.38 256.558 67.4504 256.493C67.5207 256.425 67.6087 256.391 67.7142 256.391C67.8147 256.391 67.9013 256.425 67.9742 256.493C68.0471 256.561 68.0835 256.665 68.0835 256.806C68.0835 256.947 68.0471 257.052 67.9742 257.122C67.9013 257.19 67.8147 257.224 67.7142 257.224C67.6087 257.224 67.5207 257.19 67.4504 257.122C67.38 257.052 67.3448 256.947 67.3448 256.806ZM71.2718 262.131C71.0029 262.131 70.7567 262.082 70.5331 261.984C70.312 261.883 70.1261 261.73 69.9753 261.524H69.9301C69.9603 261.765 69.9753 261.994 69.9753 262.21V263.91H69.3498V257.925H69.8585L69.9452 258.49H69.9753C70.1361 258.264 70.3233 258.101 70.5369 258.001C70.7504 257.9 70.9954 257.85 71.2718 257.85C71.8195 257.85 72.2415 258.037 72.538 258.411C72.837 258.786 72.9865 259.311 72.9865 259.987C72.9865 260.665 72.8345 261.193 72.5305 261.569C72.229 261.944 71.8094 262.131 71.2718 262.131ZM71.1813 258.381C70.7592 258.381 70.454 258.498 70.2655 258.732C70.0771 258.965 69.9804 259.337 69.9753 259.847V259.987C69.9753 260.567 70.0721 260.983 70.2655 261.234C70.459 261.483 70.7693 261.607 71.1964 261.607C71.5531 261.607 71.832 261.463 72.033 261.174C72.2365 260.885 72.3383 260.487 72.3383 259.979C72.3383 259.464 72.2365 259.07 72.033 258.796C71.832 258.519 71.5481 258.381 71.1813 258.381ZM77.9498 258.411H76.8983V262.056H76.2727V258.411H75.5341V258.129L76.2727 257.903V257.673C76.2727 256.658 76.7162 256.15 77.603 256.15C77.8216 256.15 78.0779 256.194 78.3718 256.282L78.2098 256.783C77.9686 256.705 77.7626 256.666 77.5917 256.666C77.3556 256.666 77.181 256.746 77.0679 256.904C76.9548 257.06 76.8983 257.311 76.8983 257.658V257.925H77.9498V258.411ZM82.2686 259.987C82.2686 260.66 82.099 261.186 81.7598 261.566C81.4207 261.942 80.9521 262.131 80.3541 262.131C79.9848 262.131 79.6569 262.044 79.3705 261.871C79.0841 261.698 78.863 261.449 78.7073 261.125C78.5515 260.801 78.4736 260.421 78.4736 259.987C78.4736 259.313 78.6419 258.789 78.9786 258.415C79.3153 258.038 79.7826 257.85 80.3805 257.85C80.9584 257.85 81.4169 258.042 81.7561 258.426C82.0978 258.811 82.2686 259.331 82.2686 259.987ZM79.1218 259.987C79.1218 260.514 79.2273 260.916 79.4384 261.193C79.6494 261.469 79.9597 261.607 80.3692 261.607C80.7787 261.607 81.089 261.47 81.3001 261.196C81.5136 260.92 81.6204 260.517 81.6204 259.987C81.6204 259.461 81.5136 259.063 81.3001 258.792C81.089 258.518 80.7762 258.381 80.3617 258.381C79.9522 258.381 79.6431 258.516 79.4346 258.784C79.2261 259.053 79.1218 259.454 79.1218 259.987ZM85.2534 257.85C85.4368 257.85 85.6013 257.865 85.747 257.895L85.6604 258.475C85.4895 258.438 85.3388 258.419 85.2081 258.419C84.874 258.419 84.5876 258.554 84.3489 258.826C84.1127 259.097 83.9946 259.435 83.9946 259.84V262.056H83.369V257.925H83.8853L83.9569 258.69H83.9871C84.1404 258.421 84.325 258.214 84.5411 258.068C84.7571 257.923 84.9946 257.85 85.2534 257.85ZM91.351 262.056V259.384C91.351 259.047 91.2744 258.796 91.1211 258.63C90.9678 258.464 90.7279 258.381 90.4013 258.381C89.9692 258.381 89.6526 258.498 89.4516 258.732C89.2506 258.965 89.1501 259.351 89.1501 259.889V262.056H88.5245V257.925H89.0333L89.135 258.49H89.1652C89.2933 258.287 89.473 258.13 89.7041 258.019C89.9352 257.906 90.1928 257.85 90.4767 257.85C90.9741 257.85 91.3485 257.97 91.5997 258.212C91.851 258.45 91.9766 258.833 91.9766 259.361V262.056H91.351ZM96.8306 259.987C96.8306 260.66 96.661 261.186 96.3218 261.566C95.9826 261.942 95.5141 262.131 94.9161 262.131C94.5468 262.131 94.2189 262.044 93.9325 261.871C93.6461 261.698 93.425 261.449 93.2692 261.125C93.1134 260.801 93.0356 260.421 93.0356 259.987C93.0356 259.313 93.2039 258.789 93.5406 258.415C93.8772 258.038 94.3445 257.85 94.9425 257.85C95.5203 257.85 95.9789 258.042 96.318 258.426C96.6597 258.811 96.8306 259.331 96.8306 259.987ZM93.6838 259.987C93.6838 260.514 93.7893 260.916 94.0003 261.193C94.2114 261.469 94.5217 261.607 94.9312 261.607C95.3407 261.607 95.651 261.47 95.862 261.196C96.0756 260.92 96.1824 260.517 96.1824 259.987C96.1824 259.461 96.0756 259.063 95.862 258.792C95.651 258.518 95.3382 258.381 94.9236 258.381C94.5141 258.381 94.2051 258.516 93.9966 258.784C93.788 259.053 93.6838 259.454 93.6838 259.987ZM101.304 262.056L100.546 259.632C100.499 259.484 100.409 259.147 100.279 258.622H100.249C100.148 259.062 100.06 259.401 99.9849 259.64L99.2048 262.056H98.4812L97.3544 257.925H98.0101C98.2765 258.963 98.4787 259.753 98.6169 260.296C98.7576 260.838 98.838 261.204 98.8581 261.392H98.8882C98.9159 261.249 98.9598 261.064 99.0201 260.838C99.0829 260.61 99.137 260.429 99.1822 260.296L99.9397 257.925H100.618L101.357 260.296C101.497 260.728 101.593 261.091 101.643 261.385H101.673C101.683 261.294 101.71 261.155 101.752 260.966C101.798 260.778 102.06 259.764 102.54 257.925H103.188L102.046 262.056H101.304Z" fill="white"/>
<rect x="18.1375" y="98.192" width="126.063" height="19.7241" rx="3.0015" fill="white" fill-opacity="0.8"/>
<path d="M28.4359 109.727C28.4359 110.212 28.2601 110.59 27.9083 110.862C27.5566 111.133 27.0792 111.269 26.4763 111.269C25.823 111.269 25.3205 111.185 24.9688 111.016V110.398C25.1949 110.494 25.4411 110.569 25.7075 110.624C25.9738 110.68 26.2376 110.707 26.4989 110.707C26.926 110.707 27.2476 110.627 27.4636 110.466C27.6797 110.303 27.7877 110.077 27.7877 109.788C27.7877 109.597 27.7488 109.441 27.6709 109.32C27.5955 109.197 27.4674 109.084 27.2865 108.981C27.1081 108.878 26.8355 108.761 26.4687 108.631C25.9562 108.447 25.5894 108.23 25.3683 107.979C25.1497 107.728 25.0404 107.4 25.0404 106.995C25.0404 106.571 25.2 106.233 25.519 105.981C25.8381 105.73 26.2602 105.605 26.7853 105.605C27.333 105.605 27.8367 105.705 28.2965 105.906L28.0968 106.464C27.642 106.273 27.1998 106.177 26.7702 106.177C26.431 106.177 26.166 106.25 25.975 106.396C25.7841 106.542 25.6886 106.744 25.6886 107.003C25.6886 107.194 25.7238 107.351 25.7941 107.474C25.8645 107.594 25.9826 107.706 26.1484 107.809C26.3167 107.91 26.573 108.021 26.9172 108.145C27.495 108.351 27.892 108.572 28.1081 108.808C28.3267 109.044 28.4359 109.351 28.4359 109.727ZM33.0337 109.124C33.0337 109.798 32.8641 110.324 32.5249 110.703C32.1857 111.08 31.7172 111.269 31.1192 111.269C30.7499 111.269 30.422 111.182 30.1356 111.009C29.8492 110.835 29.6281 110.587 29.4723 110.263C29.3165 109.938 29.2387 109.559 29.2387 109.124C29.2387 108.451 29.407 107.927 29.7437 107.553C30.0803 107.176 30.5476 106.988 31.1456 106.988C31.7234 106.988 32.182 107.18 32.5211 107.564C32.8628 107.949 33.0337 108.469 33.0337 109.124ZM29.8869 109.124C29.8869 109.652 29.9924 110.054 30.2034 110.33C30.4145 110.607 30.7248 110.745 31.1343 110.745C31.5438 110.745 31.8541 110.608 32.0651 110.334C32.2787 110.058 32.3855 109.655 32.3855 109.124C32.3855 108.599 32.2787 108.201 32.0651 107.93C31.8541 107.656 31.5413 107.519 31.1267 107.519C30.7172 107.519 30.4082 107.653 30.1997 107.922C29.9911 108.191 29.8869 108.592 29.8869 109.124ZM35.7848 111.269C35.1868 111.269 34.7233 111.085 34.3941 110.719C34.0675 110.349 33.9042 109.828 33.9042 109.155C33.9042 108.464 34.07 107.93 34.4017 107.553C34.7358 107.176 35.2107 106.988 35.8262 106.988C36.0247 106.988 36.2232 107.009 36.4217 107.052C36.6201 107.094 36.7759 107.145 36.889 107.202L36.6968 107.734C36.5586 107.679 36.4078 107.633 36.2445 107.598C36.0812 107.56 35.9368 107.542 35.8111 107.542C34.972 107.542 34.5524 108.077 34.5524 109.147C34.5524 109.655 34.6542 110.044 34.8577 110.315C35.0637 110.587 35.3677 110.722 35.7697 110.722C36.1139 110.722 36.4669 110.648 36.8287 110.5V111.054C36.5523 111.197 36.2043 111.269 35.7848 111.269ZM38.4379 111.193H37.8123V107.063H38.4379V111.193ZM37.7595 105.944C37.7595 105.801 37.7947 105.696 37.865 105.631C37.9354 105.563 38.0233 105.529 38.1288 105.529C38.2293 105.529 38.316 105.563 38.3889 105.631C38.4617 105.699 38.4982 105.803 38.4982 105.944C38.4982 106.084 38.4617 106.19 38.3889 106.26C38.316 106.328 38.2293 106.362 38.1288 106.362C38.0233 106.362 37.9354 106.328 37.865 106.26C37.7947 106.19 37.7595 106.084 37.7595 105.944ZM42.3045 111.193L42.1801 110.606H42.15C41.9439 110.864 41.7379 111.04 41.5319 111.133C41.3284 111.224 41.0734 111.269 40.7669 111.269C40.3574 111.269 40.0358 111.163 39.8021 110.952C39.571 110.741 39.4554 110.441 39.4554 110.052C39.4554 109.217 40.1224 108.78 41.4565 108.74L42.1575 108.717V108.461C42.1575 108.137 42.0872 107.898 41.9465 107.745C41.8083 107.589 41.5859 107.511 41.2794 107.511C40.9352 107.511 40.5458 107.617 40.1111 107.828L39.9189 107.349C40.1224 107.239 40.3448 107.152 40.586 107.089C40.8297 107.027 41.0734 106.995 41.3171 106.995C41.8095 106.995 42.1738 107.104 42.41 107.323C42.6487 107.542 42.768 107.892 42.768 108.374V111.193H42.3045ZM40.8912 110.752C41.2807 110.752 41.5859 110.646 41.807 110.432C42.0306 110.219 42.1424 109.92 42.1424 109.535V109.162L41.5168 109.189C41.0194 109.206 40.6601 109.284 40.439 109.422C40.2204 109.558 40.1111 109.77 40.1111 110.059C40.1111 110.285 40.179 110.457 40.3146 110.575C40.4528 110.693 40.645 110.752 40.8912 110.752ZM44.6863 111.193H44.0607V105.329H44.6863V111.193ZM46.6384 111.193H46.0128V107.063H46.6384V111.193ZM45.96 105.944C45.96 105.801 45.9952 105.696 46.0656 105.631C46.1359 105.563 46.2239 105.529 46.3294 105.529C46.4299 105.529 46.5165 105.563 46.5894 105.631C46.6623 105.699 46.6987 105.803 46.6987 105.944C46.6987 106.084 46.6623 106.19 46.5894 106.26C46.5165 106.328 46.4299 106.362 46.3294 106.362C46.2239 106.362 46.1359 106.328 46.0656 106.26C45.9952 106.19 45.96 106.084 45.96 105.944ZM50.6068 111.193H47.6107V110.768L49.8643 107.549H47.7501V107.063H50.5502V107.549L48.3267 110.707H50.6068V111.193ZM53.3202 111.269C52.7097 111.269 52.2273 111.083 51.873 110.711C51.5213 110.339 51.3454 109.823 51.3454 109.162C51.3454 108.496 51.5087 107.967 51.8353 107.576C52.1645 107.184 52.6054 106.988 53.1581 106.988C53.6757 106.988 54.0852 107.158 54.3867 107.5C54.6882 107.839 54.8389 108.288 54.8389 108.846V109.241H51.9936C52.0062 109.726 52.128 110.094 52.3592 110.345C52.5928 110.597 52.9207 110.722 53.3428 110.722C53.7875 110.722 54.2272 110.629 54.6618 110.443V111.001C54.4407 111.097 54.2309 111.165 54.0324 111.205C53.8365 111.247 53.599 111.269 53.3202 111.269ZM53.1506 107.511C52.8189 107.511 52.5539 107.62 52.3554 107.836C52.1594 108.052 52.0439 108.351 52.0087 108.733H54.1681C54.1681 108.338 54.0802 108.037 53.9043 107.828C53.7284 107.617 53.4772 107.511 53.1506 107.511Z" fill="#274483"/>
<path d="M135.539 106.51H136.568V105.481H135.539V106.51ZM136.054 112.17C133.784 112.17 131.937 110.323 131.937 108.054C131.937 105.785 133.784 103.938 136.054 103.938C138.323 103.938 140.17 105.785 140.17 108.054C140.17 110.323 138.323 112.17 136.054 112.17ZM136.054 102.909C135.378 102.909 134.709 103.042 134.085 103.3C133.46 103.559 132.893 103.938 132.415 104.416C131.45 105.381 130.908 106.689 130.908 108.054C130.908 109.419 131.45 110.728 132.415 111.692C132.893 112.17 133.46 112.549 134.085 112.808C134.709 113.066 135.378 113.2 136.054 113.2C137.418 113.2 138.727 112.657 139.692 111.692C140.657 110.728 141.199 109.419 141.199 108.054C141.199 107.378 141.066 106.709 140.807 106.085C140.549 105.461 140.17 104.894 139.692 104.416C139.214 103.938 138.647 103.559 138.023 103.3C137.398 103.042 136.729 102.909 136.054 102.909V102.909ZM135.539 110.627H136.568V107.54H135.539V110.627Z" fill="#274483"/>
<rect x="18.1375" y="98.192" width="126.063" height="19.7241" rx="3.0015" stroke="url(#paint1_linear)" stroke-width="0.857571"/>
<rect x="18.1375" y="74.1799" width="126.063" height="19.7241" rx="3.0015" fill="white" fill-opacity="0.8"/>
<path d="M28.3983 87.1814H25.3268V81.6717H28.3983V82.2407H25.9675V84.0158H28.2513V84.581H25.9675V86.6086H28.3983V87.1814ZM30.5238 85.0672L29.0879 83.051H29.8002L30.8893 84.6338L31.9747 83.051H32.6794L31.2436 85.0672L32.7548 87.1814H32.0463L30.8893 85.5081L29.721 87.1814H29.0125L30.5238 85.0672ZM35.3212 87.2568C34.7107 87.2568 34.2283 87.0709 33.8741 86.699C33.5223 86.3272 33.3465 85.8109 33.3465 85.1501C33.3465 84.4843 33.5098 83.9555 33.8364 83.5635C34.1655 83.1716 34.6064 82.9756 35.1592 82.9756C35.6767 82.9756 36.0863 83.1465 36.3877 83.4881C36.6892 83.8273 36.84 84.2758 36.84 84.8335V85.2292H33.9947C34.0072 85.7141 34.1291 86.0822 34.3602 86.3335C34.5939 86.5847 34.9217 86.7103 35.3438 86.7103C35.7885 86.7103 36.2282 86.6174 36.6628 86.4314V86.9892C36.4418 87.0847 36.232 87.1525 36.0335 87.1927C35.8375 87.2354 35.6001 87.2568 35.3212 87.2568ZM35.1516 83.4995C34.82 83.4995 34.5549 83.6075 34.3565 83.8236C34.1605 84.0396 34.0449 84.3386 34.0097 84.7205H36.1692C36.1692 84.326 36.0812 84.0245 35.9054 83.816C35.7295 83.605 35.4782 83.4995 35.1516 83.4995ZM39.7946 82.9756C39.978 82.9756 40.1425 82.9907 40.2883 83.0208L40.2016 83.6012C40.0307 83.5635 39.88 83.5447 39.7494 83.5447C39.4152 83.5447 39.1288 83.6803 38.8901 83.9517C38.6539 84.223 38.5359 84.5609 38.5359 84.9654V87.1814H37.9103V83.051H38.4266L38.4982 83.816H38.5283C38.6816 83.5472 38.8662 83.3399 39.0823 83.1942C39.2984 83.0485 39.5358 82.9756 39.7946 82.9756ZM42.7115 87.2568C42.1135 87.2568 41.65 87.0734 41.3209 86.7065C40.9943 86.3372 40.8309 85.8159 40.8309 85.1426C40.8309 84.4517 40.9968 83.9178 41.3284 83.5409C41.6626 83.164 42.1374 82.9756 42.7529 82.9756C42.9514 82.9756 43.1499 82.997 43.3484 83.0397C43.5469 83.0824 43.7026 83.1326 43.8157 83.1904L43.6235 83.7218C43.4853 83.6665 43.3346 83.6213 43.1713 83.5861C43.008 83.5484 42.8635 83.5296 42.7379 83.5296C41.8987 83.5296 41.4792 84.0647 41.4792 85.135C41.4792 85.6425 41.5809 86.032 41.7844 86.3033C41.9904 86.5746 42.2944 86.7103 42.6964 86.7103C43.0406 86.7103 43.3936 86.6362 43.7554 86.488V87.042C43.479 87.1852 43.1311 87.2568 42.7115 87.2568ZM45.3646 87.1814H44.739V83.051H45.3646V87.1814ZM44.6863 81.9317C44.6863 81.7885 44.7214 81.6842 44.7918 81.6189C44.8621 81.5511 44.9501 81.5172 45.0556 81.5172C45.1561 81.5172 45.2428 81.5511 45.3156 81.6189C45.3885 81.6867 45.4249 81.791 45.4249 81.9317C45.4249 82.0724 45.3885 82.1779 45.3156 82.2483C45.2428 82.3161 45.1561 82.35 45.0556 82.35C44.9501 82.35 44.8621 82.3161 44.7918 82.2483C44.7214 82.1779 44.6863 82.0724 44.6863 81.9317ZM49.3556 86.0546C49.3556 86.439 49.2124 86.7354 48.926 86.944C48.6395 87.1525 48.2376 87.2568 47.72 87.2568C47.1723 87.2568 46.7452 87.1701 46.4387 86.9967V86.4164C46.6371 86.5169 46.8494 86.596 47.0756 86.6538C47.3042 86.7116 47.524 86.7405 47.7351 86.7405C48.0617 86.7405 48.3129 86.689 48.4888 86.586C48.6647 86.4804 48.7526 86.3209 48.7526 86.1073C48.7526 85.9465 48.6822 85.8096 48.5416 85.6966C48.4034 85.581 48.132 85.4453 47.7275 85.2895C47.3431 85.1463 47.0693 85.022 46.906 84.9165C46.7452 84.8084 46.6246 84.6866 46.5442 84.5509C46.4663 84.4152 46.4274 84.2532 46.4274 84.0647C46.4274 83.7281 46.5643 83.463 46.8381 83.2696C47.112 83.0736 47.4876 82.9756 47.965 82.9756C48.4097 82.9756 48.8443 83.0661 49.2689 83.247L49.0465 83.7557C48.632 83.5849 48.2564 83.4995 47.9197 83.4995C47.6233 83.4995 47.3997 83.5459 47.2489 83.6389C47.0982 83.7318 47.0228 83.86 47.0228 84.0233C47.0228 84.1338 47.0504 84.2281 47.1057 84.3059C47.1635 84.3838 47.2552 84.4579 47.3808 84.5283C47.5064 84.5986 47.7476 84.7004 48.1044 84.8335C48.5943 85.0119 48.9247 85.1916 49.0955 85.3725C49.2689 85.5534 49.3556 85.7807 49.3556 86.0546ZM52.1217 87.2568C51.5112 87.2568 51.0288 87.0709 50.6746 86.699C50.3229 86.3272 50.147 85.8109 50.147 85.1501C50.147 84.4843 50.3103 83.9555 50.6369 83.5635C50.966 83.1716 51.407 82.9756 51.9597 82.9756C52.4773 82.9756 52.8868 83.1465 53.1883 83.4881C53.4898 83.8273 53.6405 84.2758 53.6405 84.8335V85.2292H50.7952C50.8078 85.7141 50.9296 86.0822 51.1607 86.3335C51.3944 86.5847 51.7223 86.7103 52.1444 86.7103C52.5891 86.7103 53.0287 86.6174 53.4634 86.4314V86.9892C53.2423 87.0847 53.0325 87.1525 52.834 87.1927C52.638 87.2354 52.4006 87.2568 52.1217 87.2568ZM51.9522 83.4995C51.6205 83.4995 51.3555 83.6075 51.157 83.8236C50.961 84.0396 50.8454 84.3386 50.8103 84.7205H52.9697C52.9697 84.326 52.8818 84.0245 52.7059 83.816C52.53 83.605 52.2788 83.4995 51.9522 83.4995Z" fill="#274483"/>
<path d="M135.539 82.4984H136.568V81.4693H135.539V82.4984ZM136.054 88.1584C133.784 88.1584 131.937 86.3112 131.937 84.042C131.937 81.7729 133.784 79.9257 136.054 79.9257C138.323 79.9257 140.17 81.7729 140.17 84.042C140.17 86.3112 138.323 88.1584 136.054 88.1584ZM136.054 78.8966C135.378 78.8966 134.709 79.0297 134.085 79.2883C133.46 79.5469 132.893 79.9259 132.415 80.4037C131.45 81.3686 130.908 82.6774 130.908 84.042C130.908 85.4067 131.45 86.7154 132.415 87.6804C132.893 88.1582 133.46 88.5372 134.085 88.7958C134.709 89.0544 135.378 89.1875 136.054 89.1875C137.418 89.1875 138.727 88.6454 139.692 87.6804C140.657 86.7154 141.199 85.4067 141.199 84.042C141.199 83.3663 141.066 82.6972 140.807 82.073C140.549 81.4487 140.17 80.8815 139.692 80.4037C139.214 79.9259 138.647 79.5469 138.023 79.2883C137.398 79.0297 136.729 78.8966 136.054 78.8966V78.8966ZM135.539 86.6147H136.568V83.5275H135.539V86.6147Z" fill="#274483"/>
<rect x="18.1375" y="74.1799" width="126.063" height="19.7241" rx="3.0015" stroke="url(#paint2_linear)" stroke-width="0.857571"/>
<rect x="18.1375" y="122.204" width="126.063" height="19.7241" rx="3.0015" fill="white" fill-opacity="0.8"/>
<path d="M28.4359 133.739C28.4359 134.224 28.2601 134.602 27.9083 134.874C27.5566 135.145 27.0792 135.281 26.4763 135.281C25.823 135.281 25.3205 135.197 24.9688 135.028V134.41C25.1949 134.506 25.4411 134.581 25.7075 134.636C25.9738 134.692 26.2376 134.719 26.4989 134.719C26.926 134.719 27.2476 134.639 27.4636 134.478C27.6797 134.315 27.7877 134.089 27.7877 133.8C27.7877 133.609 27.7488 133.453 27.6709 133.332C27.5955 133.209 27.4674 133.096 27.2865 132.993C27.1081 132.89 26.8355 132.773 26.4687 132.643C25.9562 132.459 25.5894 132.242 25.3683 131.991C25.1497 131.739 25.0404 131.412 25.0404 131.007C25.0404 130.582 25.2 130.245 25.519 129.993C25.8381 129.742 26.2602 129.616 26.7853 129.616C27.333 129.616 27.8367 129.717 28.2965 129.918L28.0968 130.476C27.642 130.285 27.1998 130.189 26.7702 130.189C26.431 130.189 26.166 130.262 25.975 130.408C25.7841 130.554 25.6886 130.756 25.6886 131.015C25.6886 131.206 25.7238 131.363 25.7941 131.486C25.8645 131.606 25.9826 131.718 26.1484 131.821C26.3167 131.922 26.573 132.033 26.9172 132.157C27.495 132.363 27.892 132.584 28.1081 132.82C28.3267 133.056 28.4359 133.362 28.4359 133.739ZM30.8026 134.764C30.9132 134.764 31.02 134.757 31.123 134.742C31.226 134.724 31.3076 134.707 31.3679 134.689V135.168C31.3001 135.2 31.1996 135.227 31.0664 135.247C30.9358 135.269 30.8177 135.281 30.7122 135.281C29.9132 135.281 29.5138 134.86 29.5138 134.018V131.561H28.9221V131.26L29.5138 131L29.7776 130.118H30.1394V131.075H31.3378V131.561H30.1394V133.992C30.1394 134.241 30.1984 134.431 30.3165 134.565C30.4346 134.698 30.5966 134.764 30.8026 134.764ZM34.7371 135.205L34.6127 134.617H34.5826C34.3766 134.876 34.1705 135.052 33.9645 135.145C33.761 135.235 33.506 135.281 33.1995 135.281C32.79 135.281 32.4684 135.175 32.2347 134.964C32.0036 134.753 31.888 134.453 31.888 134.063C31.888 133.229 32.5551 132.792 33.8891 132.752L34.5901 132.729V132.473C34.5901 132.149 34.5198 131.91 34.3791 131.757C34.2409 131.601 34.0185 131.523 33.712 131.523C33.3678 131.523 32.9784 131.629 32.5437 131.84L32.3515 131.361C32.5551 131.251 32.7774 131.164 33.0186 131.101C33.2623 131.038 33.506 131.007 33.7497 131.007C34.2421 131.007 34.6064 131.116 34.8426 131.335C35.0813 131.554 35.2006 131.904 35.2006 132.386V135.205H34.7371ZM33.3238 134.764C33.7133 134.764 34.0185 134.658 34.2396 134.444C34.4632 134.231 34.575 133.932 34.575 133.547V133.174L33.9494 133.2C33.452 133.218 33.0927 133.296 32.8716 133.434C32.653 133.57 32.5437 133.782 32.5437 134.071C32.5437 134.297 32.6116 134.469 32.7473 134.587C32.8854 134.705 33.0776 134.764 33.3238 134.764ZM35.8375 131.075H36.5083L37.4128 133.43C37.6113 133.968 37.7344 134.356 37.7821 134.595H37.8123C37.8449 134.467 37.9128 134.248 38.0158 133.939C38.1213 133.628 38.463 132.673 39.0409 131.075H39.7117L37.9366 135.778C37.7608 136.243 37.5548 136.572 37.3186 136.766C37.0849 136.962 36.7973 137.059 36.4556 137.059C36.2646 137.059 36.0762 137.038 35.8903 136.995V136.494C36.0285 136.524 36.183 136.539 36.3538 136.539C36.7834 136.539 37.09 136.298 37.2734 135.816L37.5033 135.228L35.8375 131.075ZM45.2139 135.205V132.533C45.2139 132.197 45.1372 131.945 44.984 131.78C44.8307 131.614 44.5908 131.531 44.2642 131.531C43.8295 131.531 43.5117 131.649 43.3107 131.885C43.1122 132.121 43.013 132.508 43.013 133.046V135.205H42.3874V129.341H43.013V131.116C43.013 131.33 43.0029 131.507 42.9828 131.648H43.0205C43.1436 131.449 43.3182 131.293 43.5444 131.18C43.773 131.065 44.033 131.007 44.3245 131.007C44.8295 131.007 45.2076 131.128 45.4588 131.369C45.7126 131.608 45.8395 131.988 45.8395 132.511V135.205H45.2139ZM46.4726 131.075H47.1434L48.0479 133.43C48.2463 133.968 48.3695 134.356 48.4172 134.595H48.4473C48.48 134.467 48.5478 134.248 48.6508 133.939C48.7564 133.628 49.0981 132.673 49.6759 131.075H50.3467L48.5717 135.778C48.3958 136.243 48.1898 136.572 47.9536 136.766C47.72 136.962 47.4323 137.059 47.0906 137.059C46.8997 137.059 46.7113 137.038 46.5253 136.995V136.494C46.6635 136.524 46.818 136.539 46.9889 136.539C47.4185 136.539 47.725 136.298 47.9084 135.816L48.1383 135.228L46.4726 131.075ZM53.8289 134.651H53.795C53.5061 135.071 53.074 135.281 52.4986 135.281C51.9584 135.281 51.5376 135.096 51.2361 134.727C50.9371 134.357 50.7877 133.832 50.7877 133.151C50.7877 132.471 50.9384 131.942 51.2399 131.565C51.5414 131.188 51.961 131 52.4986 131C53.0589 131 53.4885 131.203 53.7875 131.61H53.8365L53.8101 131.312L53.795 131.022V129.341H54.4206V135.205H53.9118L53.8289 134.651ZM52.5777 134.757C53.0049 134.757 53.3139 134.641 53.5048 134.41C53.6983 134.176 53.795 133.801 53.795 133.283V133.151C53.795 132.566 53.697 132.149 53.5011 131.9C53.3076 131.649 52.9973 131.523 52.5702 131.523C52.2034 131.523 51.922 131.667 51.726 131.953C51.5326 132.237 51.4359 132.639 51.4359 133.159C51.4359 133.687 51.5326 134.085 51.726 134.354C51.9195 134.622 52.2034 134.757 52.5777 134.757ZM57.6352 131C57.8187 131 57.9832 131.015 58.1289 131.045L58.0423 131.625C57.8714 131.587 57.7207 131.569 57.59 131.569C57.2559 131.569 56.9695 131.704 56.7308 131.976C56.4946 132.247 56.3765 132.585 56.3765 132.989V135.205H55.7509V131.075H56.2672L56.3388 131.84H56.369C56.5222 131.571 56.7069 131.364 56.923 131.218C57.139 131.072 57.3765 131 57.6352 131ZM61.4416 135.205L61.3172 134.617H61.287C61.081 134.876 60.875 135.052 60.669 135.145C60.4655 135.235 60.2105 135.281 59.904 135.281C59.4944 135.281 59.1728 135.175 58.9392 134.964C58.708 134.753 58.5925 134.453 58.5925 134.063C58.5925 133.229 59.2595 132.792 60.5936 132.752L61.2946 132.729V132.473C61.2946 132.149 61.2242 131.91 61.0835 131.757C60.9454 131.601 60.723 131.523 60.4165 131.523C60.0723 131.523 59.6829 131.629 59.2482 131.84L59.056 131.361C59.2595 131.251 59.4819 131.164 59.7231 131.101C59.9668 131.038 60.2105 131.007 60.4542 131.007C60.9466 131.007 61.3109 131.116 61.5471 131.335C61.7858 131.554 61.9051 131.904 61.9051 132.386V135.205H61.4416ZM60.0283 134.764C60.4177 134.764 60.723 134.658 60.9441 134.444C61.1677 134.231 61.2795 133.932 61.2795 133.547V133.174L60.6539 133.2C60.1565 133.218 59.7972 133.296 59.5761 133.434C59.3575 133.57 59.2482 133.782 59.2482 134.071C59.2482 134.297 59.3161 134.469 59.4517 134.587C59.5899 134.705 59.7821 134.764 60.0283 134.764ZM64.5318 134.764C64.6424 134.764 64.7491 134.757 64.8522 134.742C64.9552 134.724 65.0368 134.707 65.0971 134.689V135.168C65.0293 135.2 64.9288 135.227 64.7956 135.247C64.665 135.269 64.5469 135.281 64.4414 135.281C63.6424 135.281 63.243 134.86 63.243 134.018V131.561H62.6513V131.26L63.243 131L63.5068 130.118H63.8685V131.075H65.067V131.561H63.8685V133.992C63.8685 134.241 63.9276 134.431 64.0457 134.565C64.1638 134.698 64.3258 134.764 64.5318 134.764ZM67.6711 135.281C67.0606 135.281 66.5782 135.095 66.2239 134.723C65.8722 134.351 65.6963 133.835 65.6963 133.174C65.6963 132.508 65.8596 131.979 66.1863 131.587C66.5154 131.196 66.9563 131 67.509 131C68.0266 131 68.4361 131.17 68.7376 131.512C69.0391 131.851 69.1898 132.3 69.1898 132.857V133.253H66.3445C66.3571 133.738 66.4789 134.106 66.7101 134.357C66.9437 134.609 67.2716 134.734 67.6937 134.734C68.1384 134.734 68.5781 134.641 69.0127 134.455V135.013C68.7916 135.109 68.5818 135.176 68.3834 135.217C68.1874 135.259 67.95 135.281 67.6711 135.281ZM67.5015 131.523C67.1699 131.523 66.9048 131.631 66.7063 131.847C66.5104 132.064 66.3948 132.363 66.3596 132.744H68.519C68.519 132.35 68.4311 132.048 68.2552 131.84C68.0794 131.629 67.8281 131.523 67.5015 131.523ZM73.0715 134.651H73.0376C72.7487 135.071 72.3165 135.281 71.7412 135.281C71.201 135.281 70.7802 135.096 70.4787 134.727C70.1797 134.357 70.0302 133.832 70.0302 133.151C70.0302 132.471 70.181 131.942 70.4825 131.565C70.784 131.188 71.2035 131 71.7412 131C72.3015 131 72.7311 131.203 73.0301 131.61H73.0791L73.0527 131.312L73.0376 131.022V129.341H73.6632V135.205H73.1544L73.0715 134.651ZM71.8203 134.757C72.2475 134.757 72.5565 134.641 72.7474 134.41C72.9409 134.176 73.0376 133.801 73.0376 133.283V133.151C73.0376 132.566 72.9396 132.149 72.7437 131.9C72.5502 131.649 72.2399 131.523 71.8128 131.523C71.446 131.523 71.1646 131.667 70.9686 131.953C70.7752 132.237 70.6785 132.639 70.6785 133.159C70.6785 133.687 70.7752 134.085 70.9686 134.354C71.1621 134.622 71.446 134.757 71.8203 134.757Z" fill="#274483"/>
<path d="M135.539 130.522H136.568V129.493H135.539V130.522ZM136.054 136.182C133.784 136.182 131.937 134.335 131.937 132.066C131.937 129.797 133.784 127.95 136.054 127.95C138.323 127.95 140.17 129.797 140.17 132.066C140.17 134.335 138.323 136.182 136.054 136.182ZM136.054 126.921C135.378 126.921 134.709 127.054 134.085 127.312C133.46 127.571 132.893 127.95 132.415 128.428C131.45 129.393 130.908 130.701 130.908 132.066C130.908 133.431 131.45 134.739 132.415 135.704C132.893 136.182 133.46 136.561 134.085 136.82C134.709 137.078 135.378 137.211 136.054 137.211C137.418 137.211 138.727 136.669 139.692 135.704C140.657 134.739 141.199 133.431 141.199 132.066C141.199 131.39 141.066 130.721 140.807 130.097C140.549 129.473 140.17 128.905 139.692 128.428C139.214 127.95 138.647 127.571 138.023 127.312C137.398 127.054 136.729 126.921 136.054 126.921V126.921ZM135.539 134.639H136.568V131.551H135.539V134.639Z" fill="#274483"/>
<rect x="18.1375" y="122.204" width="126.063" height="19.7241" rx="3.0015" stroke="url(#paint3_linear)" stroke-width="0.857571"/>
<rect x="18.1375" y="146.216" width="126.063" height="19.7241" rx="3.0015" fill="white" fill-opacity="0.8"/>
<path d="M27.7501 156.331H29.6231V159.01C29.3316 159.103 29.0352 159.173 28.7337 159.221C28.4322 159.269 28.0829 159.293 27.686 159.293C26.8519 159.293 26.2024 159.045 25.7376 158.55C25.2728 158.053 25.0404 157.357 25.0404 156.463C25.0404 155.89 25.1547 155.388 25.3834 154.959C25.6145 154.527 25.9461 154.198 26.3783 153.971C26.8104 153.743 27.3167 153.629 27.897 153.629C28.4849 153.629 29.0326 153.737 29.5402 153.953L29.2914 154.518C28.794 154.307 28.3153 154.201 27.8556 154.201C27.1848 154.201 26.6609 154.401 26.2841 154.801C25.9072 155.2 25.7188 155.754 25.7188 156.463C25.7188 157.206 25.8997 157.77 26.2614 158.155C26.6257 158.539 27.1596 158.731 27.8631 158.731C28.245 158.731 28.6181 158.687 28.9824 158.599V156.903H27.7501V156.331ZM34.4205 157.148C34.4205 157.822 34.2509 158.348 33.9118 158.727C33.5726 159.104 33.104 159.293 32.5061 159.293C32.1367 159.293 31.8089 159.206 31.5224 159.033C31.236 158.859 31.0149 158.611 30.8592 158.287C30.7034 157.962 30.6255 157.583 30.6255 157.148C30.6255 156.475 30.7938 155.951 31.1305 155.577C31.4672 155.2 31.9345 155.012 32.5324 155.012C33.1103 155.012 33.5688 155.204 33.908 155.588C34.2497 155.973 34.4205 156.493 34.4205 157.148ZM31.2737 157.148C31.2737 157.676 31.3792 158.078 31.5903 158.354C31.8013 158.631 32.1116 158.769 32.5211 158.769C32.9307 158.769 33.2409 158.632 33.452 158.358C33.6655 158.082 33.7723 157.679 33.7723 157.148C33.7723 156.623 33.6655 156.225 33.452 155.954C33.2409 155.68 32.9281 155.543 32.5136 155.543C32.1041 155.543 31.795 155.677 31.5865 155.946C31.378 156.215 31.2737 156.616 31.2737 157.148ZM41.091 157.148C41.091 157.822 40.9214 158.348 40.5822 158.727C40.243 159.104 39.7745 159.293 39.1765 159.293C38.8072 159.293 38.4793 159.206 38.1929 159.033C37.9065 158.859 37.6854 158.611 37.5296 158.287C37.3739 157.962 37.296 157.583 37.296 157.148C37.296 156.475 37.4643 155.951 37.801 155.577C38.1376 155.2 38.6049 155.012 39.2029 155.012C39.7808 155.012 40.2393 155.204 40.5785 155.588C40.9201 155.973 41.091 156.493 41.091 157.148ZM37.9442 157.148C37.9442 157.676 38.0497 158.078 38.2607 158.354C38.4718 158.631 38.7821 158.769 39.1916 158.769C39.6011 158.769 39.9114 158.632 40.1224 158.358C40.336 158.082 40.4428 157.679 40.4428 157.148C40.4428 156.623 40.336 156.225 40.1224 155.954C39.9114 155.68 39.5986 155.543 39.1841 155.543C38.7745 155.543 38.4655 155.677 38.257 155.946C38.0484 156.215 37.9442 156.616 37.9442 157.148ZM42.7793 155.087V157.766C42.7793 158.103 42.856 158.354 43.0092 158.52C43.1625 158.686 43.4024 158.769 43.729 158.769C44.1612 158.769 44.4765 158.651 44.6749 158.415C44.8759 158.179 44.9764 157.793 44.9764 157.258V155.087H45.602V159.217H45.0857L44.9953 158.663H44.9614C44.8332 158.867 44.6548 159.023 44.4262 159.131C44.2001 159.239 43.9413 159.293 43.6499 159.293C43.1474 159.293 42.7705 159.173 42.5193 158.935C42.2706 158.696 42.1462 158.314 42.1462 157.789V155.087H42.7793ZM48.2664 158.776C48.377 158.776 48.4838 158.769 48.5868 158.754C48.6898 158.736 48.7714 158.719 48.8317 158.701V159.18C48.7639 159.212 48.6634 159.239 48.5302 159.259C48.3996 159.281 48.2815 159.293 48.176 159.293C47.377 159.293 46.9776 158.872 46.9776 158.03V155.573H46.3859V155.272L46.9776 155.012L47.2414 154.13H47.6032V155.087H48.8016V155.573H47.6032V158.004C47.6032 158.253 47.6622 158.444 47.7803 158.577C47.8984 158.71 48.0604 158.776 48.2664 158.776ZM52.3253 158.091C52.3253 158.475 52.182 158.771 51.8956 158.98C51.6092 159.189 51.2072 159.293 50.6897 159.293C50.142 159.293 49.7149 159.206 49.4083 159.033V158.452C49.6068 158.553 49.8191 158.632 50.0452 158.69C50.2739 158.748 50.4937 158.776 50.7047 158.776C51.0314 158.776 51.2826 158.725 51.4585 158.622C51.6343 158.516 51.7223 158.357 51.7223 158.143C51.7223 157.983 51.6519 157.846 51.5112 157.733C51.373 157.617 51.1017 157.481 50.6972 157.326C50.3128 157.182 50.039 157.058 49.8756 156.952C49.7149 156.844 49.5943 156.723 49.5139 156.587C49.436 156.451 49.397 156.289 49.397 156.101C49.397 155.764 49.534 155.499 49.8078 155.306C50.0817 155.11 50.4573 155.012 50.9346 155.012C51.3793 155.012 51.814 155.102 52.2386 155.283L52.0162 155.792C51.6017 155.621 51.2261 155.535 50.8894 155.535C50.5929 155.535 50.3693 155.582 50.2186 155.675C50.0678 155.768 49.9925 155.896 49.9925 156.059C49.9925 156.17 50.0201 156.264 50.0754 156.342C50.1332 156.42 50.2249 156.494 50.3505 156.564C50.4761 156.635 50.7173 156.736 51.0741 156.87C51.564 157.048 51.8944 157.228 52.0652 157.408C52.2386 157.589 52.3253 157.817 52.3253 158.091ZM53.9721 159.217H53.3465V155.087H53.9721V159.217ZM53.2938 153.968C53.2938 153.825 53.329 153.72 53.3993 153.655C53.4697 153.587 53.5576 153.553 53.6631 153.553C53.7636 153.553 53.8503 153.587 53.9231 153.655C53.996 153.723 54.0324 153.827 54.0324 153.968C54.0324 154.108 53.996 154.214 53.9231 154.284C53.8503 154.352 53.7636 154.386 53.6631 154.386C53.5576 154.386 53.4697 154.352 53.3993 154.284C53.329 154.214 53.2938 154.108 53.2938 153.968ZM58.1101 158.663H58.0762C57.7872 159.083 57.3551 159.293 56.7798 159.293C56.2396 159.293 55.8188 159.108 55.5173 158.739C55.2183 158.369 55.0688 157.844 55.0688 157.164C55.0688 156.483 55.2196 155.954 55.521 155.577C55.8225 155.2 56.2421 155.012 56.7798 155.012C57.34 155.012 57.7697 155.215 58.0686 155.622H58.1176L58.0912 155.324L58.0762 155.034V153.353H58.7018V159.217H58.193L58.1101 158.663ZM56.8589 158.769C57.286 158.769 57.595 158.653 57.786 158.422C57.9794 158.189 58.0762 157.813 58.0762 157.295V157.164C58.0762 156.578 57.9782 156.161 57.7822 155.912C57.5888 155.661 57.2785 155.535 56.8514 155.535C56.4846 155.535 56.2032 155.679 56.0072 155.965C55.8137 156.249 55.717 156.651 55.717 157.171C55.717 157.699 55.8137 158.097 56.0072 158.366C56.2007 158.635 56.4846 158.769 56.8589 158.769ZM61.777 159.293C61.1664 159.293 60.6841 159.107 60.3298 158.735C59.9781 158.363 59.8022 157.847 59.8022 157.186C59.8022 156.52 59.9655 155.991 60.2921 155.6C60.6212 155.208 61.0622 155.012 61.6149 155.012C62.1325 155.012 62.542 155.182 62.8435 155.524C63.145 155.863 63.2957 156.312 63.2957 156.87V157.265H60.4504C60.463 157.75 60.5848 158.118 60.816 158.369C61.0496 158.621 61.3775 158.746 61.7996 158.746C62.2443 158.746 62.6839 158.653 63.1186 158.467V159.025C62.8975 159.121 62.6877 159.189 62.4892 159.229C62.2933 159.271 62.0558 159.293 61.777 159.293ZM61.6074 155.535C61.2757 155.535 61.0107 155.643 60.8122 155.86C60.6162 156.076 60.5007 156.375 60.4655 156.756H62.6249C62.6249 156.362 62.537 156.061 62.3611 155.852C62.1852 155.641 61.934 155.535 61.6074 155.535Z" fill="#274483"/>
<path d="M135.539 154.534H136.568V153.505H135.539V154.534ZM136.054 160.194C133.784 160.194 131.937 158.347 131.937 156.078C131.937 153.809 133.784 151.962 136.054 151.962C138.323 151.962 140.17 153.809 140.17 156.078C140.17 158.347 138.323 160.194 136.054 160.194ZM136.054 150.932C135.378 150.932 134.709 151.066 134.085 151.324C133.46 151.583 132.893 151.962 132.415 152.44C131.45 153.405 130.908 154.713 130.908 156.078C130.908 157.443 131.45 158.751 132.415 159.716C132.893 160.194 133.46 160.573 134.085 160.832C134.709 161.09 135.378 161.223 136.054 161.223C137.418 161.223 138.727 160.681 139.692 159.716C140.657 158.751 141.199 157.443 141.199 156.078C141.199 155.402 141.066 154.733 140.807 154.109C140.549 153.485 140.17 152.917 139.692 152.44C139.214 151.962 138.647 151.583 138.023 151.324C137.398 151.066 136.729 150.932 136.054 150.932V150.932ZM135.539 158.651H136.568V155.563H135.539V158.651Z" fill="#274483"/>
<rect x="18.1375" y="146.216" width="126.063" height="19.7241" rx="3.0015" stroke="url(#paint4_linear)" stroke-width="0.857571"/>
<rect x="18.1375" y="170.228" width="126.063" height="19.7241" rx="3.0015" fill="white" fill-opacity="0.8"/>
<path d="M28.3983 183.229H25.3268V177.72H28.3983V178.289H25.9675V180.064H28.2513V180.629H25.9675V182.656H28.3983V183.229ZM32.0689 183.229L31.9445 182.641H31.9144C31.7084 182.9 31.5023 183.076 31.2963 183.169C31.0928 183.259 30.8378 183.305 30.5313 183.305C30.1218 183.305 29.8002 183.199 29.5665 182.988C29.3354 182.777 29.2198 182.477 29.2198 182.087C29.2198 181.253 29.8869 180.816 31.221 180.776L31.9219 180.753V180.497C31.9219 180.173 31.8516 179.934 31.7109 179.781C31.5727 179.625 31.3503 179.547 31.0438 179.547C30.6996 179.547 30.3102 179.653 29.8756 179.864L29.6834 179.385C29.8869 179.275 30.1092 179.188 30.3504 179.125C30.5941 179.062 30.8378 179.031 31.0815 179.031C31.574 179.031 31.9383 179.14 32.1744 179.359C32.4131 179.578 32.5324 179.928 32.5324 180.41V183.229H32.0689ZM30.6557 182.788C31.0451 182.788 31.3503 182.682 31.5714 182.468C31.795 182.254 31.9068 181.956 31.9068 181.571V181.198L31.2813 181.224C30.7838 181.242 30.4245 181.32 30.2034 181.458C29.9848 181.594 29.8756 181.806 29.8756 182.095C29.8756 182.321 29.9434 182.493 30.0791 182.611C30.2172 182.729 30.4094 182.788 30.6557 182.788ZM35.1592 182.788C35.2697 182.788 35.3765 182.781 35.4795 182.766C35.5825 182.748 35.6642 182.731 35.7245 182.713V183.192C35.6566 183.224 35.5561 183.251 35.423 183.271C35.2923 183.293 35.1742 183.305 35.0687 183.305C34.2698 183.305 33.8703 182.884 33.8703 182.042V179.585H33.2786V179.284L33.8703 179.024L34.1341 178.142H34.4959V179.099H35.6943V179.585H34.4959V182.016C34.4959 182.265 34.5549 182.455 34.673 182.589C34.7911 182.722 34.9532 182.788 35.1592 182.788ZM41.3849 183.229V180.557C41.3849 180.221 41.3083 179.969 41.1551 179.804C41.0018 179.638 40.7619 179.555 40.4352 179.555C40.0006 179.555 39.6828 179.673 39.4818 179.909C39.2833 180.145 39.1841 180.532 39.1841 181.07V183.229H38.5585V177.365H39.1841V179.14C39.1841 179.354 39.174 179.531 39.1539 179.672H39.1916C39.3147 179.473 39.4893 179.317 39.7154 179.204C39.9441 179.089 40.2041 179.031 40.4955 179.031C41.0005 179.031 41.3787 179.152 41.6299 179.393C41.8837 179.632 42.0105 180.012 42.0105 180.535V183.229H41.3849ZM45.0443 183.305C44.4338 183.305 43.9514 183.119 43.5971 182.747C43.2454 182.375 43.0695 181.859 43.0695 181.198C43.0695 180.532 43.2328 180.003 43.5594 179.611C43.8886 179.219 44.3295 179.024 44.8822 179.024C45.3998 179.024 45.8093 179.194 46.1108 179.536C46.4123 179.875 46.563 180.324 46.563 180.881V181.277H43.7177C43.7303 181.762 43.8521 182.13 44.0833 182.381C44.3169 182.633 44.6448 182.758 45.0669 182.758C45.5116 182.758 45.9513 182.665 46.3859 182.479V183.037C46.1648 183.133 45.955 183.2 45.7565 183.241C45.5606 183.283 45.3231 183.305 45.0443 183.305ZM44.8747 179.547C44.543 179.547 44.278 179.655 44.0795 179.871C43.8835 180.088 43.768 180.387 43.7328 180.768H45.8922C45.8922 180.374 45.8043 180.072 45.6284 179.864C45.4525 179.653 45.2013 179.547 44.8747 179.547ZM50.1734 183.229L50.049 182.641H50.0189C49.8128 182.9 49.6068 183.076 49.4008 183.169C49.1973 183.259 48.9423 183.305 48.6358 183.305C48.2262 183.305 47.9047 183.199 47.671 182.988C47.4399 182.777 47.3243 182.477 47.3243 182.087C47.3243 181.253 47.9913 180.816 49.3254 180.776L50.0264 180.753V180.497C50.0264 180.173 49.956 179.934 49.8153 179.781C49.6772 179.625 49.4548 179.547 49.1483 179.547C48.8041 179.547 48.4147 179.653 47.98 179.864L47.7878 179.385C47.9913 179.275 48.2137 179.188 48.4549 179.125C48.6986 179.062 48.9423 179.031 49.186 179.031C49.6784 179.031 50.0427 179.14 50.2789 179.359C50.5176 179.578 50.6369 179.928 50.6369 180.41V183.229H50.1734ZM48.7601 182.788C49.1496 182.788 49.4548 182.682 49.6759 182.468C49.8995 182.254 50.0113 181.956 50.0113 181.571V181.198L49.3857 181.224C48.8883 181.242 48.529 181.32 48.3079 181.458C48.0893 181.594 47.98 181.806 47.98 182.095C47.98 182.321 48.0479 182.493 48.1835 182.611C48.3217 182.729 48.5139 182.788 48.7601 182.788ZM52.5551 183.229H51.9295V177.365H52.5551V183.229ZM55.2158 182.788C55.3263 182.788 55.4331 182.781 55.5361 182.766C55.6391 182.748 55.7208 182.731 55.7811 182.713V183.192C55.7132 183.224 55.6127 183.251 55.4796 183.271C55.3489 183.293 55.2309 183.305 55.1253 183.305C54.3264 183.305 53.9269 182.884 53.9269 182.042V179.585H53.3352V179.284L53.9269 179.024L54.1907 178.142H54.5525V179.099H55.7509V179.585H54.5525V182.016C54.5525 182.265 54.6116 182.455 54.7296 182.589C54.8477 182.722 55.0098 182.788 55.2158 182.788ZM59.4366 183.229V180.557C59.4366 180.221 59.36 179.969 59.2068 179.804C59.0535 179.638 58.8136 179.555 58.487 179.555C58.0523 179.555 57.7345 179.673 57.5335 179.909C57.335 180.145 57.2358 180.532 57.2358 181.07V183.229H56.6102V177.365H57.2358V179.14C57.2358 179.354 57.2257 179.531 57.2056 179.672H57.2433C57.3664 179.473 57.541 179.317 57.7671 179.204C57.9958 179.089 58.2558 179.031 58.5473 179.031C59.0522 179.031 59.4304 179.152 59.6816 179.393C59.9354 179.632 60.0622 180.012 60.0622 180.535V183.229H59.4366ZM60.6954 179.099H61.3662L62.2707 181.454C62.4691 181.992 62.5922 182.38 62.64 182.619H62.6701C62.7028 182.491 62.7706 182.272 62.8736 181.963C62.9792 181.652 63.3208 180.697 63.8987 179.099H64.5695L62.7945 183.802C62.6186 184.267 62.4126 184.596 62.1764 184.79C61.9428 184.985 61.6551 185.083 61.3134 185.083C61.1225 185.083 60.934 185.062 60.7481 185.019V184.518C60.8863 184.548 61.0408 184.563 61.2117 184.563C61.6413 184.563 61.9478 184.322 62.1312 183.84L62.3611 183.252L60.6954 179.099Z" fill="#274483"/>
<path d="M135.539 178.546H136.568V177.517H135.539V178.546ZM136.054 184.206C133.784 184.206 131.937 182.359 131.937 180.09C131.937 177.821 133.784 175.974 136.054 175.974C138.323 175.974 140.17 177.821 140.17 180.09C140.17 182.359 138.323 184.206 136.054 184.206ZM136.054 174.945C135.378 174.945 134.709 175.078 134.085 175.336C133.46 175.595 132.893 175.974 132.415 176.452C131.45 177.417 130.908 178.725 130.908 180.09C130.908 181.455 131.45 182.763 132.415 183.728C132.893 184.206 133.46 184.585 134.085 184.844C134.709 185.102 135.378 185.235 136.054 185.235C137.418 185.235 138.727 184.693 139.692 183.728C140.657 182.763 141.199 181.455 141.199 180.09C141.199 179.414 141.066 178.745 140.807 178.121C140.549 177.497 140.17 176.929 139.692 176.452C139.214 175.974 138.647 175.595 138.023 175.336C137.398 175.078 136.729 174.945 136.054 174.945V174.945ZM135.539 182.663H136.568V179.575H135.539V182.663Z" fill="#274483"/>
<rect x="18.1375" y="170.228" width="126.063" height="19.7241" rx="3.0015" stroke="url(#paint5_linear)" stroke-width="0.857571"/>
<rect x="18.1375" y="194.24" width="126.063" height="19.7241" rx="3.0015" fill="white" fill-opacity="0.8"/>
<path d="M27.0227 207.241H26.382V202.301H24.6372V201.732H28.7676V202.301H27.0227V207.241ZM32.0463 207.241L31.9219 206.653H31.8918C31.6858 206.912 31.4797 207.088 31.2737 207.181C31.0702 207.272 30.8152 207.317 30.5087 207.317C30.0992 207.317 29.7776 207.211 29.5439 207C29.3128 206.789 29.1972 206.489 29.1972 206.1C29.1972 205.265 29.8643 204.828 31.1983 204.788L31.8993 204.765V204.509C31.8993 204.185 31.829 203.946 31.6883 203.793C31.5501 203.637 31.3277 203.559 31.0212 203.559C30.677 203.559 30.2876 203.665 29.8529 203.876L29.6607 203.397C29.8643 203.287 30.0866 203.2 30.3278 203.137C30.5715 203.075 30.8152 203.043 31.0589 203.043C31.5513 203.043 31.9156 203.152 32.1518 203.371C32.3905 203.59 32.5098 203.94 32.5098 204.422V207.241H32.0463ZM30.6331 206.8C31.0225 206.8 31.3277 206.694 31.5488 206.48C31.7724 206.267 31.8842 205.968 31.8842 205.583V205.21L31.2586 205.236C30.7612 205.254 30.4019 205.332 30.1808 205.47C29.9622 205.606 29.8529 205.818 29.8529 206.107C29.8529 206.333 29.9208 206.505 30.0565 206.623C30.1946 206.741 30.3868 206.8 30.6331 206.8ZM34.4205 205.127C34.5286 204.974 34.6931 204.773 34.9142 204.524L36.2483 203.111H36.9907L35.3175 204.871L37.1075 207.241H36.3501L34.8916 205.289L34.4205 205.696V207.241H33.8025V201.377H34.4205V204.487C34.4205 204.625 34.4105 204.838 34.3904 205.127H34.4205ZM39.6024 207.317C38.9919 207.317 38.5095 207.131 38.1552 206.759C37.8035 206.387 37.6276 205.871 37.6276 205.21C37.6276 204.544 37.7909 204.015 38.1175 203.624C38.4467 203.232 38.8876 203.036 39.4403 203.036C39.9579 203.036 40.3674 203.206 40.6689 203.548C40.9704 203.887 41.1211 204.336 41.1211 204.894V205.289H38.2758C38.2884 205.774 38.4102 206.142 38.6414 206.393C38.875 206.645 39.2029 206.77 39.625 206.77C40.0697 206.77 40.5094 206.677 40.944 206.491V207.049C40.7229 207.145 40.5131 207.213 40.3146 207.253C40.1187 207.295 39.8813 207.317 39.6024 207.317ZM39.4328 203.559C39.1012 203.559 38.8361 203.667 38.6376 203.884C38.4416 204.1 38.3261 204.399 38.2909 204.78H40.4503C40.4503 204.386 40.3624 204.085 40.1865 203.876C40.0106 203.665 39.7594 203.559 39.4328 203.559ZM45.5304 206.8C45.641 206.8 45.7477 206.793 45.8508 206.778C45.9538 206.76 46.0354 206.743 46.0957 206.725V207.204C46.0279 207.236 45.9274 207.263 45.7942 207.283C45.6636 207.305 45.5455 207.317 45.44 207.317C44.641 207.317 44.2416 206.896 44.2416 206.054V203.597H43.6499V203.296L44.2416 203.036L44.5054 202.154H44.8671V203.111H46.0656V203.597H44.8671V206.028C44.8671 206.277 44.9262 206.468 45.0443 206.601C45.1624 206.734 45.3244 206.8 45.5304 206.8ZM47.5504 207.241H46.9248V203.111H47.5504V207.241ZM46.8721 201.992C46.8721 201.848 46.9072 201.744 46.9776 201.679C47.0479 201.611 47.1359 201.577 47.2414 201.577C47.3419 201.577 47.4286 201.611 47.5014 201.679C47.5743 201.747 47.6107 201.851 47.6107 201.992C47.6107 202.132 47.5743 202.238 47.5014 202.308C47.4286 202.376 47.3419 202.41 47.2414 202.41C47.1359 202.41 47.0479 202.376 46.9776 202.308C46.9072 202.238 46.8721 202.132 46.8721 201.992ZM54.1417 207.241V204.554C54.1417 204.225 54.0714 203.979 53.9307 203.816C53.79 203.65 53.5714 203.567 53.2749 203.567C52.8855 203.567 52.5979 203.679 52.4119 203.902C52.226 204.126 52.1331 204.47 52.1331 204.935V207.241H51.5075V204.554C51.5075 204.225 51.4371 203.979 51.2964 203.816C51.1557 203.65 50.9359 203.567 50.6369 203.567C50.245 203.567 49.9573 203.685 49.7739 203.921C49.593 204.155 49.5026 204.539 49.5026 205.074V207.241H48.877V203.111H49.3857L49.4875 203.676H49.5176C49.6357 203.475 49.8015 203.318 50.0151 203.205C50.2312 203.092 50.4723 203.036 50.7387 203.036C51.3844 203.036 51.8064 203.269 52.0049 203.737H52.0351C52.1582 203.521 52.3366 203.35 52.5702 203.224C52.8039 203.098 53.0702 203.036 53.3692 203.036C53.8365 203.036 54.1857 203.156 54.4168 203.397C54.6505 203.636 54.7673 204.019 54.7673 204.547V207.241H54.1417ZM57.8048 207.317C57.1943 207.317 56.7119 207.131 56.3577 206.759C56.0059 206.387 55.8301 205.871 55.8301 205.21C55.8301 204.544 55.9934 204.015 56.32 203.624C56.6491 203.232 57.09 203.036 57.6428 203.036C58.1603 203.036 58.5699 203.206 58.8714 203.548C59.1728 203.887 59.3236 204.336 59.3236 204.894V205.289H56.4783C56.4908 205.774 56.6127 206.142 56.8438 206.393C57.0775 206.645 57.4054 206.77 57.8274 206.77C58.2721 206.77 58.7118 206.677 59.1465 206.491V207.049C58.9254 207.145 58.7156 207.213 58.5171 207.253C58.3211 207.295 58.0837 207.317 57.8048 207.317ZM57.6352 203.559C57.3036 203.559 57.0385 203.667 56.8401 203.884C56.6441 204.1 56.5285 204.399 56.4934 204.78H58.6528C58.6528 204.386 58.5648 204.085 58.389 203.876C58.2131 203.665 57.9619 203.559 57.6352 203.559ZM63.7329 206.8C63.8434 206.8 63.9502 206.793 64.0532 206.778C64.1562 206.76 64.2379 206.743 64.2982 206.725V207.204C64.2303 207.236 64.1298 207.263 63.9967 207.283C63.866 207.305 63.7479 207.317 63.6424 207.317C62.8435 207.317 62.444 206.896 62.444 206.054V203.597H61.8523V203.296L62.444 203.036L62.7078 202.154H63.0696V203.111H64.268V203.597H63.0696V206.028C63.0696 206.277 63.1286 206.468 63.2467 206.601C63.3648 206.734 63.5269 206.8 63.7329 206.8ZM68.6924 205.172C68.6924 205.846 68.5228 206.372 68.1836 206.751C67.8444 207.128 67.3759 207.317 66.7779 207.317C66.4086 207.317 66.0807 207.23 65.7943 207.057C65.5079 206.883 65.2868 206.635 65.131 206.311C64.9753 205.986 64.8974 205.607 64.8974 205.172C64.8974 204.499 65.0657 203.975 65.4024 203.601C65.739 203.224 66.2063 203.036 66.8043 203.036C67.3822 203.036 67.8407 203.228 68.1799 203.612C68.5215 203.997 68.6924 204.517 68.6924 205.172ZM65.5456 205.172C65.5456 205.7 65.6511 206.102 65.8621 206.378C66.0732 206.655 66.3835 206.793 66.793 206.793C67.2025 206.793 67.5128 206.656 67.7238 206.382C67.9374 206.106 68.0442 205.703 68.0442 205.172C68.0442 204.647 67.9374 204.249 67.7238 203.978C67.5128 203.704 67.2 203.567 66.7855 203.567C66.3759 203.567 66.0669 203.701 65.8584 203.97C65.6498 204.239 65.5456 204.64 65.5456 205.172ZM73.682 203.036C73.8654 203.036 74.03 203.051 74.1757 203.081L74.0891 203.661C73.9182 203.624 73.7675 203.605 73.6368 203.605C73.3027 203.605 73.0163 203.74 72.7776 204.012C72.5414 204.283 72.4233 204.621 72.4233 205.025V207.241H71.7977V203.111H72.314L72.3856 203.876H72.4158C72.569 203.607 72.7537 203.4 72.9698 203.254C73.1858 203.108 73.4233 203.036 73.682 203.036ZM76.6932 207.317C76.0827 207.317 75.6003 207.131 75.246 206.759C74.8943 206.387 74.7184 205.871 74.7184 205.21C74.7184 204.544 74.8817 204.015 75.2083 203.624C75.5375 203.232 75.9784 203.036 76.5311 203.036C77.0487 203.036 77.4582 203.206 77.7597 203.548C78.0612 203.887 78.2119 204.336 78.2119 204.894V205.289H75.3666C75.3792 205.774 75.501 206.142 75.7322 206.393C75.9658 206.645 76.2937 206.77 76.7158 206.77C77.1605 206.77 77.6002 206.677 78.0348 206.491V207.049C77.8137 207.145 77.6039 207.213 77.4054 207.253C77.2095 207.295 76.9721 207.317 76.6932 207.317ZM76.5236 203.559C76.1919 203.559 75.9269 203.667 75.7284 203.884C75.5324 204.1 75.4169 204.399 75.3817 204.78H77.5411C77.5411 204.386 77.4532 204.085 77.2773 203.876C77.1014 203.665 76.8502 203.559 76.5236 203.559ZM79.9078 207.241H79.2822V201.377H79.9078V207.241ZM83.7744 207.241L83.6501 206.653H83.6199C83.4139 206.912 83.2079 207.088 83.0019 207.181C82.7983 207.272 82.5433 207.317 82.2368 207.317C81.8273 207.317 81.5057 207.211 81.2721 207C81.0409 206.789 80.9253 206.489 80.9253 206.1C80.9253 205.265 81.5924 204.828 82.9265 204.788L83.6274 204.765V204.509C83.6274 204.185 83.5571 203.946 83.4164 203.793C83.2782 203.637 83.0559 203.559 82.7494 203.559C82.4052 203.559 82.0157 203.665 81.5811 203.876L81.3889 203.397C81.5924 203.287 81.8147 203.2 82.0559 203.137C82.2996 203.075 82.5433 203.043 82.787 203.043C83.2795 203.043 83.6438 203.152 83.8799 203.371C84.1186 203.59 84.238 203.94 84.238 204.422V207.241H83.7744ZM82.3612 206.8C82.7506 206.8 83.0559 206.694 83.277 206.48C83.5006 206.267 83.6124 205.968 83.6124 205.583V205.21L82.9868 205.236C82.4893 205.254 82.13 205.332 81.909 205.47C81.6904 205.606 81.5811 205.818 81.5811 206.107C81.5811 206.333 81.6489 206.505 81.7846 206.623C81.9228 206.741 82.115 206.8 82.3612 206.8ZM86.5255 205.127L85.0897 203.111H85.8019L86.8911 204.694L87.9764 203.111H88.6812L87.2453 205.127L88.7565 207.241H88.048L86.8911 205.568L85.7228 207.241H85.0143L86.5255 205.127Z" fill="#274483"/>
<path d="M135.539 202.558H136.568V201.529H135.539V202.558ZM136.054 208.218C133.784 208.218 131.937 206.371 131.937 204.102C131.937 201.833 133.784 199.986 136.054 199.986C138.323 199.986 140.17 201.833 140.17 204.102C140.17 206.371 138.323 208.218 136.054 208.218ZM136.054 198.957C135.378 198.957 134.709 199.09 134.085 199.348C133.46 199.607 132.893 199.986 132.415 200.464C131.45 201.429 130.908 202.737 130.908 204.102C130.908 205.467 131.45 206.775 132.415 207.74C132.893 208.218 133.46 208.597 134.085 208.856C134.709 209.114 135.378 209.247 136.054 209.247C137.418 209.247 138.727 208.705 139.692 207.74C140.657 206.775 141.199 205.467 141.199 204.102C141.199 203.426 141.066 202.757 140.807 202.133C140.549 201.509 140.17 200.941 139.692 200.464C139.214 199.986 138.647 199.607 138.023 199.348C137.398 199.09 136.729 198.957 136.054 198.957V198.957ZM135.539 206.675H136.568V203.587H135.539V206.675Z" fill="#274483"/>
<rect x="18.1375" y="194.24" width="126.063" height="19.7241" rx="3.0015" stroke="url(#paint6_linear)" stroke-width="0.857571"/>
<path d="M7.96338 45.5806V42.7095C7.96338 41.8999 8.18292 41.3065 8.622 40.9292C9.06108 40.545 9.63393 40.3529 10.3406 40.3529C11.0609 40.3529 11.6475 40.5312 12.1003 40.888C12.56 41.2447 12.7898 41.7181 12.7898 42.3081C12.7898 42.562 12.7383 42.7369 12.6354 42.833C12.5325 42.9222 12.361 42.9667 12.1209 42.9667C11.6818 42.9667 11.4588 42.8261 11.452 42.5448C11.4451 42.4556 11.4348 42.3802 11.4211 42.3184C11.4143 42.2498 11.3868 42.1641 11.3388 42.0612C11.2976 41.9514 11.2427 41.8622 11.1741 41.7936C11.1055 41.7181 11.0026 41.6564 10.8654 41.6084C10.7282 41.5535 10.567 41.526 10.3817 41.526C9.66138 41.526 9.3012 41.9205 9.3012 42.7095V45.5806C9.3012 46.3696 9.66824 46.7641 10.4023 46.7641C10.6219 46.7641 10.8037 46.7298 10.9477 46.6612C11.0987 46.5926 11.205 46.4965 11.2667 46.373C11.3354 46.2427 11.3799 46.1295 11.4005 46.0334C11.428 45.9305 11.4451 45.807 11.452 45.663C11.4726 45.3817 11.6921 45.241 12.1106 45.241C12.3507 45.241 12.5222 45.2891 12.6251 45.3851C12.7349 45.4743 12.7898 45.6458 12.7898 45.8996C12.7898 46.5171 12.56 47.0111 12.1003 47.3815C11.6475 47.752 11.0575 47.9372 10.3303 47.9372C9.62364 47.9372 9.05078 47.7486 8.61171 47.3712C8.17949 46.987 7.96338 46.3902 7.96338 45.5806ZM13.6008 47.4536V40.5484C13.6008 40.4249 13.6591 40.3254 13.7757 40.25C13.8992 40.1745 14.0604 40.1368 14.2594 40.1368C14.4446 40.1368 14.6024 40.1745 14.7328 40.25C14.8631 40.3254 14.9283 40.4249 14.9283 40.5484V43.7077C15.0312 43.4882 15.1958 43.3029 15.4222 43.152C15.6486 43.0011 15.9162 42.9256 16.2249 42.9256C16.6983 42.9256 17.1099 43.1314 17.4598 43.543C17.8166 43.9547 17.995 44.4452 17.995 45.0146V47.4536C17.995 47.5839 17.9264 47.6868 17.7891 47.7623C17.6588 47.8378 17.5044 47.8755 17.3261 47.8755C17.1545 47.8755 17.0002 47.8378 16.863 47.7623C16.7326 47.6868 16.6674 47.5839 16.6674 47.4536V45.0146C16.6674 44.7814 16.5783 44.5687 16.3999 44.3766C16.2215 44.1845 16.0123 44.0885 15.7721 44.0885C15.5457 44.0885 15.3468 44.1742 15.1753 44.3457C15.0106 44.5172 14.9283 44.7402 14.9283 45.0146V47.4536C14.9283 47.5565 14.8597 47.6525 14.7225 47.7417C14.5921 47.8309 14.4378 47.8755 14.2594 47.8755C14.0741 47.8755 13.9163 47.8343 13.786 47.752C13.6625 47.6628 13.6008 47.5633 13.6008 47.4536ZM18.8019 45.8585V45.0146C18.8019 44.4521 19.0214 43.965 19.4605 43.5533C19.8996 43.1348 20.4244 42.9256 21.035 42.9256C21.6319 42.9256 22.1533 43.1314 22.5992 43.543C23.0452 43.9547 23.2681 44.4452 23.2681 45.0146V45.8585C23.2681 46.4142 23.0452 46.9047 22.5992 47.3301C22.1533 47.7554 21.6319 47.9681 21.035 47.9681C20.4382 47.9681 19.9167 47.7554 19.4708 47.3301C19.0249 46.9047 18.8019 46.4142 18.8019 45.8585ZM20.1294 45.8585C20.1294 46.1055 20.2186 46.325 20.397 46.5171C20.5754 46.7092 20.788 46.8052 21.035 46.8052C21.2751 46.8052 21.4844 46.7092 21.6628 46.5171C21.848 46.325 21.9406 46.1055 21.9406 45.8585V45.0146C21.9406 44.7814 21.848 44.5687 21.6628 44.3766C21.4844 44.1845 21.2751 44.0885 21.035 44.0885C20.788 44.0885 20.5754 44.1845 20.397 44.3766C20.2186 44.5618 20.1294 44.7745 20.1294 45.0146V45.8585ZM23.9272 45.8585V45.0146C23.9272 44.4521 24.1468 43.965 24.5858 43.5533C25.0249 43.1348 25.5498 42.9256 26.1604 42.9256C26.7572 42.9256 27.2786 43.1314 27.7246 43.543C28.1705 43.9547 28.3935 44.4452 28.3935 45.0146V45.8585C28.3935 46.4142 28.1705 46.9047 27.7246 47.3301C27.2786 47.7554 26.7572 47.9681 26.1604 47.9681C25.5635 47.9681 25.0421 47.7554 24.5961 47.3301C24.1502 46.9047 23.9272 46.4142 23.9272 45.8585ZM25.2548 45.8585C25.2548 46.1055 25.3439 46.325 25.5223 46.5171C25.7007 46.7092 25.9134 46.8052 26.1604 46.8052C26.4005 46.8052 26.6097 46.7092 26.7881 46.5171C26.9733 46.325 27.0659 46.1055 27.0659 45.8585V45.0146C27.0659 44.7814 26.9733 44.5687 26.7881 44.3766C26.6097 44.1845 26.4005 44.0885 26.1604 44.0885C25.9134 44.0885 25.7007 44.1845 25.5223 44.3766C25.3439 44.5618 25.2548 44.7745 25.2548 45.0146V45.8585ZM28.9599 47.0831C28.9599 46.9596 29.0045 46.8327 29.0937 46.7023C29.1829 46.5651 29.2858 46.4965 29.4025 46.4965C29.4779 46.4965 29.5705 46.5342 29.6803 46.6097C29.7969 46.6852 29.9479 46.7641 30.1331 46.8464C30.3183 46.9219 30.5379 46.9596 30.7917 46.9596C31.2925 46.9596 31.5429 46.8121 31.5429 46.5171C31.5429 46.3524 31.4572 46.2221 31.2857 46.126C31.121 46.03 30.9186 45.9511 30.6785 45.8894C30.4453 45.8276 30.2086 45.7556 29.9684 45.6732C29.7283 45.5841 29.5225 45.44 29.351 45.241C29.1863 45.0352 29.104 44.7745 29.104 44.4589C29.104 44.0404 29.2515 43.6802 29.5465 43.3784C29.8415 43.0765 30.308 42.9256 30.9461 42.9256C31.3714 42.9256 31.7488 42.9908 32.0781 43.1211C32.4142 43.2515 32.5823 43.4093 32.5823 43.5945C32.5823 43.7111 32.5343 43.8483 32.4383 44.0061C32.3491 44.1571 32.2359 44.2325 32.0987 44.2325C32.0438 44.2325 31.8928 44.1845 31.6459 44.0885C31.4057 43.9855 31.1793 43.9341 30.9667 43.9341C30.7334 43.9341 30.555 43.9821 30.4315 44.0782C30.308 44.1742 30.2463 44.2805 30.2463 44.3972C30.2463 44.5138 30.308 44.6099 30.4315 44.6853C30.555 44.7608 30.706 44.8191 30.8843 44.8603C31.0696 44.9014 31.2685 44.9597 31.4812 45.0352C31.6939 45.1038 31.8894 45.1861 32.0678 45.2822C32.253 45.3782 32.4074 45.5292 32.5309 45.735C32.6544 45.9339 32.7161 46.1775 32.7161 46.4656C32.7161 46.9322 32.548 47.2992 32.2119 47.5668C31.8825 47.8343 31.4195 47.9681 30.8226 47.9681C30.308 47.9681 29.869 47.8789 29.5054 47.7005C29.1417 47.5222 28.9599 47.3164 28.9599 47.0831ZM33.3136 45.8585V44.9838C33.3136 44.4212 33.5332 43.9375 33.9722 43.5327C34.4113 43.128 34.943 42.9256 35.5673 42.9256C36.1505 42.9256 36.6479 43.1108 37.0595 43.4813C37.478 43.8449 37.6872 44.3046 37.6872 44.8603C37.6872 45.0661 37.6598 45.2376 37.6049 45.3748C37.5569 45.5052 37.478 45.5978 37.3682 45.6527C37.2653 45.7075 37.1693 45.7419 37.0801 45.7556C36.9909 45.7693 36.8743 45.7762 36.7302 45.7762H34.6411V45.9305C34.6411 46.2255 34.7509 46.4656 34.9704 46.6509C35.19 46.8293 35.4816 46.9184 35.8452 46.9184C36.1059 46.9184 36.3631 46.8533 36.617 46.7229C36.8708 46.5926 37.0355 46.5274 37.1109 46.5274C37.255 46.5274 37.3751 46.596 37.4711 46.7332C37.5672 46.8636 37.6152 46.9905 37.6152 47.114C37.6152 47.3061 37.4403 47.4982 37.0904 47.6903C36.7473 47.8755 36.3186 47.9681 35.804 47.9681C35.0699 47.9681 34.4696 47.776 34.0031 47.3918C33.5435 47.0008 33.3136 46.4897 33.3136 45.8585ZM34.6411 44.994H36.1436C36.2534 44.994 36.3288 44.9769 36.37 44.9426C36.418 44.9014 36.442 44.826 36.442 44.7162C36.442 44.4761 36.3529 44.2805 36.1745 44.1296C36.003 43.9787 35.7903 43.9032 35.5364 43.9032C35.2963 43.9032 35.0871 43.9787 34.9087 44.1296C34.7303 44.2737 34.6411 44.4658 34.6411 44.7059V44.994ZM40.0909 49.5838C40.0909 49.2133 40.2041 49.0281 40.4305 49.0281C40.7529 49.0281 41.0685 48.9114 41.3772 48.6782C41.6928 48.4449 41.8678 48.0573 41.9021 47.5153L40.132 43.7283C40.1046 43.6597 40.0909 43.6014 40.0909 43.5533C40.0909 43.3887 40.1903 43.2412 40.3893 43.1108C40.5951 42.9805 40.7906 42.9153 40.9759 42.9153C41.1817 42.9153 41.3086 42.9908 41.3566 43.1417L42.5915 46.2187L43.5898 43.1417C43.6378 42.9908 43.7544 42.9153 43.9397 42.9153C44.118 42.9153 44.3136 42.9839 44.5262 43.1211C44.7389 43.2515 44.8452 43.4024 44.8452 43.5739C44.8452 43.6288 44.835 43.6802 44.8144 43.7283L43.3119 47.5668L43.137 48.0196C43.0546 48.2528 42.9929 48.414 42.9517 48.5032C42.9174 48.5924 42.8523 48.7296 42.7562 48.9149C42.667 49.107 42.5847 49.2442 42.5092 49.3265C42.4406 49.4157 42.3411 49.522 42.2108 49.6455C42.0804 49.7759 41.9467 49.8685 41.8094 49.9234C41.6791 49.9851 41.5179 50.0366 41.3258 50.0777C41.1337 50.1258 40.9244 50.1498 40.698 50.1498C40.4991 50.1498 40.3481 50.112 40.2452 50.0366C40.1423 49.9611 40.0909 49.8102 40.0909 49.5838ZM45.2526 45.8585V45.0146C45.2526 44.4521 45.4722 43.965 45.9112 43.5533C46.3503 43.1348 46.8751 42.9256 47.4857 42.9256C48.0826 42.9256 48.604 43.1314 49.0499 43.543C49.4959 43.9547 49.7189 44.4452 49.7189 45.0146V45.8585C49.7189 46.4142 49.4959 46.9047 49.0499 47.3301C48.604 47.7554 48.0826 47.9681 47.4857 47.9681C46.8889 47.9681 46.3675 47.7554 45.9215 47.3301C45.4756 46.9047 45.2526 46.4142 45.2526 45.8585ZM46.5801 45.8585C46.5801 46.1055 46.6693 46.325 46.8477 46.5171C47.0261 46.7092 47.2388 46.8052 47.4857 46.8052C47.7259 46.8052 47.9351 46.7092 48.1135 46.5171C48.2987 46.325 48.3913 46.1055 48.3913 45.8585V45.0146C48.3913 44.7814 48.2987 44.5687 48.1135 44.3766C47.9351 44.1845 47.7259 44.0885 47.4857 44.0885C47.2388 44.0885 47.0261 44.1845 46.8477 44.3766C46.6693 44.5618 46.5801 44.7745 46.5801 45.0146V45.8585ZM50.5117 45.8791V43.4093C50.5117 43.3063 50.5769 43.2103 50.7073 43.1211C50.8445 43.0319 51.0023 42.9873 51.1806 42.9873C51.3521 42.9873 51.5031 43.0319 51.6334 43.1211C51.7706 43.2103 51.8393 43.3063 51.8393 43.4093V45.8791C51.8393 46.1192 51.9284 46.3353 52.1068 46.5274C52.2852 46.7126 52.4979 46.8052 52.7448 46.8052C52.9918 46.8052 53.2011 46.7126 53.3726 46.5274C53.551 46.3353 53.6401 46.1192 53.6401 45.8791V43.399C53.6401 43.2892 53.7053 43.1931 53.8357 43.1108C53.9729 43.0285 54.1307 42.9873 54.3091 42.9873C54.5012 42.9873 54.6589 43.0285 54.7824 43.1108C54.9059 43.1931 54.9677 43.2892 54.9677 43.399V45.8791C54.9677 46.4348 54.7481 46.9219 54.3091 47.3404C53.87 47.7589 53.3486 47.9681 52.7448 47.9681C52.1411 47.9681 51.6163 47.7589 51.1703 47.3404C50.7313 46.9219 50.5117 46.4348 50.5117 45.8791ZM55.9599 47.4536V43.399C55.9599 43.2755 56.0182 43.176 56.1348 43.1005C56.2583 43.0251 56.4161 42.9873 56.6082 42.9873C56.7797 42.9873 56.9203 43.0251 57.0301 43.1005C57.1467 43.176 57.205 43.2755 57.205 43.399V43.8209C57.3148 43.5808 57.4863 43.3715 57.7196 43.1931C57.9529 43.0148 58.2033 42.9256 58.4708 42.9256H58.7898C58.9133 42.9256 59.0231 42.9839 59.1191 43.1005C59.2221 43.2172 59.2735 43.3509 59.2735 43.5019C59.2735 43.6597 59.2221 43.7969 59.1191 43.9135C59.0231 44.0301 58.9133 44.0885 58.7898 44.0885H58.4708C58.1552 44.0885 57.8774 44.2291 57.6373 44.5104C57.404 44.7917 57.2874 45.1587 57.2874 45.6115V47.4536C57.2874 47.5565 57.2188 47.6525 57.0816 47.7417C56.9443 47.8309 56.7866 47.8755 56.6082 47.8755C56.4229 47.8755 56.2686 47.8343 56.1451 47.752C56.0216 47.6628 55.9599 47.5633 55.9599 47.4536ZM61.8272 41.2482C61.8272 41.0698 61.8958 40.9189 62.033 40.7954C62.1771 40.665 62.352 40.5999 62.5578 40.5999C62.7568 40.5999 62.9249 40.665 63.0621 40.7954C63.2061 40.9189 63.2782 41.0698 63.2782 41.2482C63.2782 41.4197 63.2061 41.5706 63.0621 41.701C62.9249 41.8313 62.7568 41.8965 62.5578 41.8965C62.352 41.8965 62.1771 41.8313 62.033 41.701C61.8958 41.5706 61.8272 41.4197 61.8272 41.2482ZM61.8992 47.4536V43.399C61.8992 43.2755 61.961 43.176 62.0844 43.1005C62.2079 43.0251 62.3657 42.9873 62.5578 42.9873C62.7499 42.9873 62.9077 43.0251 63.0312 43.1005C63.1616 43.176 63.2267 43.2755 63.2267 43.399V47.4536C63.2267 47.5565 63.1581 47.6525 63.0209 47.7417C62.8906 47.8309 62.7362 47.8755 62.5578 47.8755C62.3726 47.8755 62.2148 47.8343 62.0844 47.752C61.961 47.6628 61.8992 47.5633 61.8992 47.4536ZM64.2508 47.4536V43.399C64.2508 43.2755 64.3091 43.176 64.4258 43.1005C64.5493 43.0251 64.7105 42.9873 64.9094 42.9873C65.0741 42.9873 65.2113 43.0251 65.3211 43.1005C65.4377 43.176 65.496 43.2755 65.496 43.399V43.7077C65.791 43.1863 66.2438 42.9256 66.8544 42.9256C67.1426 42.9256 67.3998 43.0216 67.6262 43.2137C67.8595 43.399 68.031 43.6459 68.1408 43.9547C68.3123 43.6185 68.5353 43.3647 68.8097 43.1931C69.091 43.0148 69.386 42.9256 69.6947 42.9256C70.1886 42.9256 70.6174 43.1143 70.981 43.4916C71.3447 43.8689 71.5265 44.3766 71.5265 45.0146V47.4536C71.5265 47.5565 71.4579 47.6525 71.3206 47.7417C71.1903 47.8309 71.0359 47.8755 70.8576 47.8755C70.686 47.8755 70.5317 47.8309 70.3945 47.7417C70.2641 47.6525 70.1989 47.5565 70.1989 47.4536V45.0146C70.1989 44.7265 70.1166 44.5001 69.952 44.3354C69.7873 44.1639 69.5918 44.0782 69.3654 44.0782C69.1458 44.0782 68.9537 44.1639 68.7891 44.3354C68.6313 44.5001 68.5524 44.7231 68.5524 45.0043V47.4639C68.5524 47.6011 68.4872 47.704 68.3569 47.7726C68.2265 47.8412 68.0687 47.8755 67.8835 47.8755C67.712 47.8755 67.5576 47.8412 67.4204 47.7726C67.2901 47.6971 67.2249 47.5942 67.2249 47.4639V45.0146C67.2249 44.7402 67.1391 44.5172 66.9676 44.3457C66.803 44.1742 66.6074 44.0885 66.381 44.0885C66.1615 44.0885 65.9728 44.1708 65.815 44.3354C65.6572 44.5001 65.5783 44.7265 65.5783 45.0146V47.4536C65.5783 47.5565 65.5097 47.6525 65.3725 47.7417C65.2422 47.8309 65.0878 47.8755 64.9094 47.8755C64.7242 47.8755 64.5664 47.8343 64.4361 47.752C64.3126 47.6628 64.2508 47.5633 64.2508 47.4536ZM72.5219 49.7278V43.399C72.5219 43.2755 72.5803 43.176 72.6969 43.1005C72.8204 43.0251 72.9713 42.9873 73.1497 42.9873C73.3281 42.9873 73.4756 43.0251 73.5922 43.1005C73.7088 43.176 73.7671 43.2755 73.7671 43.399V43.7077C73.8975 43.4882 74.0827 43.3029 74.3228 43.152C74.5698 43.0011 74.8477 42.9256 75.1564 42.9256C75.6709 42.9256 76.1066 43.1314 76.4633 43.543C76.8201 43.9478 76.9985 44.4383 76.9985 45.0146V45.8585C76.9985 46.4142 76.8167 46.9047 76.453 47.3301C76.0894 47.7554 75.6709 47.9681 75.1976 47.9681C74.9026 47.9681 74.6281 47.8892 74.3743 47.7314C74.1273 47.5668 73.9524 47.3747 73.8495 47.1551V49.7278C73.8495 49.8376 73.7809 49.9337 73.6436 50.016C73.5133 50.1052 73.3555 50.1498 73.1703 50.1498C72.985 50.1498 72.8307 50.1052 72.7072 50.016C72.5837 49.9337 72.5219 49.8376 72.5219 49.7278ZM73.8495 46.0437C73.8495 46.1809 73.9421 46.3422 74.1273 46.5274C74.3126 46.7126 74.5218 46.8052 74.7551 46.8052C74.9952 46.8052 75.2079 46.7092 75.3931 46.5171C75.5783 46.3181 75.6709 46.0986 75.6709 45.8585V45.0146C75.6709 44.7745 75.5783 44.5618 75.3931 44.3766C75.2079 44.1845 74.9883 44.0885 74.7345 44.0885C74.5012 44.0885 74.2954 44.1742 74.117 44.3457C73.9386 44.5172 73.8495 44.7402 73.8495 45.0146V46.0437ZM77.848 47.4536V43.399C77.848 43.2755 77.9063 43.176 78.023 43.1005C78.1465 43.0251 78.3043 42.9873 78.4963 42.9873C78.6679 42.9873 78.8085 43.0251 78.9183 43.1005C79.0349 43.176 79.0932 43.2755 79.0932 43.399V43.8209C79.203 43.5808 79.3745 43.3715 79.6078 43.1931C79.841 43.0148 80.0914 42.9256 80.359 42.9256H80.678C80.8015 42.9256 80.9113 42.9839 81.0073 43.1005C81.1102 43.2172 81.1617 43.3509 81.1617 43.5019C81.1617 43.6597 81.1102 43.7969 81.0073 43.9135C80.9113 44.0301 80.8015 44.0885 80.678 44.0885H80.359C80.0434 44.0885 79.7656 44.2291 79.5254 44.5104C79.2922 44.7917 79.1755 45.1587 79.1755 45.6115V47.4536C79.1755 47.5565 79.1069 47.6525 78.9697 47.7417C78.8325 47.8309 78.6747 47.8755 78.4963 47.8755C78.3111 47.8755 78.1567 47.8343 78.0333 47.752C77.9098 47.6628 77.848 47.5633 77.848 47.4536ZM81.4415 45.8585V45.0146C81.4415 44.4521 81.661 43.965 82.1001 43.5533C82.5392 43.1348 83.064 42.9256 83.6746 42.9256C84.2714 42.9256 84.7928 43.1314 85.2388 43.543C85.6847 43.9547 85.9077 44.4452 85.9077 45.0146V45.8585C85.9077 46.4142 85.6847 46.9047 85.2388 47.3301C84.7928 47.7554 84.2714 47.9681 83.6746 47.9681C83.0777 47.9681 82.5563 47.7554 82.1104 47.3301C81.6644 46.9047 81.4415 46.4142 81.4415 45.8585ZM82.769 45.8585C82.769 46.1055 82.8582 46.325 83.0365 46.5171C83.2149 46.7092 83.4276 46.8052 83.6746 46.8052C83.9147 46.8052 84.1239 46.7092 84.3023 46.5171C84.4876 46.325 84.5802 46.1055 84.5802 45.8585V45.0146C84.5802 44.7814 84.4876 44.5687 84.3023 44.3766C84.1239 44.1845 83.9147 44.0885 83.6746 44.0885C83.4276 44.0885 83.2149 44.1845 83.0365 44.3766C82.8582 44.5618 82.769 44.7745 82.769 45.0146V45.8585ZM86.259 43.4916C86.259 43.3475 86.3585 43.2172 86.5575 43.1005C86.7633 42.9839 86.9588 42.9256 87.144 42.9256C87.343 42.9256 87.4733 43.0011 87.5351 43.152L88.6774 46.1363L89.8197 43.1726C89.8814 43.0079 90.0083 42.9256 90.2004 42.9256C90.3651 42.9256 90.5537 42.9873 90.7664 43.1108C90.9791 43.2275 91.0854 43.3578 91.0854 43.5019C91.0854 43.5636 91.0717 43.6219 91.0443 43.6768L89.2845 47.752C89.2091 47.9098 89.0067 47.9887 88.6774 47.9887C88.3481 47.9887 88.1491 47.9098 88.0805 47.752L86.3105 43.6768C86.2762 43.6288 86.259 43.567 86.259 43.4916ZM91.4409 45.8585V44.9838C91.4409 44.4212 91.6604 43.9375 92.0995 43.5327C92.5386 43.128 93.0703 42.9256 93.6946 42.9256C94.2777 42.9256 94.7751 43.1108 95.1867 43.4813C95.6052 43.8449 95.8145 44.3046 95.8145 44.8603C95.8145 45.0661 95.787 45.2376 95.7322 45.3748C95.6841 45.5052 95.6052 45.5978 95.4955 45.6527C95.3926 45.7075 95.2965 45.7419 95.2073 45.7556C95.1181 45.7693 95.0015 45.7762 94.8574 45.7762H92.7684V45.9305C92.7684 46.2255 92.8782 46.4656 93.0977 46.6509C93.3172 46.8293 93.6088 46.9184 93.9724 46.9184C94.2331 46.9184 94.4904 46.8533 94.7442 46.7229C94.9981 46.5926 95.1627 46.5274 95.2382 46.5274C95.3823 46.5274 95.5023 46.596 95.5984 46.7332C95.6944 46.8636 95.7424 46.9905 95.7424 47.114C95.7424 47.3061 95.5675 47.4982 95.2176 47.6903C94.8746 47.8755 94.4458 47.9681 93.9313 47.9681C93.1972 47.9681 92.5969 47.776 92.1304 47.3918C91.6707 47.0008 91.4409 46.4897 91.4409 45.8585ZM92.7684 44.994H94.2709C94.3806 44.994 94.4561 44.9769 94.4973 44.9426C94.5453 44.9014 94.5693 44.826 94.5693 44.7162C94.5693 44.4761 94.4801 44.2805 94.3017 44.1296C94.1302 43.9787 93.9175 43.9032 93.6637 43.9032C93.4236 43.9032 93.2143 43.9787 93.036 44.1296C92.8576 44.2737 92.7684 44.4658 92.7684 44.7059V44.994ZM96.6107 47.4536V43.399C96.6107 43.2755 96.6691 43.176 96.7857 43.1005C96.9092 43.0251 97.0704 42.9873 97.2694 42.9873C97.434 42.9873 97.5712 43.0251 97.681 43.1005C97.7976 43.176 97.8559 43.2755 97.8559 43.399V43.7077C98.1509 43.1863 98.6037 42.9256 99.2143 42.9256C99.5025 42.9256 99.7597 43.0216 99.9861 43.2137C100.219 43.399 100.391 43.6459 100.501 43.9547C100.672 43.6185 100.895 43.3647 101.17 43.1931C101.451 43.0148 101.746 42.9256 102.055 42.9256C102.549 42.9256 102.977 43.1143 103.341 43.4916C103.705 43.8689 103.886 44.3766 103.886 45.0146V47.4536C103.886 47.5565 103.818 47.6525 103.681 47.7417C103.55 47.8309 103.396 47.8755 103.217 47.8755C103.046 47.8755 102.892 47.8309 102.754 47.7417C102.624 47.6525 102.559 47.5565 102.559 47.4536V45.0146C102.559 44.7265 102.477 44.5001 102.312 44.3354C102.147 44.1639 101.952 44.0782 101.725 44.0782C101.506 44.0782 101.314 44.1639 101.149 44.3354C100.991 44.5001 100.912 44.7231 100.912 45.0043V47.4639C100.912 47.6011 100.847 47.704 100.717 47.7726C100.586 47.8412 100.429 47.8755 100.243 47.8755C100.072 47.8755 99.9175 47.8412 99.7803 47.7726C99.65 47.6971 99.5848 47.5942 99.5848 47.4639V45.0146C99.5848 44.7402 99.499 44.5172 99.3275 44.3457C99.1629 44.1742 98.9673 44.0885 98.7409 44.0885C98.5214 44.0885 98.3327 44.1708 98.175 44.3354C98.0172 44.5001 97.9383 44.7265 97.9383 45.0146V47.4536C97.9383 47.5565 97.8697 47.6525 97.7324 47.7417C97.6021 47.8309 97.4477 47.8755 97.2694 47.8755C97.0841 47.8755 96.9263 47.8343 96.796 47.752C96.6725 47.6628 96.6107 47.5633 96.6107 47.4536ZM104.686 45.8585V44.9838C104.686 44.4212 104.906 43.9375 105.345 43.5327C105.784 43.128 106.316 42.9256 106.94 42.9256C107.523 42.9256 108.021 43.1108 108.432 43.4813C108.851 43.8449 109.06 44.3046 109.06 44.8603C109.06 45.0661 109.033 45.2376 108.978 45.3748C108.93 45.5052 108.851 45.5978 108.741 45.6527C108.638 45.7075 108.542 45.7419 108.453 45.7556C108.364 45.7693 108.247 45.7762 108.103 45.7762H106.014V45.9305C106.014 46.2255 106.124 46.4656 106.343 46.6509C106.563 46.8293 106.854 46.9184 107.218 46.9184C107.479 46.9184 107.736 46.8533 107.99 46.7229C108.244 46.5926 108.408 46.5274 108.484 46.5274C108.628 46.5274 108.748 46.596 108.844 46.7332C108.94 46.8636 108.988 46.9905 108.988 47.114C108.988 47.3061 108.813 47.4982 108.463 47.6903C108.12 47.8755 107.691 47.9681 107.177 47.9681C106.443 47.9681 105.842 47.776 105.376 47.3918C104.916 47.0008 104.686 46.4897 104.686 45.8585ZM106.014 44.994H107.516C107.626 44.994 107.702 44.9769 107.743 44.9426C107.791 44.9014 107.815 44.826 107.815 44.7162C107.815 44.4761 107.726 44.2805 107.547 44.1296C107.376 43.9787 107.163 43.9032 106.909 43.9032C106.669 43.9032 106.46 43.9787 106.281 44.1296C106.103 44.2737 106.014 44.4658 106.014 44.7059V44.994ZM109.856 47.4536V43.399C109.856 43.2755 109.915 43.176 110.031 43.1005C110.155 43.0251 110.316 42.9873 110.515 42.9873C110.679 42.9873 110.817 43.0251 110.926 43.1005C111.043 43.176 111.101 43.2755 111.101 43.399V43.7077C111.211 43.4882 111.386 43.3029 111.626 43.152C111.873 43.0011 112.158 42.9256 112.48 42.9256C112.954 42.9256 113.365 43.1314 113.715 43.543C114.072 43.9547 114.25 44.4452 114.25 45.0146V47.4536C114.25 47.5839 114.182 47.6868 114.045 47.7623C113.914 47.8378 113.76 47.8755 113.581 47.8755C113.41 47.8755 113.256 47.8378 113.118 47.7623C112.988 47.6868 112.923 47.5839 112.923 47.4536V45.0146C112.923 44.7745 112.834 44.5618 112.655 44.3766C112.477 44.1845 112.268 44.0885 112.028 44.0885C111.801 44.0885 111.602 44.1742 111.431 44.3457C111.266 44.5172 111.184 44.7402 111.184 45.0146V47.4536C111.184 47.5565 111.115 47.6525 110.978 47.7417C110.848 47.8309 110.693 47.8755 110.515 47.8755C110.33 47.8755 110.172 47.8343 110.041 47.752C109.918 47.6628 109.856 47.5633 109.856 47.4536ZM115.233 46.2084V41.2173C115.233 41.1007 115.301 41.0046 115.438 40.9292C115.576 40.8468 115.726 40.8057 115.891 40.8057C116.07 40.8057 116.224 40.8468 116.354 40.9292C116.491 41.0046 116.56 41.1007 116.56 41.2173V42.9873H117.774C117.877 42.9873 117.96 43.0354 118.021 43.1314C118.083 43.2275 118.114 43.3407 118.114 43.471C118.114 43.6014 118.083 43.7146 118.021 43.8106C117.96 43.9066 117.877 43.9547 117.774 43.9547H116.56V46.2084C116.56 46.4073 116.601 46.548 116.684 46.6303C116.773 46.7126 116.924 46.7538 117.136 46.7538H117.538C117.716 46.7538 117.853 46.8087 117.949 46.9184C118.052 47.0282 118.104 47.1586 118.104 47.3095C118.104 47.4673 118.052 47.6011 117.949 47.7108C117.853 47.8206 117.716 47.8755 117.538 47.8755H117.136C115.867 47.8755 115.233 47.3198 115.233 46.2084ZM7.76786 58.8585V58.0352C7.76786 57.404 7.95309 56.8964 8.32356 56.5122C8.69403 56.1211 9.24974 55.9256 9.99068 55.9256C10.4572 55.9256 10.8483 56.0079 11.1638 56.1726C11.4794 56.3372 11.6372 56.5225 11.6372 56.7283C11.6372 56.8723 11.5858 57.0164 11.4829 57.1605C11.3799 57.3046 11.2565 57.3766 11.1124 57.3766C11.0712 57.3766 10.9477 57.3286 10.7419 57.2325C10.543 57.1365 10.3269 57.0885 10.0936 57.0885C9.42812 57.0885 9.09538 57.404 9.09538 58.0352V58.8585C9.09538 59.4897 9.43155 59.8052 10.1039 59.8052C10.3371 59.8052 10.5532 59.7538 10.7522 59.6509C10.9512 59.548 11.0781 59.4965 11.133 59.4965C11.2976 59.4965 11.4314 59.5651 11.5343 59.7023C11.6441 59.8395 11.699 59.9802 11.699 60.1243C11.699 60.3369 11.5309 60.5325 11.1947 60.7108C10.8654 60.8823 10.4675 60.9681 10.001 60.9681C9.25317 60.9681 8.69403 60.776 8.32356 60.3918C7.95309 60.0076 7.76786 59.4965 7.76786 58.8585ZM12.1064 59.5994C12.1064 59.0437 12.3122 58.6527 12.7239 58.4263C13.1355 58.1999 13.7289 58.0867 14.5042 58.0867H14.9261V57.9529C14.9261 57.699 14.8506 57.4795 14.6997 57.2943C14.5556 57.1022 14.3292 57.0061 14.0205 57.0061C13.7118 57.0061 13.4477 57.061 13.2281 57.1708C13.0086 57.2737 12.8817 57.3251 12.8474 57.3251C12.7101 57.3251 12.6004 57.2565 12.5181 57.1193C12.4357 56.9821 12.3946 56.8312 12.3946 56.6665C12.3946 56.4676 12.5695 56.2961 12.9194 56.152C13.2761 56.0011 13.65 55.9256 14.0411 55.9256C14.7889 55.9256 15.3446 56.1177 15.7082 56.5019C16.0718 56.8792 16.2536 57.356 16.2536 57.9323V60.4536C16.2536 60.5702 16.1919 60.6697 16.0684 60.752C15.9449 60.8343 15.7905 60.8755 15.6053 60.8755C15.4338 60.8755 15.2897 60.8343 15.1731 60.752C15.0633 60.6697 15.0084 60.5702 15.0084 60.4536V60.1551C14.5351 60.6971 14.0137 60.9681 13.4442 60.9681C13.0532 60.9681 12.7307 60.8515 12.4769 60.6182C12.2299 60.385 12.1064 60.0454 12.1064 59.5994ZM13.4339 59.4245C13.4339 59.6097 13.482 59.7504 13.578 59.8464C13.6809 59.9356 13.8147 59.9802 13.9794 59.9802C14.1989 59.9802 14.4116 59.8773 14.6174 59.6715C14.8232 59.4656 14.9261 59.2392 14.9261 58.9923V58.7762H14.7717C14.3533 58.7762 14.0239 58.8207 13.7838 58.9099C13.5506 58.9923 13.4339 59.1638 13.4339 59.4245ZM17.2282 59.2084V54.2173C17.2282 54.1007 17.2968 54.0046 17.434 53.9292C17.5712 53.8468 17.7222 53.8057 17.8868 53.8057C18.0652 53.8057 18.2196 53.8468 18.3499 53.9292C18.4871 54.0046 18.5557 54.1007 18.5557 54.2173V55.9873H19.7701C19.873 55.9873 19.9553 56.0354 20.017 56.1314C20.0788 56.2275 20.1096 56.3407 20.1096 56.471C20.1096 56.6014 20.0788 56.7146 20.017 56.8106C19.9553 56.9066 19.873 56.9547 19.7701 56.9547H18.5557V59.2084C18.5557 59.4073 18.5969 59.548 18.6792 59.6303C18.7684 59.7126 18.9193 59.7538 19.132 59.7538H19.5334C19.7117 59.7538 19.8489 59.8087 19.945 59.9184C20.0479 60.0282 20.0994 60.1586 20.0994 60.3095C20.0994 60.4673 20.0479 60.6011 19.945 60.7108C19.8489 60.8206 19.7117 60.8755 19.5334 60.8755H19.132C17.8628 60.8755 17.2282 60.3198 17.2282 59.2084ZM20.5706 58.8585V57.9838C20.5706 57.4212 20.7902 56.9375 21.2293 56.5327C21.6683 56.128 22.2 55.9256 22.8243 55.9256C23.4075 55.9256 23.9049 56.1108 24.3165 56.4813C24.735 56.8449 24.9443 57.3046 24.9443 57.8603C24.9443 58.0661 24.9168 58.2376 24.8619 58.3748C24.8139 58.5052 24.735 58.5978 24.6252 58.6527C24.5223 58.7075 24.4263 58.7419 24.3371 58.7556C24.2479 58.7693 24.1313 58.7762 23.9872 58.7762H21.8982V58.9305C21.8982 59.2255 22.0079 59.4656 22.2275 59.6509C22.447 59.8293 22.7386 59.9184 23.1022 59.9184C23.3629 59.9184 23.6202 59.8533 23.874 59.7229C24.1279 59.5926 24.2925 59.5274 24.368 59.5274C24.512 59.5274 24.6321 59.596 24.7282 59.7332C24.8242 59.8636 24.8722 59.9905 24.8722 60.114C24.8722 60.3061 24.6973 60.4982 24.3474 60.6903C24.0044 60.8755 23.5756 60.9681 23.061 60.9681C22.327 60.9681 21.7267 60.776 21.2601 60.3918C20.8005 60.0008 20.5706 59.4897 20.5706 58.8585ZM21.8982 57.994H23.4006C23.5104 57.994 23.5859 57.9769 23.627 57.9426C23.6751 57.9014 23.6991 57.826 23.6991 57.7162C23.6991 57.4761 23.6099 57.2805 23.4315 57.1296C23.26 56.9787 23.0473 56.9032 22.7935 56.9032C22.5534 56.9032 22.3441 56.9787 22.1657 57.1296C21.9874 57.2737 21.8982 57.4658 21.8982 57.7059V57.994ZM25.3803 61.6988C25.3803 61.2254 25.6307 60.8618 26.1316 60.6079C25.8434 60.4707 25.6994 60.2512 25.6994 59.9493C25.6994 59.6474 25.8743 59.3799 26.2242 59.1466C25.7988 58.8173 25.5862 58.3817 25.5862 57.8397V57.6236C25.5862 57.1228 25.7714 56.7146 26.1419 56.399C26.5123 56.0834 26.996 55.9256 27.5929 55.9256C28.0457 55.9256 28.4367 56.0251 28.766 56.224C28.9718 55.7575 29.1811 55.5242 29.3938 55.5242C29.5516 55.5242 29.6785 55.5688 29.7745 55.658C29.8706 55.7472 29.9186 55.8398 29.9186 55.9359C29.9186 56.0456 29.8637 56.1417 29.7539 56.224C29.5001 56.4024 29.3389 56.5327 29.2703 56.6151C29.5104 56.8964 29.6305 57.2325 29.6305 57.6236V57.8397C29.6305 58.3336 29.4384 58.7453 29.0542 59.0746C28.6768 59.397 28.1897 59.5583 27.5929 59.5583C27.3459 59.5583 27.1229 59.5274 26.924 59.4656C26.8416 59.5342 26.8005 59.6029 26.8005 59.6715C26.8005 59.7881 26.9068 59.8738 27.1195 59.9287C27.3322 59.9836 27.5894 60.0316 27.8913 60.0728C28.2 60.1071 28.5053 60.162 28.8072 60.2375C29.1091 60.3061 29.3663 60.4501 29.579 60.6697C29.7917 60.8892 29.898 61.1774 29.898 61.5341C29.898 62.0692 29.6819 62.4706 29.2497 62.7381C28.8175 63.0126 28.2858 63.1498 27.6546 63.1498C27.0166 63.1498 26.478 63.0194 26.0389 62.7587C25.5999 62.498 25.3803 62.1447 25.3803 61.6988ZM26.6358 61.565C26.6358 61.7914 26.7319 61.9697 26.924 62.1001C27.1161 62.2305 27.3527 62.2956 27.634 62.2956C27.9153 62.2956 28.1486 62.2305 28.3338 62.1001C28.519 61.9697 28.6117 61.7948 28.6117 61.5753C28.6117 61.4792 28.5945 61.3935 28.5602 61.318C28.5259 61.2494 28.4642 61.1911 28.375 61.1431C28.2926 61.095 28.2172 61.0539 28.1486 61.0196C28.0868 60.9921 27.9839 60.9647 27.8398 60.9372C27.6958 60.9167 27.5894 60.9029 27.5208 60.8961C27.4591 60.8892 27.3493 60.8755 27.1915 60.8549C26.8211 61.0264 26.6358 61.2631 26.6358 61.565ZM26.8725 57.8294C26.8725 58.097 26.9377 58.3199 27.068 58.4983C27.1984 58.6698 27.3802 58.7556 27.6134 58.7556C27.8398 58.7556 28.0182 58.6732 28.1486 58.5086C28.2789 58.3371 28.3441 58.1141 28.3441 57.8397V57.6236C28.3441 57.3697 28.2755 57.1571 28.1383 56.9855C28.0079 56.814 27.8296 56.7283 27.6032 56.7283C27.3768 56.7283 27.1984 56.814 27.068 56.9855C26.9377 57.1502 26.8725 57.3629 26.8725 57.6236V57.8294ZM30.3892 58.8585V58.0146C30.3892 57.4521 30.6087 56.965 31.0478 56.5533C31.4869 56.1348 32.0117 55.9256 32.6223 55.9256C33.2192 55.9256 33.7406 56.1314 34.1865 56.543C34.6324 56.9547 34.8554 57.4452 34.8554 58.0146V58.8585C34.8554 59.4142 34.6324 59.9047 34.1865 60.3301C33.7406 60.7554 33.2192 60.9681 32.6223 60.9681C32.0254 60.9681 31.504 60.7554 31.0581 60.3301C30.6121 59.9047 30.3892 59.4142 30.3892 58.8585ZM31.7167 58.8585C31.7167 59.1055 31.8059 59.325 31.9843 59.5171C32.1626 59.7092 32.3753 59.8052 32.6223 59.8052C32.8624 59.8052 33.0717 59.7092 33.25 59.5171C33.4353 59.325 33.5279 59.1055 33.5279 58.8585V58.0146C33.5279 57.7814 33.4353 57.5687 33.25 57.3766C33.0717 57.1845 32.8624 57.0885 32.6223 57.0885C32.3753 57.0885 32.1626 57.1845 31.9843 57.3766C31.8059 57.5618 31.7167 57.7745 31.7167 58.0146V58.8585ZM35.6997 60.4536V56.399C35.6997 56.2755 35.758 56.176 35.8747 56.1005C35.9982 56.0251 36.156 55.9873 36.3481 55.9873C36.5196 55.9873 36.6602 56.0251 36.77 56.1005C36.8866 56.176 36.9449 56.2755 36.9449 56.399V56.8209C37.0547 56.5808 37.2262 56.3715 37.4595 56.1931C37.6927 56.0148 37.9431 55.9256 38.2107 55.9256H38.5297C38.6532 55.9256 38.763 55.9839 38.859 56.1005C38.9619 56.2172 39.0134 56.3509 39.0134 56.5019C39.0134 56.6597 38.9619 56.7969 38.859 56.9135C38.763 57.0301 38.6532 57.0885 38.5297 57.0885H38.2107C37.8951 57.0885 37.6173 57.2291 37.3771 57.5104C37.1439 57.7917 37.0273 58.1587 37.0273 58.6115V60.4536C37.0273 60.5565 36.9586 60.6525 36.8214 60.7417C36.6842 60.8309 36.5264 60.8755 36.3481 60.8755C36.1628 60.8755 36.0085 60.8343 35.885 60.752C35.7615 60.6628 35.6997 60.5633 35.6997 60.4536ZM39.5069 54.2482C39.5069 54.0698 39.5755 53.9189 39.7127 53.7954C39.8568 53.665 40.0317 53.5999 40.2375 53.5999C40.4365 53.5999 40.6046 53.665 40.7418 53.7954C40.8858 53.9189 40.9579 54.0698 40.9579 54.2482C40.9579 54.4197 40.8858 54.5706 40.7418 54.701C40.6046 54.8313 40.4365 54.8965 40.2375 54.8965C40.0317 54.8965 39.8568 54.8313 39.7127 54.701C39.5755 54.5706 39.5069 54.4197 39.5069 54.2482ZM39.5789 60.4536V56.399C39.5789 56.2755 39.6406 56.176 39.7641 56.1005C39.8876 56.0251 40.0454 55.9873 40.2375 55.9873C40.4296 55.9873 40.5874 56.0251 40.7109 56.1005C40.8412 56.176 40.9064 56.2755 40.9064 56.399V60.4536C40.9064 60.5565 40.8378 60.6525 40.7006 60.7417C40.5703 60.8309 40.4159 60.8755 40.2375 60.8755C40.0523 60.8755 39.8945 60.8343 39.7641 60.752C39.6406 60.6628 39.5789 60.5633 39.5789 60.4536ZM41.7453 58.8585V57.9838C41.7453 57.4212 41.9648 56.9375 42.4039 56.5327C42.843 56.128 43.3747 55.9256 43.999 55.9256C44.5821 55.9256 45.0795 56.1108 45.4912 56.4813C45.9097 56.8449 46.1189 57.3046 46.1189 57.8603C46.1189 58.0661 46.0915 58.2376 46.0366 58.3748C45.9886 58.5052 45.9097 58.5978 45.7999 58.6527C45.697 58.7075 45.6009 58.7419 45.5117 58.7556C45.4226 58.7693 45.3059 58.7762 45.1619 58.7762H43.0728V58.9305C43.0728 59.2255 43.1826 59.4656 43.4021 59.6509C43.6217 59.8293 43.9132 59.9184 44.2768 59.9184C44.5375 59.9184 44.7948 59.8533 45.0487 59.7229C45.3025 59.5926 45.4671 59.5274 45.5426 59.5274C45.6867 59.5274 45.8067 59.596 45.9028 59.7332C45.9988 59.8636 46.0469 59.9905 46.0469 60.114C46.0469 60.3061 45.8719 60.4982 45.522 60.6903C45.179 60.8755 44.7502 60.9681 44.2357 60.9681C43.5016 60.9681 42.9013 60.776 42.4348 60.3918C41.9751 60.0008 41.7453 59.4897 41.7453 58.8585ZM43.0728 57.994H44.5753C44.685 57.994 44.7605 57.9769 44.8017 57.9426C44.8497 57.9014 44.8737 57.826 44.8737 57.7162C44.8737 57.4761 44.7845 57.2805 44.6061 57.1296C44.4346 56.9787 44.222 56.9032 43.9681 56.9032C43.728 56.9032 43.5187 56.9787 43.3404 57.1296C43.162 57.2737 43.0728 57.4658 43.0728 57.7059V57.994ZM46.6373 60.0831C46.6373 59.9596 46.6819 59.8327 46.7711 59.7023C46.8603 59.5651 46.9632 59.4965 47.0798 59.4965C47.1553 59.4965 47.2479 59.5342 47.3577 59.6097C47.4743 59.6852 47.6252 59.7641 47.8105 59.8464C47.9957 59.9219 48.2152 59.9596 48.4691 59.9596C48.9699 59.9596 49.2203 59.8121 49.2203 59.5171C49.2203 59.3524 49.1345 59.2221 48.963 59.126C48.7984 59.03 48.596 58.9511 48.3559 58.8894C48.1226 58.8276 47.8859 58.7556 47.6458 58.6732C47.4057 58.5841 47.1999 58.44 47.0284 58.241C46.8637 58.0352 46.7814 57.7745 46.7814 57.4589C46.7814 57.0404 46.9289 56.6802 47.2239 56.3784C47.5189 56.0765 47.9854 55.9256 48.6234 55.9256C49.0488 55.9256 49.4261 55.9908 49.7554 56.1211C50.0916 56.2515 50.2597 56.4093 50.2597 56.5945C50.2597 56.7111 50.2117 56.8483 50.1156 57.0061C50.0264 57.1571 49.9132 57.2325 49.776 57.2325C49.7211 57.2325 49.5702 57.1845 49.3232 57.0885C49.0831 56.9855 48.8567 56.9341 48.644 56.9341C48.4108 56.9341 48.2324 56.9821 48.1089 57.0782C47.9854 57.1742 47.9237 57.2805 47.9237 57.3972C47.9237 57.5138 47.9854 57.6099 48.1089 57.6853C48.2324 57.7608 48.3833 57.8191 48.5617 57.8603C48.7469 57.9014 48.9459 57.9597 49.1586 58.0352C49.3712 58.1038 49.5668 58.1861 49.7451 58.2822C49.9304 58.3782 50.0847 58.5292 50.2082 58.735C50.3317 58.9339 50.3935 59.1775 50.3935 59.4656C50.3935 59.9322 50.2254 60.2992 49.8892 60.5668C49.5599 60.8343 49.0968 60.9681 48.4999 60.9681C47.9854 60.9681 47.5463 60.8789 47.1827 60.7005C46.8191 60.5222 46.6373 60.3164 46.6373 60.0831Z" fill="white"/>
<defs>
<linearGradient id="paint0_linear" x1="81.0303" y1="7.56449e-06" x2="56.7748" y2="288.58" gradientUnits="userSpaceOnUse">
<stop stop-color="#5464BD" stop-opacity="0.34"/>
<stop offset="0.460316" stop-color="#477DDE"/>
<stop offset="0.905036" stop-color="#477DDE" stop-opacity="0"/>
</linearGradient>
<linearGradient id="paint1_linear" x1="17.7087" y1="108.054" x2="144.629" y2="108.054" gradientUnits="userSpaceOnUse">
<stop stop-color="#FFA113"/>
<stop offset="1" stop-color="#FEE140"/>
</linearGradient>
<linearGradient id="paint2_linear" x1="17.7087" y1="84.042" x2="144.629" y2="84.042" gradientUnits="userSpaceOnUse">
<stop stop-color="#FF4453"/>
<stop offset="1" stop-color="#FFA29E"/>
</linearGradient>
<linearGradient id="paint3_linear" x1="17.7087" y1="132.066" x2="144.629" y2="132.066" gradientUnits="userSpaceOnUse">
<stop stop-color="#4FACFE"/>
<stop offset="1" stop-color="#00F2FE"/>
</linearGradient>
<linearGradient id="paint4_linear" x1="17.7087" y1="156.078" x2="144.629" y2="156.078" gradientUnits="userSpaceOnUse">
<stop stop-color="#FFDA58"/>
<stop offset="1" stop-color="#D0FF4A"/>
</linearGradient>
<linearGradient id="paint5_linear" x1="17.7087" y1="180.09" x2="144.629" y2="180.09" gradientUnits="userSpaceOnUse">
<stop stop-color="#00E3AE"/>
<stop offset="1" stop-color="#9BE15D"/>
</linearGradient>
<linearGradient id="paint6_linear" x1="17.7087" y1="204.102" x2="144.629" y2="204.102" gradientUnits="userSpaceOnUse">
<stop stop-color="#6A11CB"/>
<stop offset="1" stop-color="#2575FC"/>
</linearGradient>
</defs>
</svg>
