<svg width="120" height="36" viewBox="0 0 120 36" fill="none" xmlns="http://www.w3.org/2000/svg">
<g clip-path="url(#clip0)">
<path d="M115.556 35.5627H4.44444C1.95556 35.5627 0 33.6071 0 31.1182V4.45156C0 1.96267 1.95556 0.0071106 4.44444 0.0071106H115.556C118.044 0.0071106 120 1.96267 120 4.45156V31.1182C120 33.6071 118.044 35.5627 115.556 35.5627Z" fill="black"/>
<path d="M115.556 0.718222C117.6 0.718222 119.289 2.40711 119.289 4.45156V31.1182C119.289 33.1627 117.6 34.8516 115.556 34.8516H4.44444C2.4 34.8516 0.711111 33.1627 0.711111 31.1182V4.45156C0.711111 2.40711 2.4 0.718222 4.44444 0.718222H115.556ZM115.556 0.0071106H4.44444C1.95556 0.0071106 0 2.05156 0 4.45156V31.1182C0 33.6071 1.95556 35.5627 4.44444 35.5627H115.556C118.044 35.5627 120 33.6071 120 31.1182V4.45156C120 2.05156 118.044 0.0071106 115.556 0.0071106Z" fill="black"/>
<path d="M60.5334 19.384C58.4001 19.384 56.7112 20.984 56.7112 23.2063C56.7112 25.3396 58.4001 27.0285 60.5334 27.0285C62.6668 27.0285 64.3557 25.4285 64.3557 23.2063C64.3557 20.8952 62.6668 19.384 60.5334 19.384ZM60.5334 25.4285C59.3779 25.4285 58.4001 24.4507 58.4001 23.1174C58.4001 21.784 59.3779 20.8063 60.5334 20.8063C61.689 20.8063 62.6668 21.6952 62.6668 23.1174C62.6668 24.4507 61.689 25.4285 60.5334 25.4285ZM52.2668 19.384C50.1334 19.384 48.4446 20.984 48.4446 23.2063C48.4446 25.3396 50.1334 27.0285 52.2668 27.0285C54.4001 27.0285 56.089 25.4285 56.089 23.2063C56.089 20.8952 54.4001 19.384 52.2668 19.384ZM52.2668 25.4285C51.1112 25.4285 50.1335 24.4507 50.1335 23.1174C50.1335 21.784 51.1112 20.8063 52.2668 20.8063C53.4223 20.8063 54.4001 21.6952 54.4001 23.1174C54.4001 24.4507 53.4223 25.4285 52.2668 25.4285ZM42.4001 20.5396V22.1396H46.2223C46.1334 23.0285 45.7779 23.7396 45.3334 24.184C44.8001 24.7174 43.9112 25.3396 42.4001 25.3396C40.0001 25.3396 38.2223 23.4729 38.2223 21.0729C38.2223 18.6729 40.089 16.8063 42.4001 16.8063C43.6446 16.8063 44.6223 17.3396 45.3334 17.9618L46.489 16.8063C45.5112 15.9174 44.2668 15.2063 42.489 15.2063C39.289 15.2063 36.5334 17.8729 36.5334 21.0729C36.5334 24.2729 39.289 26.9396 42.489 26.9396C44.2668 26.9396 45.5112 26.4063 46.5779 25.2507C47.6446 24.184 48.0001 22.6729 48.0001 21.5174C48.0001 21.1618 48.0001 20.8063 47.9112 20.5396H42.4001V20.5396ZM82.7557 21.784C82.4001 20.8952 81.5112 19.384 79.5557 19.384C77.6001 19.384 76.0001 20.8952 76.0001 23.2063C76.0001 25.3396 77.6001 27.0285 79.7334 27.0285C81.4223 27.0285 82.489 25.9618 82.8446 25.3396L81.6001 24.4507C81.1557 25.0729 80.6223 25.5174 79.7334 25.5174C78.8446 25.5174 78.3112 25.1618 77.8668 24.3618L82.9335 22.2285L82.7557 21.784V21.784ZM77.6001 23.0285C77.6001 21.6063 78.7557 20.8063 79.5557 20.8063C80.1779 20.8063 80.8001 21.1618 80.9779 21.6063L77.6001 23.0285ZM73.4223 26.6729H75.1112V15.5618H73.4223V26.6729ZM70.7557 20.184C70.3112 19.7396 69.6001 19.2952 68.7112 19.2952C66.8446 19.2952 65.0668 20.984 65.0668 23.1174C65.0668 25.2507 66.7557 26.8507 68.7112 26.8507C69.6001 26.8507 70.3112 26.4063 70.6668 25.9618H70.7557V26.4952C70.7557 27.9174 69.9557 28.7174 68.7112 28.7174C67.7335 28.7174 67.0223 28.0063 66.8446 27.384L65.4223 28.0063C65.8668 28.984 66.9335 30.2285 68.8001 30.2285C70.7557 30.2285 72.3557 29.0729 72.3557 26.3174V19.5618H70.7557V20.184V20.184ZM68.8001 25.4285C67.6446 25.4285 66.6668 24.4507 66.6668 23.1174C66.6668 21.784 67.6446 20.8063 68.8001 20.8063C69.9557 20.8063 70.8446 21.784 70.8446 23.1174C70.8446 24.4507 69.9557 25.4285 68.8001 25.4285ZM90.489 15.5618H86.489V26.6729H88.1779V22.4952H90.489C92.3557 22.4952 94.1335 21.1618 94.1335 19.0285C94.1335 16.8952 92.3557 15.5618 90.489 15.5618V15.5618ZM90.5779 20.8952H88.1779V17.0729H90.5779C91.8223 17.0729 92.5335 18.1396 92.5335 18.9396C92.4446 19.9174 91.7335 20.8952 90.5779 20.8952ZM100.8 19.2952C99.5557 19.2952 98.3112 19.8285 97.8668 20.984L99.3779 21.6063C99.7335 20.984 100.267 20.8063 100.889 20.8063C101.778 20.8063 102.578 21.3396 102.667 22.2285V22.3174C102.4 22.1396 101.689 21.8729 100.978 21.8729C99.3779 21.8729 97.7779 22.7618 97.7779 24.3618C97.7779 25.8729 99.1112 26.8507 100.533 26.8507C101.689 26.8507 102.222 26.3174 102.667 25.784H102.756V26.6729H104.356V22.4063C104.178 20.4507 102.667 19.2952 100.8 19.2952V19.2952ZM100.622 25.4285C100.089 25.4285 99.289 25.1618 99.289 24.4507C99.289 23.5618 100.267 23.2952 101.067 23.2952C101.778 23.2952 102.133 23.4729 102.578 23.6507C102.4 24.7174 101.511 25.4285 100.622 25.4285V25.4285ZM109.956 19.5618L108.089 24.3618H108L106.045 19.5618H104.267L107.2 26.3174L105.511 30.0507H107.2L111.733 19.5618H109.956V19.5618ZM95.0223 26.6729H96.7112V15.5618H95.0223V26.6729Z" fill="white"/>
<path d="M9.24447 6.67294C8.9778 6.93961 8.88892 7.38405 8.88892 7.91739V27.5618C8.88892 28.0952 9.06669 28.5396 9.33336 28.8063L9.42225 28.8952L20.4445 17.8729V17.6952L9.24447 6.67294Z" fill="url(#paint0_linear)"/>
<path d="M23.9999 21.6063L20.3555 17.9618V17.6952L23.9999 14.0507L24.0888 14.1396L28.4444 16.6285C29.6888 17.3396 29.6888 18.4952 28.4444 19.2063L23.9999 21.6063V21.6063Z" fill="url(#paint1_linear)"/>
<path d="M24.0888 21.5174L20.3555 17.7841L9.24438 28.8952C9.68883 29.3396 10.3111 29.3396 11.1111 28.9841L24.0888 21.5174" fill="url(#paint2_linear)"/>
<path d="M24.0888 14.0507L11.1111 6.67294C10.3111 6.22849 9.68883 6.31738 9.24438 6.76183L20.3555 17.784L24.0888 14.0507V14.0507Z" fill="url(#paint3_linear)"/>
<path opacity="0.2" d="M23.9999 21.4285L11.1111 28.7174C10.3999 29.1618 9.77772 29.0729 9.33327 28.7174L9.24438 28.8063L9.33327 28.8952C9.77772 29.2507 10.3999 29.3396 11.1111 28.8952L23.9999 21.4285Z" fill="black"/>
<path opacity="0.2" d="M9.24447 28.7174C8.9778 28.4507 8.88892 28.0063 8.88892 27.4729V27.5618C8.88892 28.0952 9.06669 28.5396 9.33336 28.8063V28.7174H9.24447ZM28.4445 18.9396L24 21.4285L24.0889 21.5174L28.4445 19.0285C29.0667 18.6729 29.3334 18.2285 29.3334 17.7841C29.3334 18.2285 28.9778 18.5841 28.4445 18.9396V18.9396Z" fill="black"/>
<path opacity="0.2" d="M11.1111 6.76181L28.4445 16.6285C28.9778 16.984 29.3334 17.3396 29.3334 17.784C29.3334 17.3396 29.0667 16.8951 28.4445 16.5396L11.1111 6.67292C9.86669 5.96181 8.88892 6.49514 8.88892 7.91737V8.00626C8.88892 6.67292 9.86669 6.0507 11.1111 6.76181Z" fill="white"/>
<path d="M41.0666 10.8507C40.5332 11.384 39.911 11.6507 39.111 11.6507C38.311 11.6507 37.6888 11.384 37.1555 10.8507C36.6221 10.3174 36.3555 9.69514 36.3555 8.89514C36.3555 8.09514 36.6221 7.47292 37.1555 6.93959C37.6888 6.40625 38.311 6.13959 39.111 6.13959C39.911 6.13959 40.5332 6.40625 41.0666 6.93959C41.5999 7.47292 41.8666 8.09514 41.8666 8.89514C41.8666 9.69514 41.5999 10.3174 41.0666 10.8507ZM37.6888 10.4063C38.0444 10.7618 38.5777 11.0285 39.111 11.0285C39.6444 11.0285 40.1777 10.8507 40.5332 10.4063C40.8888 10.0507 41.1555 9.51736 41.1555 8.89514C41.1555 8.27292 40.9777 7.73959 40.5332 7.38403C40.1777 7.02848 39.6444 6.76181 39.111 6.76181C38.5777 6.76181 38.0444 6.93959 37.6888 7.38403C37.3332 7.73959 37.0666 8.27292 37.0666 8.89514C37.0666 9.51736 37.2444 10.0507 37.6888 10.4063ZM42.8444 11.5618V6.22848H43.6444L46.2221 10.4063V6.22848H46.9332V11.5618H46.2221L43.5555 7.20625V11.5618H42.8444ZM49.9555 11.5618H49.2444V6.8507H47.7332V6.22848H51.3777V6.8507H49.8666V11.5618H49.9555ZM52.3555 11.5618V6.22848H53.9555C54.7555 6.22848 55.4666 6.49514 55.911 6.93959C56.4444 7.47292 56.6221 8.09514 56.6221 8.89514C56.6221 9.69514 56.3555 10.3174 55.911 10.8507C55.3777 11.384 54.7555 11.5618 53.9555 11.5618H52.3555ZM52.9777 10.9396H53.9555C54.5777 10.9396 55.0221 10.7618 55.3777 10.4063C55.7332 10.0507 55.911 9.51736 55.911 8.89514C55.911 8.27292 55.7332 7.73959 55.3777 7.38403C55.0221 7.02848 54.4888 6.8507 53.9555 6.8507H52.9777V10.9396V10.9396ZM60.711 6.8507H58.311V8.53959H60.5332V9.16181H58.311V10.8507H60.711V11.5618H57.5999V6.22848H60.711V6.8507ZM65.7777 6.22848L63.8221 8.53959L65.9555 11.5618H65.1555L63.3777 9.07292L62.5777 10.0507V11.5618H61.8666V6.22848H62.5777V8.98403L64.8888 6.22848H65.7777ZM68.3555 11.5618V6.22848H69.0666V8.53959H71.7332V6.22848H72.4444V11.5618H71.7332V9.16181H69.0666V11.5618H68.3555ZM76.7999 6.8507H74.3999V8.53959H76.6221V9.16181H74.3999V10.8507H76.7999V11.5618H73.6888V6.22848H76.7999V6.8507ZM79.6444 11.5618H78.9332V6.8507H77.4221V6.22848H81.0666V6.8507H79.5555V11.5618H79.6444ZM88.0888 10.8507C87.5555 11.384 86.9332 11.6507 86.1332 11.6507C85.3332 11.6507 84.711 11.384 84.1777 10.8507C83.6444 10.3174 83.3777 9.69514 83.3777 8.89514C83.3777 8.09514 83.6444 7.47292 84.1777 6.93959C84.711 6.40625 85.3332 6.13959 86.1332 6.13959C86.9332 6.13959 87.5555 6.40625 88.0888 6.93959C88.6221 7.47292 88.8888 8.09514 88.8888 8.89514C88.8888 9.69514 88.6221 10.3174 88.0888 10.8507ZM84.711 10.4063C85.0666 10.7618 85.5999 11.0285 86.1332 11.0285C86.6666 11.0285 87.1999 10.8507 87.5555 10.4063C87.911 10.0507 88.1777 9.51736 88.1777 8.89514C88.1777 8.27292 87.9999 7.73959 87.5555 7.38403C87.1999 7.02848 86.6666 6.76181 86.1332 6.76181C85.5999 6.76181 85.0666 6.93959 84.711 7.38403C84.3555 7.73959 84.0888 8.27292 84.0888 8.89514C84.0888 9.51736 84.2666 10.0507 84.711 10.4063ZM90.4888 11.5618H89.7777V6.22848H91.5555C91.9999 6.22848 92.3555 6.40625 92.711 6.67292C93.0666 6.93959 93.2444 7.38403 93.2444 7.82848C93.2444 8.27292 93.0666 8.62848 92.711 8.98403C92.3555 9.2507 91.9999 9.42848 91.5555 9.42848H90.3999V11.5618H90.4888ZM90.4888 8.71736H91.6444C91.911 8.71736 92.1777 8.62848 92.3555 8.4507C92.5332 8.27292 92.6221 8.00625 92.6221 7.82848C92.6221 7.6507 92.5332 7.38403 92.3555 7.20625C92.1777 7.02848 91.911 6.93959 91.6444 6.93959H90.4888V8.71736Z" fill="white" stroke="white" stroke-width="0.177778" stroke-miterlimit="10"/>
</g>
<defs>
<linearGradient id="paint0_linear" x1="19.3778" y1="7.7485" x2="4.45958" y2="22.6658" gradientUnits="userSpaceOnUse">
<stop stop-color="#00A0FF"/>
<stop offset="0.007" stop-color="#00A1FF"/>
<stop offset="0.26" stop-color="#00BEFF"/>
<stop offset="0.512" stop-color="#00D2FF"/>
<stop offset="0.76" stop-color="#00DFFF"/>
<stop offset="1" stop-color="#00E3FF"/>
</linearGradient>
<linearGradient id="paint1_linear" x1="30.0746" y1="17.7849" x2="8.56614" y2="17.7849" gradientUnits="userSpaceOnUse">
<stop stop-color="#FFE000"/>
<stop offset="0.409" stop-color="#FFBD00"/>
<stop offset="0.775" stop-color="#FFA500"/>
<stop offset="1" stop-color="#FF9C00"/>
</linearGradient>
<linearGradient id="paint2_linear" x1="22.0684" y1="19.8249" x2="1.83905" y2="40.0543" gradientUnits="userSpaceOnUse">
<stop stop-color="#FF3A44"/>
<stop offset="1" stop-color="#C31162"/>
</linearGradient>
<linearGradient id="paint3_linear" x1="6.48616" y1="0.162716" x2="15.5199" y2="9.19649" gradientUnits="userSpaceOnUse">
<stop stop-color="#32A071"/>
<stop offset="0.069" stop-color="#2DA771"/>
<stop offset="0.476" stop-color="#15CF74"/>
<stop offset="0.801" stop-color="#06E775"/>
<stop offset="1" stop-color="#00F076"/>
</linearGradient>
<clipPath id="clip0">
<rect width="120" height="35.568" fill="white"/>
</clipPath>
</defs>
</svg>
