<svg width="161" height="286" viewBox="0 0 161 286" fill="none" xmlns="http://www.w3.org/2000/svg">
<rect width="160.795" height="286" fill="url(#paint0_linear)"/>
<path d="M60.789 112.763H58.7187V108.536H54.8396V112.763H52.7626V102.968H54.8396V106.807H58.7187V102.968H60.789V112.763ZM66.7579 106.586C66.3247 106.586 65.9852 106.725 65.7396 107.001C65.4939 107.274 65.3532 107.662 65.3175 108.167H68.185C68.176 107.662 68.0443 107.274 67.7897 107.001C67.5351 106.725 67.1912 106.586 66.7579 106.586ZM67.046 112.897C65.8401 112.897 64.8976 112.564 64.2187 111.899C63.5398 111.233 63.2003 110.291 63.2003 109.072C63.2003 107.817 63.513 106.847 64.1383 106.164C64.7681 105.476 65.6368 105.132 66.7445 105.132C67.8031 105.132 68.6272 105.434 69.2167 106.037C69.8063 106.64 70.1011 107.473 70.1011 108.536V109.527H65.2706C65.2929 110.108 65.4649 110.561 65.7865 110.887C66.1081 111.213 66.5592 111.376 67.1398 111.376C67.5909 111.376 68.0175 111.329 68.4195 111.236C68.8215 111.142 69.2413 110.992 69.679 110.787V112.368C69.3217 112.547 68.9398 112.678 68.5334 112.763C68.1269 112.853 67.6311 112.897 67.046 112.897ZM77.0683 112.763L76.6731 111.745H76.6195C76.2755 112.178 75.9205 112.48 75.5542 112.649C75.1924 112.815 74.719 112.897 74.1338 112.897C73.4147 112.897 72.8475 112.692 72.4321 112.281C72.0212 111.87 71.8157 111.285 71.8157 110.526C71.8157 109.73 72.0926 109.145 72.6465 108.77C73.2048 108.391 74.0445 108.181 75.1656 108.14L76.4654 108.1V107.772C76.4654 107.013 76.0768 106.633 75.2996 106.633C74.7011 106.633 73.9976 106.814 73.1892 107.176L72.5125 105.795C73.3745 105.344 74.3304 105.119 75.38 105.119C76.385 105.119 77.1554 105.338 77.6914 105.775C78.2274 106.213 78.4954 106.879 78.4954 107.772V112.763H77.0683ZM76.4654 109.293L75.6748 109.32C75.0807 109.337 74.6386 109.445 74.3482 109.641C74.0579 109.838 73.9128 110.137 73.9128 110.539C73.9128 111.115 74.2433 111.403 74.9043 111.403C75.3778 111.403 75.7552 111.267 76.0366 110.995C76.3224 110.722 76.4654 110.36 76.4654 109.909V109.293ZM83.1981 112.763H81.1547V102.338H83.1981V112.763ZM89.0532 111.269C89.4105 111.269 89.8393 111.191 90.3395 111.035V112.556C89.8304 112.783 89.205 112.897 88.4636 112.897C87.6462 112.897 87.0499 112.692 86.6748 112.281C86.304 111.865 86.1187 111.245 86.1187 110.418V106.807H85.1405V105.943L86.2661 105.259L86.8557 103.678H88.1621V105.273H90.2591V106.807H88.1621V110.418C88.1621 110.709 88.2425 110.923 88.4033 111.062C88.5686 111.2 88.7852 111.269 89.0532 111.269ZM99.3234 112.763H97.28V108.388C97.28 107.307 96.878 106.767 96.074 106.767C95.5023 106.767 95.0891 106.961 94.8345 107.35C94.58 107.738 94.4527 108.368 94.4527 109.239V112.763H92.4092V102.338H94.4527V104.462C94.4527 104.627 94.437 105.016 94.4058 105.628L94.3589 106.231H94.4661C94.9216 105.498 95.6452 105.132 96.6368 105.132C97.5167 105.132 98.1844 105.369 98.64 105.842C99.0956 106.316 99.3234 106.995 99.3234 107.879V112.763ZM100.904 105.273H103.142L104.555 109.487C104.676 109.853 104.759 110.287 104.803 110.787H104.843C104.893 110.327 104.989 109.894 105.132 109.487L106.518 105.273H108.709L105.54 113.721C105.25 114.503 104.835 115.088 104.294 115.477C103.758 115.865 103.131 116.06 102.411 116.06C102.059 116.06 101.712 116.022 101.373 115.946V114.324C101.619 114.382 101.887 114.411 102.177 114.411C102.539 114.411 102.854 114.3 103.122 114.076C103.394 113.858 103.606 113.525 103.758 113.078L103.879 112.71L100.904 105.273ZM58.8793 131.763H56.5142L55.1877 126.618C55.1386 126.435 55.0537 126.057 54.9331 125.486C54.817 124.909 54.75 124.523 54.7321 124.326C54.7053 124.568 54.6383 124.956 54.5311 125.492C54.4239 126.024 54.3413 126.403 54.2832 126.631L52.9634 131.763H50.605L48.106 121.968H50.1495L51.4023 127.315C51.6212 128.302 51.7797 129.157 51.878 129.881C51.9048 129.626 51.9651 129.233 52.0589 128.701C52.1572 128.165 52.2487 127.75 52.3336 127.455L53.7606 121.968H55.7237L57.1507 127.455C57.2133 127.701 57.2914 128.076 57.3852 128.581C57.479 129.086 57.5505 129.519 57.5996 129.881C57.6443 129.532 57.7157 129.099 57.814 128.581C57.9123 128.058 58.0016 127.636 58.082 127.315L59.3281 121.968H61.3716L58.8793 131.763ZM64.6204 128.005C64.6204 128.746 64.741 129.307 64.9822 129.686C65.2279 130.066 65.6254 130.256 66.1748 130.256C66.7197 130.256 67.1105 130.068 67.3472 129.693C67.5884 129.313 67.709 128.751 67.709 128.005C67.709 127.263 67.5884 126.707 67.3472 126.336C67.1061 125.966 66.7108 125.78 66.1614 125.78C65.6165 125.78 65.2234 125.966 64.9822 126.336C64.741 126.703 64.6204 127.259 64.6204 128.005ZM69.7994 128.005C69.7994 129.224 69.4778 130.178 68.8346 130.865C68.1914 131.553 67.2959 131.897 66.148 131.897C65.4289 131.897 64.7946 131.741 64.2452 131.428C63.6959 131.111 63.2738 130.658 62.979 130.068C62.6842 129.479 62.5368 128.791 62.5368 128.005C62.5368 126.781 62.8562 125.829 63.4949 125.151C64.1336 124.472 65.0314 124.132 66.1882 124.132C66.9073 124.132 67.5415 124.289 68.0909 124.601C68.6403 124.914 69.0624 125.363 69.3572 125.948C69.652 126.533 69.7994 127.219 69.7994 128.005ZM76.2172 124.132C76.4941 124.132 76.7242 124.152 76.9073 124.192L76.7532 126.109C76.5879 126.064 76.3869 126.042 76.1502 126.042C75.4981 126.042 74.9889 126.209 74.6227 126.544C74.2609 126.879 74.08 127.348 74.08 127.951V131.763H72.0366V124.273H73.5842L73.8857 125.532H73.9862C74.2184 125.113 74.5311 124.775 74.9242 124.521C75.3217 124.262 75.7527 124.132 76.2172 124.132ZM80.7792 127.69L81.6703 126.551L83.7673 124.273H86.072L83.0973 127.522L86.2529 131.763H83.8946L81.7373 128.728L80.8596 129.432V131.763H78.8162V121.338H80.8596V125.988L80.7524 127.69H80.7792ZM90.2455 131.897C89.3656 131.897 88.6733 131.556 88.1685 130.872C87.6683 130.189 87.4182 129.242 87.4182 128.031C87.4182 126.803 87.6728 125.847 88.1819 125.164C88.6956 124.476 89.4013 124.132 90.2991 124.132C91.2415 124.132 91.9606 124.498 92.4564 125.231H92.5234C92.4207 124.673 92.3693 124.175 92.3693 123.737V121.338H94.4194V131.763H92.8517L92.4564 130.792H92.3693C91.9048 131.529 91.1968 131.897 90.2455 131.897ZM90.9623 130.269C91.4849 130.269 91.8668 130.117 92.108 129.814C92.3537 129.51 92.4877 128.994 92.51 128.266V128.045C92.51 127.241 92.3849 126.665 92.1348 126.316C91.8891 125.968 91.4872 125.794 90.9288 125.794C90.4733 125.794 90.1182 125.988 89.8636 126.377C89.6135 126.761 89.4884 127.321 89.4884 128.058C89.4884 128.795 89.6157 129.349 89.8703 129.72C90.1249 130.086 90.4889 130.269 90.9623 130.269ZM101.862 131.763L101.467 130.745H101.413C101.07 131.178 100.714 131.48 100.348 131.649C99.9864 131.815 99.513 131.897 98.9278 131.897C98.2087 131.897 97.6415 131.692 97.2261 131.281C96.8152 130.87 96.6097 130.285 96.6097 129.526C96.6097 128.73 96.8866 128.145 97.4405 127.77C97.9988 127.391 98.8385 127.181 99.9596 127.14L101.259 127.1V126.772C101.259 126.013 100.871 125.633 100.094 125.633C99.4951 125.633 98.7916 125.814 97.9832 126.176L97.3065 124.795C98.1685 124.344 99.1244 124.119 100.174 124.119C101.179 124.119 101.949 124.338 102.485 124.775C103.021 125.213 103.289 125.879 103.289 126.772V131.763H101.862ZM101.259 128.293L100.469 128.32C99.8747 128.337 99.4326 128.445 99.1422 128.641C98.8519 128.838 98.7068 129.137 98.7068 129.539C98.7068 130.115 99.0373 130.403 99.6983 130.403C100.172 130.403 100.549 130.267 100.831 129.995C101.116 129.722 101.259 129.36 101.259 128.909V128.293ZM104.877 124.273H107.114L108.528 128.487C108.649 128.853 108.731 129.287 108.776 129.787H108.816C108.865 129.327 108.961 128.894 109.104 128.487L110.491 124.273H112.682L109.513 132.721C109.223 133.503 108.807 134.088 108.267 134.477C107.731 134.865 107.103 135.06 106.384 135.06C106.031 135.06 105.685 135.022 105.346 134.946V133.324C105.591 133.382 105.859 133.411 106.15 133.411C106.511 133.411 106.826 133.3 107.094 133.076C107.367 132.858 107.579 132.525 107.731 132.078L107.851 131.71L104.877 124.273Z" fill="white"/>
<circle cx="80.1829" cy="116.63" r="47.5185" stroke="url(#paint1_linear)" stroke-width="1.01103"/>
<g filter="url(#filter0_d)">
<path d="M75.8405 228.999C75.0077 228.237 74.3901 227.269 74.05 226.192C73.7099 225.116 73.6592 223.969 73.9029 222.866L80.183 224.255L75.8405 228.999Z" fill="url(#paint2_linear)"/>
<path d="M73.8965 222.896C74.1351 221.792 74.66 220.771 75.4184 219.934C76.1768 219.098 77.142 218.476 78.217 218.131L80.183 224.255L73.8965 222.896Z" fill="url(#paint3_linear)"/>
<path d="M82.0966 230.395C81.0187 230.731 79.8714 230.778 78.7699 230.53C77.6685 230.281 76.6517 229.748 75.8219 228.982L80.183 224.255L82.0966 230.395Z" fill="url(#paint4_linear)"/>
<path d="M78.241 218.123C79.3173 217.782 80.4644 217.731 81.567 217.974C82.6696 218.217 83.6888 218.746 84.5222 219.507L80.183 224.255L78.241 218.123Z" fill="url(#paint5_linear)"/>
<path d="M84.5425 219.526C85.3727 220.291 85.9867 221.262 86.3229 222.339C86.6592 223.417 86.7058 224.565 86.4581 225.666L80.183 224.255L84.5425 219.526Z" fill="url(#paint6_linear)"/>
<path d="M86.4586 225.664C86.2112 226.765 85.6783 227.783 84.9133 228.613C84.1483 229.443 83.1782 230.058 82.1005 230.394L80.183 224.255L86.4586 225.664Z" fill="url(#paint7_linear)"/>
</g>
<defs>
<filter id="filter0_d" x="60.8877" y="206.675" width="38.5908" height="38.5907" filterUnits="userSpaceOnUse" color-interpolation-filters="sRGB">
<feFlood flood-opacity="0" result="BackgroundImageFix"/>
<feColorMatrix in="SourceAlpha" type="matrix" values="0 0 0 0 0 0 0 0 0 0 0 0 0 0 0 0 0 0 127 0"/>
<feOffset dy="1.71514"/>
<feGaussianBlur stdDeviation="6.43179"/>
<feColorMatrix type="matrix" values="0 0 0 0 0 0 0 0 0 0 0 0 0 0 0 0 0 0 0.25 0"/>
<feBlend mode="normal" in2="BackgroundImageFix" result="effect1_dropShadow"/>
<feBlend mode="normal" in="SourceGraphic" in2="effect1_dropShadow" result="shape"/>
</filter>
<linearGradient id="paint0_linear" x1="81.0303" y1="7.56449e-06" x2="56.7748" y2="288.58" gradientUnits="userSpaceOnUse">
<stop stop-color="#5464BD" stop-opacity="0.34"/>
<stop offset="0.460316" stop-color="#477DDE"/>
<stop offset="0.905036" stop-color="#477DDE" stop-opacity="0"/>
</linearGradient>
<linearGradient id="paint1_linear" x1="32.1589" y1="116.63" x2="127.087" y2="116.661" gradientUnits="userSpaceOnUse">
<stop stop-color="#FF696F"/>
<stop offset="0.204824" stop-color="#FFAC1C"/>
<stop offset="0.395274" stop-color="#E4F051"/>
<stop offset="0.595232" stop-color="#5EE27E"/>
<stop offset="0.811853" stop-color="#1ADCFF"/>
<stop offset="1" stop-color="#6021D4"/>
</linearGradient>
<linearGradient id="paint2_linear" x1="73.7512" y1="224.255" x2="86.6148" y2="224.255" gradientUnits="userSpaceOnUse">
<stop stop-color="#6A11CB"/>
<stop offset="1" stop-color="#2575FC"/>
</linearGradient>
<linearGradient id="paint3_linear" x1="73.7512" y1="224.255" x2="86.6148" y2="224.255" gradientUnits="userSpaceOnUse">
<stop stop-color="#4FACFE"/>
<stop offset="1" stop-color="#00F2FE"/>
</linearGradient>
<linearGradient id="paint4_linear" x1="73.7512" y1="224.255" x2="86.6148" y2="224.255" gradientUnits="userSpaceOnUse">
<stop stop-color="#00E3AE"/>
<stop offset="1" stop-color="#9BE15D"/>
</linearGradient>
<linearGradient id="paint5_linear" x1="73.7512" y1="224.255" x2="86.6148" y2="224.255" gradientUnits="userSpaceOnUse">
<stop stop-color="#FFDA58"/>
<stop offset="1" stop-color="#D0FF4A"/>
</linearGradient>
<linearGradient id="paint6_linear" x1="73.7512" y1="224.255" x2="86.6148" y2="224.255" gradientUnits="userSpaceOnUse">
<stop stop-color="#FFA113"/>
<stop offset="1" stop-color="#FEE140"/>
</linearGradient>
<linearGradient id="paint7_linear" x1="73.7512" y1="224.255" x2="86.6148" y2="224.255" gradientUnits="userSpaceOnUse">
<stop stop-color="#FF4453"/>
<stop offset="1" stop-color="#FFA29E"/>
</linearGradient>
</defs>
</svg>
