<svg width="51" height="52" viewBox="0 0 51 52" fill="none" xmlns="http://www.w3.org/2000/svg">
<path d="M15.7579 22.7857H14.7664V20.761H12.9086V22.7857H11.9139V18.0946H12.9086V19.9332H14.7664V18.0946H15.7579V22.7857ZM18.6166 19.8273C18.4091 19.8273 18.2465 19.8936 18.1289 20.0262C18.0112 20.1567 17.9439 20.3428 17.9267 20.5845H19.3001C19.2958 20.3428 19.2327 20.1567 19.1108 20.0262C18.9888 19.8936 18.8241 19.8273 18.6166 19.8273ZM18.7546 22.8499C18.177 22.8499 17.7257 22.6905 17.4005 22.3718C17.0754 22.0531 16.9128 21.6017 16.9128 21.0177C16.9128 20.4166 17.0625 19.9524 17.362 19.6251C17.6636 19.2957 18.0797 19.131 18.6102 19.131C19.1172 19.131 19.5118 19.2754 19.7942 19.5642C20.0766 19.8529 20.2178 20.2519 20.2178 20.761V21.2359H17.9043C17.915 21.514 17.9973 21.7311 18.1514 21.8873C18.3054 22.0434 18.5214 22.1215 18.7995 22.1215C19.0156 22.1215 19.2198 22.099 19.4124 22.0541C19.6049 22.0092 19.806 21.9375 20.0156 21.8391V22.5964C19.8445 22.682 19.6616 22.7451 19.4669 22.7857C19.2723 22.8285 19.0348 22.8499 18.7546 22.8499ZM23.5546 22.7857L23.3652 22.298H23.3396C23.1749 22.5055 23.0048 22.6499 22.8294 22.7312C22.6561 22.8103 22.4294 22.8499 22.1491 22.8499C21.8047 22.8499 21.5331 22.7515 21.3341 22.5547C21.1373 22.3579 21.0389 22.0777 21.0389 21.714C21.0389 21.3332 21.1716 21.053 21.4368 20.8733C21.7042 20.6915 22.1064 20.591 22.6433 20.5717L23.2658 20.5524V20.3952C23.2658 20.0316 23.0797 19.8497 22.7075 19.8497C22.4208 19.8497 22.0839 19.9364 21.6967 20.1096L21.3726 19.4487C21.7855 19.2326 22.2433 19.1246 22.746 19.1246C23.2273 19.1246 23.5963 19.2294 23.853 19.439C24.1097 19.6487 24.238 19.9674 24.238 20.3952V22.7857H23.5546ZM23.2658 21.1236L22.8871 21.1364C22.6026 21.145 22.3909 21.1963 22.2518 21.2904C22.1128 21.3846 22.0433 21.5279 22.0433 21.7204C22.0433 21.9964 22.2015 22.1343 22.5181 22.1343C22.7449 22.1343 22.9256 22.0691 23.0604 21.9386C23.1973 21.8081 23.2658 21.6348 23.2658 21.4188V21.1236ZM26.4903 22.7857H25.5116V17.793H26.4903V22.7857ZM29.2944 22.0702C29.4655 22.0702 29.6709 22.0327 29.9105 21.9579V22.6862C29.6666 22.7953 29.3671 22.8499 29.012 22.8499C28.6206 22.8499 28.335 22.7515 28.1553 22.5547C27.9778 22.3557 27.889 22.0584 27.889 21.6627V19.9332H27.4205V19.5192L27.9596 19.192L28.242 18.4347H28.8677V19.1984H29.872V19.9332H28.8677V21.6627C28.8677 21.8017 28.9062 21.9044 28.9832 21.9707C29.0623 22.037 29.1661 22.0702 29.2944 22.0702ZM34.2131 22.7857H33.2344V20.6904C33.2344 20.1727 33.0419 19.9139 32.6569 19.9139C32.3831 19.9139 32.1852 20.007 32.0633 20.1931C31.9413 20.3792 31.8804 20.6808 31.8804 21.0979V22.7857H30.9017V17.793H31.8804V18.8101C31.8804 18.8893 31.8729 19.0754 31.8579 19.3684L31.8355 19.6572H31.8868C32.105 19.3064 32.4515 19.131 32.9264 19.131C33.3478 19.131 33.6676 19.2444 33.8858 19.4711C34.104 19.6979 34.2131 20.023 34.2131 20.4466V22.7857ZM34.9701 19.1984H36.0418L36.7188 21.2166C36.7766 21.3921 36.8162 21.5996 36.8376 21.8391H36.8568C36.8803 21.6188 36.9263 21.4113 36.9948 21.2166L37.659 19.1984H38.7082L37.1905 23.2446C37.0515 23.6189 36.8525 23.8991 36.5937 24.0852C36.337 24.2713 36.0365 24.3644 35.6921 24.3644C35.5231 24.3644 35.3573 24.3462 35.1947 24.3098V23.5333C35.3124 23.5611 35.4407 23.575 35.5798 23.575C35.753 23.575 35.9038 23.5216 36.0322 23.4146C36.1627 23.3098 36.2643 23.1504 36.337 22.9365L36.3948 22.76L34.9701 19.1984ZM14.8433 31.7857H13.7106L13.0753 29.3214C13.0518 29.2337 13.0111 29.053 12.9534 28.7791C12.8978 28.5032 12.8657 28.3182 12.8571 28.224C12.8443 28.3396 12.8122 28.5257 12.7609 28.7824C12.7095 29.0369 12.6699 29.2187 12.6421 29.3278L12.01 31.7857H10.8806L9.68371 27.0946H10.6624L11.2624 29.6551C11.3672 30.1279 11.4431 30.5375 11.4902 30.8841C11.503 30.7621 11.5319 30.5739 11.5768 30.3193C11.6239 30.0626 11.6678 29.8637 11.7084 29.7225L12.3919 27.0946H13.332L14.0155 29.7225C14.0454 29.8402 14.0828 30.0198 14.1278 30.2616C14.1727 30.5033 14.2069 30.7108 14.2304 30.8841C14.2518 30.7172 14.2861 30.5097 14.3331 30.2616C14.3802 30.0113 14.423 29.8091 14.4615 29.6551L15.0583 27.0946H16.0369L14.8433 31.7857ZM17.5929 29.9856C17.5929 30.3407 17.6507 30.6092 17.7662 30.791C17.8838 30.9728 18.0742 31.0637 18.3373 31.0637C18.5983 31.0637 18.7855 30.9739 18.8989 30.7942C19.0144 30.6124 19.0721 30.3429 19.0721 29.9856C19.0721 29.6305 19.0144 29.3642 18.8989 29.1867C18.7833 29.0091 18.594 28.9203 18.3309 28.9203C18.0699 28.9203 17.8817 29.0091 17.7662 29.1867C17.6507 29.3621 17.5929 29.6284 17.5929 29.9856ZM20.0732 29.9856C20.0732 30.5696 19.9192 31.0263 19.6112 31.3557C19.3031 31.6852 18.8743 31.8499 18.3245 31.8499C17.9801 31.8499 17.6763 31.775 17.4132 31.6253C17.1501 31.4734 16.948 31.2563 16.8068 30.9739C16.6656 30.6915 16.595 30.3621 16.595 29.9856C16.595 29.3995 16.7479 28.9439 17.0538 28.6187C17.3597 28.2936 17.7897 28.131 18.3437 28.131C18.6881 28.131 18.9919 28.2059 19.255 28.3556C19.5181 28.5053 19.7203 28.7203 19.8615 29.0005C20.0026 29.2808 20.0732 29.6091 20.0732 29.9856ZM23.1469 28.131C23.2795 28.131 23.3897 28.1406 23.4774 28.1599L23.4036 29.0776C23.3245 29.0562 23.2282 29.0455 23.1148 29.0455C22.8025 29.0455 22.5587 29.1257 22.3832 29.2861C22.21 29.4466 22.1233 29.6712 22.1233 29.96V31.7857H21.1447V28.1984H21.8859L22.0303 28.8016H22.0784C22.1897 28.6005 22.3394 28.439 22.5276 28.3171C22.718 28.193 22.9244 28.131 23.1469 28.131ZM25.3318 29.8348L25.7585 29.2893L26.7629 28.1984H27.8667L26.442 29.7546L27.9533 31.7857H26.8238L25.7906 30.3322L25.3703 30.6691V31.7857H24.3916V26.793H25.3703V29.0198L25.319 29.8348H25.3318ZM29.8654 31.8499C29.444 31.8499 29.1125 31.6862 28.8707 31.3589C28.6312 31.0317 28.5114 30.5782 28.5114 29.9985C28.5114 29.4102 28.6333 28.9524 28.8772 28.6251C29.1232 28.2957 29.4611 28.131 29.8911 28.131C30.3425 28.131 30.6869 28.3064 30.9243 28.6572H30.9564C30.9072 28.3898 30.8826 28.1513 30.8826 27.9417V26.793H31.8645V31.7857H31.1136L30.9243 31.3204H30.8826C30.6601 31.6734 30.3211 31.8499 29.8654 31.8499ZM30.2088 31.0702C30.459 31.0702 30.6419 30.9974 30.7575 30.852C30.8751 30.7065 30.9393 30.4594 30.95 30.1108V30.0049C30.95 29.6198 30.8901 29.3439 30.7703 29.177C30.6526 29.0102 30.4601 28.9267 30.1927 28.9267C29.9745 28.9267 29.8045 29.0198 29.6825 29.2059C29.5627 29.3899 29.5029 29.6583 29.5029 30.0113C29.5029 30.3642 29.5638 30.6295 29.6857 30.8071C29.8077 30.9825 29.982 31.0702 30.2088 31.0702ZM35.4291 31.7857L35.2398 31.298H35.2141C35.0494 31.5055 34.8793 31.6499 34.7039 31.7312C34.5306 31.8103 34.3039 31.8499 34.0237 31.8499C33.6793 31.8499 33.4076 31.7515 33.2087 31.5547C33.0118 31.3579 32.9134 31.0777 32.9134 30.714C32.9134 30.3332 33.0461 30.053 33.3113 29.8733C33.5787 29.6915 33.9809 29.591 34.5178 29.5717L35.1403 29.5524V29.3952C35.1403 29.0316 34.9542 28.8497 34.582 28.8497C34.2953 28.8497 33.9584 28.9364 33.5712 29.1096L33.2472 28.4487C33.66 28.2326 34.1178 28.1246 34.6205 28.1246C35.1018 28.1246 35.4708 28.2294 35.7275 28.439C35.9842 28.6487 36.1125 28.9674 36.1125 29.3952V31.7857H35.4291ZM35.1403 30.1236L34.7617 30.1364C34.4772 30.145 34.2654 30.1963 34.1263 30.2904C33.9873 30.3846 33.9178 30.5279 33.9178 30.7204C33.9178 30.9964 34.0761 31.1343 34.3927 31.1343C34.6194 31.1343 34.8002 31.0691 34.9349 30.9386C35.0718 30.8081 35.1403 30.6348 35.1403 30.4188V30.1236ZM36.8727 28.1984H37.9444L38.6215 30.2166C38.6792 30.3921 38.7188 30.5996 38.7402 30.8391H38.7595C38.783 30.6188 38.829 30.4113 38.8974 30.2166L39.5616 28.1984H40.6109L39.0932 32.2446C38.9541 32.6189 38.7552 32.8991 38.4963 33.0852C38.2396 33.2713 37.9391 33.3644 37.5947 33.3644C37.4257 33.3644 37.2599 33.3462 37.0973 33.3098V32.5333C37.215 32.5611 37.3433 32.575 37.4824 32.575C37.6557 32.575 37.8065 32.5216 37.9348 32.4146C38.0653 32.3098 38.1669 32.1504 38.2396 31.9365L38.2974 31.76L36.8727 28.1984Z" fill="white"/>
<path d="M49.832 26C49.832 40.2344 38.7224 51.7579 25.037 51.7579C11.3517 51.7579 0.242105 40.2344 0.242105 26C0.242105 11.7656 11.3517 0.242105 25.037 0.242105C38.7224 0.242105 49.832 11.7656 49.832 26Z" stroke="url(#paint0_linear)" stroke-width="0.484211"/>
<defs>
<linearGradient id="paint0_linear" x1="-2.79722e-07" y1="26" x2="49.4902" y2="26.0156" gradientUnits="userSpaceOnUse">
<stop stop-color="#FF696F"/>
<stop offset="0.204824" stop-color="#FFAC1C"/>
<stop offset="0.395274" stop-color="#E4F051"/>
<stop offset="0.595232" stop-color="#5EE27E"/>
<stop offset="0.811853" stop-color="#1ADCFF"/>
<stop offset="1" stop-color="#6021D4"/>
</linearGradient>
</defs>
</svg>
