<svg width="162" height="286" viewBox="0 0 162 286" fill="none" xmlns="http://www.w3.org/2000/svg">
<rect width="160.795" height="286" transform="translate(0.334473)" fill="url(#paint0_linear)"/>
<rect x="17.4859" y="75.0374" width="126.063" height="19.7241" rx="3.0015" fill="white"/>
<path d="M35.9271 87.4692V81.9595H36.5677V87.4692H35.9271ZM43.3663 87.4692L42.6088 85.046C42.5611 84.8978 42.4719 84.5611 42.3413 84.036H42.3111C42.2106 84.4757 42.1227 84.8149 42.0473 85.0536L41.2672 87.4692H40.5436L39.4168 83.3388H40.0726C40.3389 84.3765 40.5411 85.1666 40.6793 85.7093C40.82 86.252 40.9004 86.6175 40.9205 86.806H40.9506C40.9783 86.6628 41.0223 86.4781 41.0825 86.252C41.1454 86.0233 41.1994 85.8424 41.2446 85.7093L42.0021 83.3388H42.6804L43.4191 85.7093C43.5598 86.1414 43.6553 86.5045 43.7055 86.7984H43.7357C43.7457 86.708 43.7721 86.5685 43.8148 86.3801C43.86 86.1917 44.1226 85.1779 44.6024 83.3388H45.2506L44.1088 87.4692H43.3663ZM49.5657 85.4003C49.5657 86.0736 49.3961 86.5999 49.057 86.9793C48.7178 87.3562 48.2492 87.5446 47.6513 87.5446C47.2819 87.5446 46.9541 87.4579 46.6677 87.2846C46.3812 87.1112 46.1601 86.8625 46.0044 86.5384C45.8486 86.2143 45.7707 85.8349 45.7707 85.4003C45.7707 84.7269 45.939 84.2031 46.2757 83.8287C46.6124 83.4519 47.0797 83.2635 47.6776 83.2635C48.2555 83.2635 48.714 83.4557 49.0532 83.8401C49.3949 84.2245 49.5657 84.7445 49.5657 85.4003ZM46.4189 85.4003C46.4189 85.9279 46.5244 86.3299 46.7355 86.6062C46.9465 86.8826 47.2568 87.0208 47.6663 87.0208C48.0759 87.0208 48.3861 86.8838 48.5972 86.61C48.8107 86.3336 48.9175 85.9304 48.9175 85.4003C48.9175 84.8752 48.8107 84.477 48.5972 84.2056C48.3861 83.9318 48.0733 83.7948 47.6588 83.7948C47.2493 83.7948 46.9402 83.9292 46.7317 84.1981C46.5232 84.4669 46.4189 84.8676 46.4189 85.4003ZM52.5505 83.2635C52.7339 83.2635 52.8984 83.2785 53.0442 83.3087L52.9575 83.889C52.7866 83.8514 52.6359 83.8325 52.5053 83.8325C52.1711 83.8325 51.8847 83.9682 51.646 84.2395C51.4098 84.5109 51.2918 84.8488 51.2918 85.2533V87.4692H50.6662V83.3388H51.1825L51.2541 84.1039H51.2842C51.4375 83.835 51.6221 83.6278 51.8382 83.482C52.0543 83.3363 52.2917 83.2635 52.5505 83.2635ZM54.4348 85.355C54.5428 85.2018 54.7074 85.0008 54.9285 84.7521L56.2626 83.3388H57.005L55.3317 85.0988L57.1218 87.4692H56.3643L54.9059 85.5171L54.4348 85.9241V87.4692H53.8167V81.6053H54.4348V84.7144C54.4348 84.8526 54.4247 85.0661 54.4046 85.355H54.4348ZM65.1414 87.4692V84.7822C65.1414 84.4531 65.0711 84.2069 64.9304 84.0436C64.7897 83.8777 64.5711 83.7948 64.2747 83.7948C63.8852 83.7948 63.5976 83.9066 63.4116 84.1302C63.2257 84.3538 63.1328 84.698 63.1328 85.1628V87.4692H62.5072V84.7822C62.5072 84.4531 62.4368 84.2069 62.2961 84.0436C62.1554 83.8777 61.9356 83.7948 61.6366 83.7948C61.2447 83.7948 60.957 83.9129 60.7736 84.1491C60.5927 84.3827 60.5023 84.7671 60.5023 85.3023V87.4692H59.8767V83.3388H60.3854L60.4872 83.9041H60.5173C60.6354 83.7031 60.8012 83.5461 61.0148 83.433C61.2309 83.32 61.4721 83.2635 61.7384 83.2635C62.3841 83.2635 62.8062 83.4971 63.0046 83.9644H63.0348C63.1579 83.7484 63.3363 83.5775 63.5699 83.4519C63.8036 83.3263 64.0699 83.2635 64.3689 83.2635C64.8362 83.2635 65.1854 83.384 65.4166 83.6252C65.6502 83.8639 65.767 84.2471 65.767 84.7747V87.4692H65.1414ZM70.6248 85.4003C70.6248 86.0736 70.4552 86.5999 70.116 86.9793C69.7769 87.3562 69.3083 87.5446 68.7103 87.5446C68.341 87.5446 68.0131 87.4579 67.7267 87.2846C67.4403 87.1112 67.2192 86.8625 67.0634 86.5384C66.9077 86.2143 66.8298 85.8349 66.8298 85.4003C66.8298 84.7269 66.9981 84.2031 67.3348 83.8287C67.6714 83.4519 68.1388 83.2635 68.7367 83.2635C69.3146 83.2635 69.7731 83.4557 70.1123 83.8401C70.4539 84.2245 70.6248 84.7445 70.6248 85.4003ZM67.478 85.4003C67.478 85.9279 67.5835 86.3299 67.7946 86.6062C68.0056 86.8826 68.3159 87.0208 68.7254 87.0208C69.1349 87.0208 69.4452 86.8838 69.6563 86.61C69.8698 86.3336 69.9766 85.9304 69.9766 85.4003C69.9766 84.8752 69.8698 84.477 69.6563 84.2056C69.4452 83.9318 69.1324 83.7948 68.7179 83.7948C68.3083 83.7948 67.9993 83.9292 67.7908 84.1981C67.5823 84.4669 67.478 84.8676 67.478 85.4003ZM74.3896 86.3424C74.3896 86.7268 74.2464 87.0233 73.96 87.2318C73.6736 87.4403 73.2716 87.5446 72.7541 87.5446C72.2064 87.5446 71.7792 87.4579 71.4727 87.2846V86.7042C71.6712 86.8047 71.8835 86.8838 72.1096 86.9416C72.3383 86.9994 72.5581 87.0283 72.7691 87.0283C73.0958 87.0283 73.347 86.9768 73.5229 86.8738C73.6987 86.7683 73.7867 86.6087 73.7867 86.3952C73.7867 86.2344 73.7163 86.0975 73.5756 85.9844C73.4374 85.8688 73.1661 85.7332 72.7616 85.5774C72.3772 85.4342 72.1034 85.3098 71.94 85.2043C71.7792 85.0963 71.6587 84.9744 71.5783 84.8387C71.5004 84.7031 71.4614 84.541 71.4614 84.3526C71.4614 84.0159 71.5984 83.7509 71.8722 83.5574C72.1461 83.3614 72.5217 83.2635 72.999 83.2635C73.4437 83.2635 73.8784 83.3539 74.303 83.5348L74.0806 84.0436C73.6661 83.8727 73.2905 83.7873 72.9538 83.7873C72.6573 83.7873 72.4337 83.8338 72.283 83.9267C72.1322 84.0197 72.0569 84.1478 72.0569 84.3111C72.0569 84.4217 72.0845 84.5159 72.1398 84.5938C72.1976 84.6717 72.2893 84.7458 72.4149 84.8161C72.5405 84.8865 72.7817 84.9882 73.1385 85.1214C73.6284 85.2998 73.9588 85.4794 74.1296 85.6603C74.303 85.8412 74.3896 86.0686 74.3896 86.3424ZM76.745 87.0283C76.8556 87.0283 76.9624 87.0208 77.0654 87.0057C77.1684 86.9881 77.25 86.9705 77.3103 86.9529V87.4316C77.2425 87.4642 77.142 87.4906 77.0088 87.5107C76.8782 87.5333 76.7601 87.5446 76.6546 87.5446C75.8556 87.5446 75.4562 87.1238 75.4562 86.2821V83.825H74.8645V83.5235L75.4562 83.2635L75.72 82.3816H76.0818V83.3388H77.2802V83.825H76.0818V86.2557C76.0818 86.5045 76.1408 86.6954 76.2589 86.8286C76.377 86.9617 76.539 87.0283 76.745 87.0283ZM78.765 87.4692H78.1394V81.6053H78.765V87.4692ZM79.4358 83.3388H80.1067L81.0111 85.6942C81.2096 86.2319 81.3327 86.62 81.3804 86.8587H81.4106C81.4433 86.7306 81.5111 86.512 81.6141 86.203C81.7196 85.8914 82.0613 84.9367 82.6392 83.3388H83.31L81.535 88.0421C81.3591 88.5069 81.1531 88.836 80.9169 89.0294C80.6833 89.2254 80.3956 89.3234 80.0539 89.3234C79.8629 89.3234 79.6745 89.302 79.4886 89.2593V88.7581C79.6268 88.7883 79.7813 88.8033 79.9521 88.8033C80.3818 88.8033 80.6883 88.5621 80.8717 88.0798L81.1016 87.4919L79.4358 83.3388ZM87.8474 83.825H86.796V87.4692H86.1704V83.825H85.4317V83.5423L86.1704 83.3162V83.0863C86.1704 82.0713 86.6138 81.5638 87.5007 81.5638C87.7193 81.5638 87.9755 81.6078 88.2695 81.6957L88.1074 82.1969C87.8662 82.119 87.6602 82.0801 87.4894 82.0801C87.2532 82.0801 87.0786 82.1592 86.9655 82.3175C86.8525 82.4733 86.796 82.7245 86.796 83.0713V83.3388H87.8474V83.825ZM90.4854 83.2635C90.6688 83.2635 90.8334 83.2785 90.9791 83.3087L90.8925 83.889C90.7216 83.8514 90.5709 83.8325 90.4402 83.8325C90.1061 83.8325 89.8197 83.9682 89.581 84.2395C89.3448 84.5109 89.2267 84.8488 89.2267 85.2533V87.4692H88.6011V83.3388H89.1174L89.189 84.1039H89.2192C89.3724 83.835 89.5571 83.6278 89.7732 83.482C89.9892 83.3363 90.2267 83.2635 90.4854 83.2635ZM95.3168 85.4003C95.3168 86.0736 95.1472 86.5999 94.8081 86.9793C94.4689 87.3562 94.0003 87.5446 93.4024 87.5446C93.033 87.5446 92.7052 87.4579 92.4187 87.2846C92.1323 87.1112 91.9112 86.8625 91.7555 86.5384C91.5997 86.2143 91.5218 85.8349 91.5218 85.4003C91.5218 84.7269 91.6901 84.2031 92.0268 83.8287C92.3635 83.4519 92.8308 83.2635 93.4287 83.2635C94.0066 83.2635 94.4651 83.4557 94.8043 83.8401C95.146 84.2245 95.3168 84.7445 95.3168 85.4003ZM92.17 85.4003C92.17 85.9279 92.2755 86.3299 92.4866 86.6062C92.6976 86.8826 93.0079 87.0208 93.4174 87.0208C93.827 87.0208 94.1372 86.8838 94.3483 86.61C94.5618 86.3336 94.6686 85.9304 94.6686 85.4003C94.6686 84.8752 94.5618 84.477 94.3483 84.2056C94.1372 83.9318 93.8244 83.7948 93.4099 83.7948C93.0004 83.7948 92.6913 83.9292 92.4828 84.1981C92.2743 84.4669 92.17 84.8676 92.17 85.4003ZM101.682 87.4692V84.7822C101.682 84.4531 101.612 84.2069 101.471 84.0436C101.33 83.8777 101.112 83.7948 100.815 83.7948C100.426 83.7948 100.138 83.9066 99.9522 84.1302C99.7663 84.3538 99.6734 84.698 99.6734 85.1628V87.4692H99.0478V84.7822C99.0478 84.4531 98.9774 84.2069 98.8367 84.0436C98.696 83.8777 98.4762 83.7948 98.1772 83.7948C97.7853 83.7948 97.4976 83.9129 97.3142 84.1491C97.1333 84.3827 97.0429 84.7671 97.0429 85.3023V87.4692H96.4173V83.3388H96.926L97.0278 83.9041H97.0579C97.176 83.7031 97.3418 83.5461 97.5554 83.433C97.7715 83.32 98.0126 83.2635 98.279 83.2635C98.9247 83.2635 99.3467 83.4971 99.5452 83.9644H99.5754C99.6985 83.7484 99.8769 83.5775 100.111 83.4519C100.344 83.3263 100.61 83.2635 100.909 83.2635C101.377 83.2635 101.726 83.384 101.957 83.6252C102.191 83.8639 102.308 84.2471 102.308 84.7747V87.4692H101.682ZM108.432 87.4692V84.7973C108.432 84.4606 108.355 84.2094 108.202 84.0436C108.048 83.8777 107.809 83.7948 107.482 83.7948C107.047 83.7948 106.729 83.9129 106.528 84.1491C106.33 84.3852 106.231 84.7722 106.231 85.3098V87.4692H105.605V81.6053H106.231V83.3803C106.231 83.5938 106.221 83.771 106.201 83.9117H106.238C106.361 83.7132 106.536 83.5574 106.762 83.4443C106.991 83.3288 107.251 83.271 107.542 83.271C108.047 83.271 108.425 83.3916 108.677 83.6328C108.93 83.8715 109.057 84.2521 109.057 84.7747V87.4692H108.432ZM113.911 85.4003C113.911 86.0736 113.742 86.5999 113.402 86.9793C113.063 87.3562 112.595 87.5446 111.997 87.5446C111.627 87.5446 111.3 87.4579 111.013 87.2846C110.727 87.1112 110.506 86.8625 110.35 86.5384C110.194 86.2143 110.116 85.8349 110.116 85.4003C110.116 84.7269 110.285 84.2031 110.621 83.8287C110.958 83.4519 111.425 83.2635 112.023 83.2635C112.601 83.2635 113.06 83.4557 113.399 83.8401C113.74 84.2245 113.911 84.7445 113.911 85.4003ZM110.764 85.4003C110.764 85.9279 110.87 86.3299 111.081 86.6062C111.292 86.8826 111.602 87.0208 112.012 87.0208C112.421 87.0208 112.732 86.8838 112.943 86.61C113.156 86.3336 113.263 85.9304 113.263 85.4003C113.263 84.8752 113.156 84.477 112.943 84.2056C112.732 83.9318 112.419 83.7948 112.004 83.7948C111.595 83.7948 111.286 83.9292 111.077 84.1981C110.869 84.4669 110.764 84.8676 110.764 85.4003ZM120.276 87.4692V84.7822C120.276 84.4531 120.206 84.2069 120.065 84.0436C119.925 83.8777 119.706 83.7948 119.41 83.7948C119.02 83.7948 118.733 83.9066 118.547 84.1302C118.361 84.3538 118.268 84.698 118.268 85.1628V87.4692H117.642V84.7822C117.642 84.4531 117.572 84.2069 117.431 84.0436C117.29 83.8777 117.071 83.7948 116.772 83.7948C116.38 83.7948 116.092 83.9129 115.909 84.1491C115.728 84.3827 115.637 84.7671 115.637 85.3023V87.4692H115.012V83.3388H115.52L115.622 83.9041H115.652C115.77 83.7031 115.936 83.5461 116.15 83.433C116.366 83.32 116.607 83.2635 116.873 83.2635C117.519 83.2635 117.941 83.4971 118.14 83.9644H118.17C118.293 83.7484 118.471 83.5775 118.705 83.4519C118.939 83.3263 119.205 83.2635 119.504 83.2635C119.971 83.2635 120.32 83.384 120.552 83.6252C120.785 83.8639 120.902 84.2471 120.902 84.7747V87.4692H120.276ZM123.94 87.5446C123.329 87.5446 122.847 87.3587 122.492 86.9869C122.141 86.615 121.965 86.0987 121.965 85.4379C121.965 84.7722 122.128 84.2433 122.455 83.8514C122.784 83.4594 123.225 83.2635 123.777 83.2635C124.295 83.2635 124.705 83.4343 125.006 83.776C125.308 84.1152 125.458 84.5636 125.458 85.1214V85.5171H122.613C122.626 86.002 122.747 86.3701 122.979 86.6213C123.212 86.8725 123.54 86.9982 123.962 86.9982C124.407 86.9982 124.846 86.9052 125.281 86.7193V87.277C125.06 87.3725 124.85 87.4403 124.652 87.4805C124.456 87.5233 124.218 87.5446 123.94 87.5446ZM123.77 83.7873C123.438 83.7873 123.173 83.8953 122.975 84.1114C122.779 84.3275 122.663 84.6264 122.628 85.0083H124.787C124.787 84.6139 124.7 84.3124 124.524 84.1039C124.348 83.8928 124.097 83.7873 123.77 83.7873Z" fill="#274483"/>
<rect x="17.4859" y="75.0374" width="126.063" height="19.7241" rx="3.0015" stroke="url(#paint1_linear)" stroke-width="0.857571"/>
<rect x="17.4859" y="99.0495" width="126.063" height="19.7241" rx="3.0015" fill="white"/>
<path d="M36.3906 111.481V105.972H37.0313V111.481H36.3906ZM43.8299 111.481L43.0724 109.058C43.0246 108.91 42.9355 108.573 42.8048 108.048H42.7747C42.6742 108.488 42.5862 108.827 42.5109 109.066L41.7308 111.481H41.0072L39.8804 107.351H40.5361C40.8024 108.388 41.0047 109.179 41.1428 109.721C41.2835 110.264 41.3639 110.63 41.384 110.818H41.4142C41.4418 110.675 41.4858 110.49 41.5461 110.264C41.6089 110.035 41.6629 109.854 41.7081 109.721L42.4656 107.351H43.144L43.8826 109.721C44.0233 110.153 44.1188 110.516 44.1691 110.81H44.1992C44.2093 110.72 44.2356 110.581 44.2783 110.392C44.3236 110.204 44.5861 109.19 45.066 107.351H45.7142L44.5723 111.481H43.8299ZM50.0293 109.412C50.0293 110.086 49.8597 110.612 49.5205 110.991C49.1813 111.368 48.7128 111.557 48.1148 111.557C47.7455 111.557 47.4176 111.47 47.1312 111.297C46.8448 111.123 46.6237 110.875 46.4679 110.55C46.3121 110.226 46.2343 109.847 46.2343 109.412C46.2343 108.739 46.4026 108.215 46.7393 107.841C47.0759 107.464 47.5432 107.275 48.1412 107.275C48.719 107.275 49.1776 107.468 49.5167 107.852C49.8584 108.236 50.0293 108.757 50.0293 109.412ZM46.8825 109.412C46.8825 109.94 46.988 110.342 47.199 110.618C47.4101 110.895 47.7204 111.033 48.1299 111.033C48.5394 111.033 48.8497 110.896 49.0607 110.622C49.2743 110.346 49.3811 109.942 49.3811 109.412C49.3811 108.887 49.2743 108.489 49.0607 108.218C48.8497 107.944 48.5369 107.807 48.1223 107.807C47.7128 107.807 47.4038 107.941 47.1953 108.21C46.9867 108.479 46.8825 108.88 46.8825 109.412ZM53.014 107.275C53.1974 107.275 53.362 107.291 53.5077 107.321L53.421 107.901C53.2502 107.863 53.0994 107.845 52.9688 107.845C52.6346 107.845 52.3482 107.98 52.1095 108.252C51.8734 108.523 51.7553 108.861 51.7553 109.265V111.481H51.1297V107.351H51.646L51.7176 108.116H51.7478C51.901 107.847 52.0857 107.64 52.3017 107.494C52.5178 107.348 52.7552 107.275 53.014 107.275ZM54.8983 109.367C55.0064 109.214 55.1709 109.013 55.392 108.764L56.7261 107.351H57.4685L55.7953 109.111L57.5854 111.481H56.8279L55.3694 109.529L54.8983 109.936V111.481H54.2803V105.617H54.8983V108.726C54.8983 108.865 54.8883 109.078 54.8682 109.367H54.8983ZM65.605 111.481V108.794C65.605 108.465 65.5346 108.219 65.3939 108.056C65.2532 107.89 65.0347 107.807 64.7382 107.807C64.3488 107.807 64.0611 107.919 63.8752 108.142C63.6893 108.366 63.5963 108.71 63.5963 109.175V111.481H62.9707V108.794C62.9707 108.465 62.9004 108.219 62.7597 108.056C62.619 107.89 62.3991 107.807 62.1002 107.807C61.7082 107.807 61.4206 107.925 61.2372 108.161C61.0563 108.395 60.9658 108.779 60.9658 109.314V111.481H60.3402V107.351H60.849L60.9507 107.916H60.9809C61.099 107.715 61.2648 107.558 61.4783 107.445C61.6944 107.332 61.9356 107.275 62.2019 107.275C62.8476 107.275 63.2697 107.509 63.4682 107.976H63.4983C63.6214 107.76 63.7998 107.59 64.0335 107.464C64.2671 107.338 64.5334 107.275 64.8324 107.275C65.2997 107.275 65.649 107.396 65.8801 107.637C66.1138 107.876 66.2306 108.259 66.2306 108.787V111.481H65.605ZM71.0883 109.412C71.0883 110.086 70.9187 110.612 70.5796 110.991C70.2404 111.368 69.7718 111.557 69.1739 111.557C68.8045 111.557 68.4767 111.47 68.1903 111.297C67.9038 111.123 67.6828 110.875 67.527 110.55C67.3712 110.226 67.2933 109.847 67.2933 109.412C67.2933 108.739 67.4617 108.215 67.7983 107.841C68.135 107.464 68.6023 107.275 69.2003 107.275C69.7781 107.275 70.2366 107.468 70.5758 107.852C70.9175 108.236 71.0883 108.757 71.0883 109.412ZM67.9415 109.412C67.9415 109.94 68.0471 110.342 68.2581 110.618C68.4691 110.895 68.7794 111.033 69.1889 111.033C69.5985 111.033 69.9088 110.896 70.1198 110.622C70.3334 110.346 70.4401 109.942 70.4401 109.412C70.4401 108.887 70.3334 108.489 70.1198 108.218C69.9088 107.944 69.596 107.807 69.1814 107.807C68.7719 107.807 68.4629 107.941 68.2543 108.21C68.0458 108.479 67.9415 108.88 67.9415 109.412ZM74.8532 110.354C74.8532 110.739 74.71 111.035 74.4236 111.244C74.1372 111.452 73.7352 111.557 73.2176 111.557C72.6699 111.557 72.2428 111.47 71.9363 111.297V110.716C72.1348 110.817 72.3471 110.896 72.5732 110.954C72.8018 111.011 73.0216 111.04 73.2327 111.04C73.5593 111.04 73.8105 110.989 73.9864 110.886C74.1623 110.78 74.2502 110.621 74.2502 110.407C74.2502 110.246 74.1799 110.109 74.0392 109.996C73.901 109.881 73.6296 109.745 73.2251 109.589C72.8407 109.446 72.5669 109.322 72.4036 109.216C72.2428 109.108 72.1222 108.986 72.0418 108.851C71.9639 108.715 71.925 108.553 71.925 108.365C71.925 108.028 72.0619 107.763 72.3358 107.569C72.6096 107.373 72.9852 107.275 73.4626 107.275C73.9073 107.275 74.3419 107.366 74.7665 107.547L74.5442 108.056C74.1296 107.885 73.754 107.799 73.4173 107.799C73.1209 107.799 72.8973 107.846 72.7465 107.939C72.5958 108.032 72.5204 108.16 72.5204 108.323C72.5204 108.434 72.5481 108.528 72.6033 108.606C72.6611 108.684 72.7528 108.758 72.8784 108.828C73.0041 108.898 73.2452 109 73.602 109.133C74.0919 109.312 74.4223 109.491 74.5932 109.672C74.7665 109.853 74.8532 110.081 74.8532 110.354ZM77.2086 111.04C77.3191 111.04 77.4259 111.033 77.5289 111.018C77.6319 111 77.7136 110.983 77.7739 110.965V111.444C77.706 111.476 77.6055 111.503 77.4724 111.523C77.3417 111.545 77.2237 111.557 77.1181 111.557C76.3192 111.557 75.9197 111.136 75.9197 110.294V107.837H75.328V107.536L75.9197 107.275L76.1835 106.394H76.5453V107.351H77.7437V107.837H76.5453V110.268C76.5453 110.516 76.6043 110.707 76.7224 110.841C76.8405 110.974 77.0026 111.04 77.2086 111.04ZM79.2286 111.481H78.603V105.617H79.2286V111.481ZM79.8994 107.351H80.5702L81.4747 109.706C81.6731 110.244 81.7963 110.632 81.844 110.871H81.8741C81.9068 110.743 81.9746 110.524 82.0776 110.215C82.1832 109.903 82.5249 108.949 83.1027 107.351H83.7735L81.9985 112.054C81.8226 112.519 81.6166 112.848 81.3804 113.041C81.1468 113.237 80.8591 113.335 80.5174 113.335C80.3265 113.335 80.1381 113.314 79.9521 113.271V112.77C80.0903 112.8 80.2448 112.815 80.4157 112.815C80.8453 112.815 81.1518 112.574 81.3352 112.092L81.5651 111.504L79.8994 107.351ZM87.0748 111.481H86.4492V107.351H87.0748V111.481ZM86.3965 106.232C86.3965 106.088 86.4317 105.984 86.502 105.919C86.5724 105.851 86.6603 105.817 86.7658 105.817C86.8663 105.817 86.953 105.851 87.0258 105.919C87.0987 105.987 87.1351 106.091 87.1351 106.232C87.1351 106.372 87.0987 106.478 87.0258 106.548C86.953 106.616 86.8663 106.65 86.7658 106.65C86.6603 106.65 86.5724 106.616 86.502 106.548C86.4317 106.478 86.3965 106.372 86.3965 106.232ZM91.2279 111.481V108.809C91.2279 108.473 91.1512 108.221 90.998 108.056C90.8447 107.89 90.6048 107.807 90.2782 107.807C89.846 107.807 89.5295 107.924 89.3285 108.157C89.1275 108.391 89.027 108.777 89.027 109.314V111.481H88.4014V107.351H88.9102L89.0119 107.916H89.0421C89.1702 107.713 89.3498 107.556 89.581 107.445C89.8121 107.332 90.0696 107.275 90.3535 107.275C90.851 107.275 91.2254 107.396 91.4766 107.637C91.7278 107.876 91.8535 108.259 91.8535 108.787V111.481H91.2279ZM97.6873 111.481L97.5629 110.893H97.5328C97.3268 111.152 97.1207 111.328 96.9147 111.421C96.7112 111.511 96.4562 111.557 96.1497 111.557C95.7402 111.557 95.4186 111.451 95.1849 111.24C94.9538 111.029 94.8382 110.729 94.8382 110.339C94.8382 109.505 95.5053 109.068 96.8393 109.028L97.5403 109.005V108.749C97.5403 108.425 97.47 108.186 97.3293 108.033C97.1911 107.877 96.9687 107.799 96.6622 107.799C96.318 107.799 95.9286 107.905 95.4939 108.116L95.3017 107.637C95.5053 107.527 95.7276 107.44 95.9688 107.377C96.2125 107.314 96.4562 107.283 96.6999 107.283C97.1923 107.283 97.5566 107.392 97.7928 107.611C98.0315 107.829 98.1508 108.18 98.1508 108.662V111.481H97.6873ZM96.2741 111.04C96.6635 111.04 96.9687 110.934 97.1898 110.72C97.4134 110.506 97.5252 110.207 97.5252 109.823V109.45L96.8996 109.476C96.4022 109.494 96.0429 109.572 95.8218 109.71C95.6032 109.846 95.4939 110.058 95.4939 110.347C95.4939 110.573 95.5618 110.745 95.6975 110.863C95.8356 110.981 96.0278 111.04 96.2741 111.04ZM102.27 111.481V108.809C102.27 108.473 102.193 108.221 102.04 108.056C101.887 107.89 101.647 107.807 101.32 107.807C100.888 107.807 100.572 107.924 100.371 108.157C100.17 108.391 100.069 108.777 100.069 109.314V111.481H99.4435V107.351H99.9522L100.054 107.916H100.084C100.212 107.713 100.392 107.556 100.623 107.445C100.854 107.332 101.112 107.275 101.396 107.275C101.893 107.275 102.267 107.396 102.519 107.637C102.77 107.876 102.896 108.259 102.896 108.787V111.481H102.27ZM109.754 109.412C109.754 110.086 109.585 110.612 109.246 110.991C108.906 111.368 108.438 111.557 107.84 111.557C107.471 111.557 107.143 111.47 106.856 111.297C106.57 111.123 106.349 110.875 106.193 110.55C106.037 110.226 105.959 109.847 105.959 109.412C105.959 108.739 106.128 108.215 106.464 107.841C106.801 107.464 107.268 107.275 107.866 107.275C108.444 107.275 108.903 107.468 109.242 107.852C109.584 108.236 109.754 108.757 109.754 109.412ZM106.608 109.412C106.608 109.94 106.713 110.342 106.924 110.618C107.135 110.895 107.446 111.033 107.855 111.033C108.265 111.033 108.575 110.896 108.786 110.622C108.999 110.346 109.106 109.942 109.106 109.412C109.106 108.887 108.999 108.489 108.786 108.218C108.575 107.944 108.262 107.807 107.847 107.807C107.438 107.807 107.129 107.941 106.92 108.21C106.712 108.479 106.608 108.88 106.608 109.412ZM115.309 107.837H114.258V111.481H113.632V107.837H112.894V107.554L113.632 107.328V107.098C113.632 106.083 114.076 105.576 114.963 105.576C115.181 105.576 115.437 105.62 115.731 105.708L115.569 106.209C115.328 106.131 115.122 106.092 114.951 106.092C114.715 106.092 114.541 106.171 114.428 106.33C114.314 106.485 114.258 106.737 114.258 107.083V107.351H115.309V107.837ZM112.717 107.837H111.665V111.481H111.04V107.837H110.301V107.554L111.04 107.328V107.098C111.04 106.083 111.483 105.576 112.37 105.576C112.588 105.576 112.845 105.62 113.139 105.708L112.977 106.209C112.735 106.131 112.529 106.092 112.359 106.092C112.122 106.092 111.948 106.171 111.835 106.33C111.722 106.485 111.665 106.737 111.665 107.083V107.351H112.717V107.837ZM116.715 111.481H116.089V107.351H116.715V111.481ZM116.037 106.232C116.037 106.088 116.072 105.984 116.142 105.919C116.213 105.851 116.301 105.817 116.406 105.817C116.507 105.817 116.593 105.851 116.666 105.919C116.739 105.987 116.775 106.091 116.775 106.232C116.775 106.372 116.739 106.478 116.666 106.548C116.593 106.616 116.507 106.65 116.406 106.65C116.301 106.65 116.213 106.616 116.142 106.548C116.072 106.478 116.037 106.372 116.037 106.232ZM119.704 111.557C119.106 111.557 118.642 111.373 118.313 111.006C117.986 110.637 117.823 110.116 117.823 109.442C117.823 108.752 117.989 108.218 118.32 107.841C118.655 107.464 119.129 107.275 119.745 107.275C119.944 107.275 120.142 107.297 120.34 107.34C120.539 107.382 120.695 107.433 120.808 107.49L120.616 108.022C120.477 107.966 120.327 107.921 120.163 107.886C120 107.848 119.856 107.829 119.73 107.829C118.891 107.829 118.471 108.365 118.471 109.435C118.471 109.942 118.573 110.332 118.777 110.603C118.983 110.875 119.287 111.01 119.689 111.01C120.033 111.01 120.386 110.936 120.747 110.788V111.342C120.471 111.485 120.123 111.557 119.704 111.557ZM123.476 111.557C122.865 111.557 122.383 111.371 122.029 110.999C121.677 110.627 121.501 110.111 121.501 109.45C121.501 108.784 121.665 108.255 121.991 107.863C122.32 107.471 122.761 107.275 123.314 107.275C123.831 107.275 124.241 107.446 124.542 107.788C124.844 108.127 124.995 108.576 124.995 109.133V109.529H122.149C122.162 110.014 122.284 110.382 122.515 110.633C122.749 110.885 123.077 111.01 123.499 111.01C123.943 111.01 124.383 110.917 124.818 110.731V111.289C124.597 111.385 124.387 111.452 124.188 111.493C123.992 111.535 123.755 111.557 123.476 111.557ZM123.306 107.799C122.975 107.799 122.71 107.907 122.511 108.123C122.315 108.339 122.2 108.638 122.164 109.02H124.324C124.324 108.626 124.236 108.324 124.06 108.116C123.884 107.905 123.633 107.799 123.306 107.799Z" fill="#274483"/>
<rect x="17.4859" y="99.0495" width="126.063" height="19.7241" rx="3.0015" stroke="url(#paint2_linear)" stroke-width="0.857571"/>
<path d="M62.0873 262.305C62.0873 262.79 61.9114 263.168 61.5597 263.439C61.208 263.71 60.7306 263.846 60.1276 263.846C59.4744 263.846 58.9719 263.762 58.6202 263.594V262.975C58.8463 263.071 59.0925 263.146 59.3588 263.202C59.6251 263.257 59.8889 263.284 60.1502 263.284C60.5773 263.284 60.8989 263.204 61.115 263.043C61.3311 262.88 61.4391 262.654 61.4391 262.365C61.4391 262.174 61.4002 262.018 61.3223 261.898C61.2469 261.775 61.1188 261.661 60.9379 261.558C60.7595 261.455 60.4869 261.339 60.1201 261.208C59.6076 261.025 59.2407 260.807 59.0197 260.556C58.8011 260.305 58.6918 259.977 58.6918 259.572C58.6918 259.148 58.8513 258.81 59.1704 258.559C59.4895 258.307 59.9116 258.182 60.4367 258.182C60.9844 258.182 61.4881 258.282 61.9479 258.483L61.7481 259.041C61.2934 258.85 60.8512 258.755 60.4216 258.755C60.0824 258.755 59.8173 258.827 59.6264 258.973C59.4355 259.119 59.34 259.321 59.34 259.58C59.34 259.771 59.3752 259.928 59.4455 260.051C59.5159 260.172 59.6339 260.283 59.7998 260.386C59.9681 260.487 60.2244 260.599 60.5686 260.722C61.1464 260.928 61.5434 261.149 61.7594 261.385C61.978 261.621 62.0873 261.928 62.0873 262.305ZM63.738 261.656C63.846 261.503 64.0106 261.302 64.2317 261.053L65.5658 259.64H66.3082L64.6349 261.4L66.425 263.771H65.6675L64.209 261.818L63.738 262.225V263.771H63.1199V257.907H63.738V261.016C63.738 261.154 63.7279 261.368 63.7078 261.656H63.738ZM67.8005 263.771H67.175V259.64H67.8005V263.771ZM67.1222 258.521C67.1222 258.378 67.1574 258.273 67.2277 258.208C67.2981 258.14 67.386 258.106 67.4915 258.106C67.592 258.106 67.6787 258.14 67.7516 258.208C67.8244 258.276 67.8608 258.38 67.8608 258.521C67.8608 258.662 67.8244 258.767 67.7516 258.838C67.6787 258.905 67.592 258.939 67.4915 258.939C67.386 258.939 67.2981 258.905 67.2277 258.838C67.1574 258.767 67.1222 258.662 67.1222 258.521ZM71.0491 263.846C70.7803 263.846 70.5341 263.797 70.3104 263.699C70.0894 263.599 69.9034 263.445 69.7527 263.239H69.7075C69.7376 263.48 69.7527 263.709 69.7527 263.925V265.625H69.1271V259.64H69.6359L69.7225 260.206H69.7527C69.9135 259.979 70.1007 259.816 70.3142 259.716C70.5278 259.615 70.7727 259.565 71.0491 259.565C71.5968 259.565 72.0189 259.752 72.3154 260.126C72.6143 260.501 72.7638 261.026 72.7638 261.702C72.7638 262.38 72.6118 262.908 72.3078 263.284C72.0063 263.659 71.5868 263.846 71.0491 263.846ZM70.9587 260.096C70.5366 260.096 70.2313 260.213 70.0429 260.447C69.8544 260.68 69.7577 261.052 69.7527 261.562V261.702C69.7527 262.282 69.8494 262.698 70.0429 262.949C70.2363 263.198 70.5466 263.322 70.9737 263.322C71.3305 263.322 71.6094 263.178 71.8104 262.889C72.0139 262.6 72.1156 262.202 72.1156 261.694C72.1156 261.179 72.0139 260.785 71.8104 260.511C71.6094 260.234 71.3255 260.096 70.9587 260.096ZM77.7271 260.126H76.6757V263.771H76.0501V260.126H75.3114V259.844L76.0501 259.618V259.388C76.0501 258.373 76.4935 257.865 77.3804 257.865C77.599 257.865 77.8552 257.909 78.1492 257.997L77.9871 258.498C77.7459 258.42 77.5399 258.381 77.3691 258.381C77.1329 258.381 76.9583 258.461 76.8452 258.619C76.7322 258.775 76.6757 259.026 76.6757 259.373V259.64H77.7271V260.126ZM82.0459 261.702C82.0459 262.375 81.8764 262.901 81.5372 263.281C81.198 263.658 80.7294 263.846 80.1315 263.846C79.7622 263.846 79.4343 263.759 79.1479 263.586C78.8615 263.413 78.6404 263.164 78.4846 262.84C78.3288 262.516 78.2509 262.136 78.2509 261.702C78.2509 261.028 78.4193 260.504 78.7559 260.13C79.0926 259.753 79.5599 259.565 80.1579 259.565C80.7357 259.565 81.1942 259.757 81.5334 260.141C81.8751 260.526 82.0459 261.046 82.0459 261.702ZM78.8991 261.702C78.8991 262.229 79.0047 262.631 79.2157 262.908C79.4268 263.184 79.737 263.322 80.1466 263.322C80.5561 263.322 80.8664 263.185 81.0774 262.911C81.291 262.635 81.3977 262.232 81.3977 261.702C81.3977 261.177 81.291 260.778 81.0774 260.507C80.8664 260.233 80.5536 260.096 80.139 260.096C79.7295 260.096 79.4205 260.231 79.2119 260.499C79.0034 260.768 78.8991 261.169 78.8991 261.702ZM85.0307 259.565C85.2141 259.565 85.3787 259.58 85.5244 259.61L85.4377 260.19C85.2669 260.153 85.1161 260.134 84.9855 260.134C84.6513 260.134 84.3649 260.27 84.1262 260.541C83.8901 260.812 83.772 261.15 83.772 261.555V263.771H83.1464V259.64H83.6627L83.7343 260.405H83.7644C83.9177 260.136 84.1024 259.929 84.3184 259.783C84.5345 259.638 84.7719 259.565 85.0307 259.565ZM91.1283 263.771V261.099C91.1283 260.762 91.0517 260.511 90.8984 260.345C90.7452 260.179 90.5052 260.096 90.1786 260.096C89.7465 260.096 89.4299 260.213 89.2289 260.447C89.0279 260.68 88.9275 261.066 88.9275 261.604V263.771H88.3019V259.64H88.8106L88.9124 260.206H88.9425C89.0707 260.002 89.2503 259.845 89.4814 259.734C89.7126 259.621 89.9701 259.565 90.254 259.565C90.7515 259.565 91.1258 259.685 91.3771 259.927C91.6283 260.165 91.7539 260.548 91.7539 261.076V263.771H91.1283ZM96.6079 261.702C96.6079 262.375 96.4383 262.901 96.0991 263.281C95.76 263.658 95.2914 263.846 94.6934 263.846C94.3241 263.846 93.9963 263.759 93.7098 263.586C93.4234 263.413 93.2023 263.164 93.0466 262.84C92.8908 262.516 92.8129 262.136 92.8129 261.702C92.8129 261.028 92.9812 260.504 93.3179 260.13C93.6546 259.753 94.1219 259.565 94.7198 259.565C95.2977 259.565 95.7562 259.757 96.0954 260.141C96.4371 260.526 96.6079 261.046 96.6079 261.702ZM93.4611 261.702C93.4611 262.229 93.5666 262.631 93.7777 262.908C93.9887 263.184 94.299 263.322 94.7085 263.322C95.118 263.322 95.4283 263.185 95.6394 262.911C95.8529 262.635 95.9597 262.232 95.9597 261.702C95.9597 261.177 95.8529 260.778 95.6394 260.507C95.4283 260.233 95.1155 260.096 94.701 260.096C94.2915 260.096 93.9824 260.231 93.7739 260.499C93.5654 260.768 93.4611 261.169 93.4611 261.702ZM101.081 263.771L100.324 261.347C100.276 261.199 100.187 260.863 100.056 260.337H100.026C99.9256 260.777 99.8376 261.116 99.7622 261.355L98.9821 263.771H98.2586L97.1317 259.64H97.7875C98.0538 260.678 98.2561 261.468 98.3942 262.011C98.5349 262.553 98.6153 262.919 98.6354 263.107H98.6656C98.6932 262.964 98.7372 262.779 98.7975 262.553C98.8603 262.325 98.9143 262.144 98.9595 262.011L99.717 259.64H100.395L101.134 262.011C101.275 262.443 101.37 262.806 101.42 263.1H101.451C101.461 263.009 101.487 262.87 101.53 262.681C101.575 262.493 101.838 261.479 102.317 259.64H102.966L101.824 263.771H101.081Z" fill="white"/>
<path d="M7.31856 42.6649C7.31856 42.5071 7.35286 42.3699 7.42147 42.2533C7.49693 42.1298 7.60327 42.068 7.74048 42.068H12.0935C12.2307 42.068 12.3336 42.1298 12.4022 42.2533C12.4777 42.3699 12.5154 42.5071 12.5154 42.6649C12.5154 42.8295 12.4777 42.9736 12.4022 43.0971C12.3268 43.2137 12.2239 43.2721 12.0935 43.2721H10.5911V49.1687C10.5911 49.2991 10.5224 49.402 10.3852 49.4774C10.2549 49.5529 10.1005 49.5906 9.92215 49.5906C9.73691 49.5906 9.57912 49.5529 9.44877 49.4774C9.31841 49.402 9.25324 49.2991 9.25324 49.1687V43.2721H7.74048C7.61013 43.2721 7.50722 43.2137 7.43176 43.0971C7.35629 42.9805 7.31856 42.8364 7.31856 42.6649ZM12.0266 47.5736V46.6989C12.0266 46.1363 12.2462 45.6527 12.6852 45.2479C13.1243 44.8431 13.656 44.6407 14.2803 44.6407C14.8635 44.6407 15.3609 44.826 15.7725 45.1964C16.191 45.5601 16.4002 46.0197 16.4002 46.5754C16.4002 46.7812 16.3728 46.9527 16.3179 47.09C16.2699 47.2203 16.191 47.3129 16.0812 47.3678C15.9783 47.4227 15.8823 47.457 15.7931 47.4707C15.7039 47.4844 15.5873 47.4913 15.4432 47.4913H13.3541V47.6457C13.3541 47.9407 13.4639 48.1808 13.6835 48.366C13.903 48.5444 14.1946 48.6336 14.5582 48.6336C14.8189 48.6336 15.0761 48.5684 15.33 48.4381C15.5838 48.3077 15.7485 48.2425 15.824 48.2425C15.968 48.2425 16.0881 48.3111 16.1841 48.4484C16.2802 48.5787 16.3282 48.7056 16.3282 48.8291C16.3282 49.0212 16.1533 49.2133 15.8034 49.4054C15.4603 49.5906 15.0316 49.6833 14.517 49.6833C13.7829 49.6833 13.1826 49.4912 12.7161 49.107C12.2565 48.7159 12.0266 48.2048 12.0266 47.5736ZM13.3541 46.7092H14.8566C14.9664 46.7092 15.0418 46.692 15.083 46.6577C15.131 46.6166 15.155 46.5411 15.155 46.4313C15.155 46.1912 15.0659 45.9957 14.8875 45.8448C14.716 45.6938 14.5033 45.6184 14.2494 45.6184C14.0093 45.6184 13.8001 45.6938 13.6217 45.8448C13.4433 45.9888 13.3541 46.1809 13.3541 46.4211V46.7092ZM17.2891 49.1687V42.2635C17.2891 42.1401 17.3474 42.0406 17.4641 41.9651C17.5875 41.8896 17.7488 41.8519 17.9477 41.8519C18.133 41.8519 18.2908 41.8896 18.4211 41.9651C18.5515 42.0406 18.6166 42.1401 18.6166 42.2635V49.1687C18.6166 49.2716 18.548 49.3677 18.4108 49.4569C18.2805 49.546 18.1261 49.5906 17.9477 49.5906C17.7625 49.5906 17.6047 49.5495 17.4743 49.4671C17.3509 49.378 17.2891 49.2785 17.2891 49.1687ZM21.7478 47.5942V45.1244C21.7478 45.0215 21.813 44.9254 21.9433 44.8363C22.0805 44.7471 22.2383 44.7025 22.4167 44.7025C22.5882 44.7025 22.7391 44.7471 22.8695 44.8363C23.0067 44.9254 23.0753 45.0215 23.0753 45.1244V47.5942C23.0753 47.8343 23.1645 48.0504 23.3429 48.2425C23.5212 48.4278 23.7339 48.5204 23.9809 48.5204C24.2279 48.5204 24.4371 48.4278 24.6086 48.2425C24.787 48.0504 24.8762 47.8343 24.8762 47.5942V45.1141C24.8762 45.0043 24.9414 44.9083 25.0717 44.826C25.2089 44.7436 25.3667 44.7025 25.5451 44.7025C25.7372 44.7025 25.895 44.7436 26.0185 44.826C26.142 44.9083 26.2037 45.0043 26.2037 45.1141V47.5942C26.2037 48.1499 25.9842 48.637 25.5451 49.0555C25.106 49.474 24.5846 49.6833 23.9809 49.6833C23.3772 49.6833 22.8523 49.474 22.4064 49.0555C21.9673 48.637 21.7478 48.1499 21.7478 47.5942ZM26.9181 48.7982C26.9181 48.6748 26.9626 48.5478 27.0518 48.4175C27.141 48.2803 27.2439 48.2117 27.3606 48.2117C27.436 48.2117 27.5286 48.2494 27.6384 48.3249C27.755 48.4003 27.906 48.4792 28.0912 48.5616C28.2764 48.637 28.496 48.6748 28.7498 48.6748C29.2506 48.6748 29.5011 48.5272 29.5011 48.2322C29.5011 48.0676 29.4153 47.9372 29.2438 47.8412C29.0791 47.7451 28.8767 47.6662 28.6366 47.6045C28.4034 47.5428 28.1667 47.4707 27.9266 47.3884C27.6864 47.2992 27.4806 47.1551 27.3091 46.9562C27.1445 46.7504 27.0621 46.4897 27.0621 46.1741C27.0621 45.7556 27.2096 45.3954 27.5046 45.0935C27.7996 44.7917 28.2662 44.6407 28.9042 44.6407C29.3295 44.6407 29.7069 44.7059 30.0362 44.8363C30.3724 44.9666 30.5404 45.1244 30.5404 45.3096C30.5404 45.4263 30.4924 45.5635 30.3964 45.7213C30.3072 45.8722 30.194 45.9477 30.0568 45.9477C30.0019 45.9477 29.8509 45.8997 29.604 45.8036C29.3638 45.7007 29.1375 45.6492 28.9248 45.6492C28.6915 45.6492 28.5131 45.6973 28.3896 45.7933C28.2662 45.8894 28.2044 45.9957 28.2044 46.1123C28.2044 46.229 28.2662 46.325 28.3896 46.4005C28.5131 46.4759 28.6641 46.5343 28.8424 46.5754C29.0277 46.6166 29.2266 46.6749 29.4393 46.7504C29.652 46.819 29.8475 46.9013 30.0259 46.9973C30.2111 47.0934 30.3655 47.2443 30.489 47.4501C30.6125 47.6491 30.6742 47.8926 30.6742 48.1808C30.6742 48.6473 30.5061 49.0143 30.17 49.2819C29.8407 49.5495 29.3776 49.6833 28.7807 49.6833C28.2662 49.6833 27.8271 49.5941 27.4635 49.4157C27.0999 49.2373 26.9181 49.0315 26.9181 48.7982ZM33.229 48.3146C33.229 47.7589 33.4348 47.3678 33.8465 47.1414C34.2581 46.915 34.8515 46.8018 35.6268 46.8018H36.0487V46.668C36.0487 46.4142 35.9732 46.1947 35.8223 46.0094C35.6782 45.8173 35.4518 45.7213 35.1431 45.7213C34.8344 45.7213 34.5702 45.7762 34.3507 45.8859C34.1312 45.9888 34.0042 46.0403 33.9699 46.0403C33.8327 46.0403 33.723 45.9717 33.6406 45.8345C33.5583 45.6973 33.5171 45.5463 33.5171 45.3817C33.5171 45.1827 33.6921 45.0112 34.042 44.8671C34.3987 44.7162 34.7726 44.6407 35.1637 44.6407C35.9115 44.6407 36.4672 44.8328 36.8308 45.217C37.1944 45.5944 37.3762 46.0712 37.3762 46.6475V49.1687C37.3762 49.2853 37.3145 49.3848 37.191 49.4671C37.0675 49.5495 36.9131 49.5906 36.7279 49.5906C36.5564 49.5906 36.4123 49.5495 36.2957 49.4671C36.1859 49.3848 36.131 49.2853 36.131 49.1687V48.8703C35.6576 49.4123 35.1362 49.6833 34.5668 49.6833C34.1758 49.6833 33.8533 49.5666 33.5995 49.3334C33.3525 49.1001 33.229 48.7605 33.229 48.3146ZM34.5565 48.1396C34.5565 48.3249 34.6045 48.4655 34.7006 48.5616C34.8035 48.6507 34.9373 48.6953 35.1019 48.6953C35.3215 48.6953 35.5342 48.5924 35.74 48.3866C35.9458 48.1808 36.0487 47.9544 36.0487 47.7074V47.4913H35.8943C35.4758 47.4913 35.1465 47.5359 34.9064 47.6251C34.6732 47.7074 34.5565 47.8789 34.5565 48.1396ZM38.3714 49.1687V42.2635C38.3714 42.1401 38.4297 42.0406 38.5463 41.9651C38.6698 41.8896 38.8276 41.8519 39.0197 41.8519C39.2118 41.8519 39.373 41.8896 39.5034 41.9651C39.6337 42.0406 39.6989 42.1401 39.6989 42.2635V45.4228C39.8155 45.2033 39.987 45.0181 40.2134 44.8671C40.4467 44.7162 40.7143 44.6407 41.0161 44.6407C41.5169 44.6407 41.9457 44.8466 42.3025 45.2582C42.6661 45.6698 42.8479 46.1604 42.8479 46.7298V47.5736C42.8479 48.1293 42.6661 48.6199 42.3025 49.0452C41.9389 49.4706 41.5204 49.6833 41.047 49.6833C40.7383 49.6833 40.4501 49.6044 40.1826 49.4466C39.915 49.2819 39.7263 49.0898 39.6166 48.8703V49.1687C39.6166 49.2716 39.5548 49.3677 39.4313 49.4569C39.3147 49.546 39.1775 49.5906 39.0197 49.5906C38.8345 49.5906 38.6801 49.5495 38.5566 49.4671C38.4331 49.378 38.3714 49.2785 38.3714 49.1687ZM39.6989 47.7589C39.6989 47.8892 39.7915 48.0504 39.9767 48.2425C40.1688 48.4278 40.385 48.5204 40.6251 48.5204C40.8652 48.5204 41.0744 48.4243 41.2528 48.2322C41.4312 48.0333 41.5204 47.8137 41.5204 47.5736V46.7298C41.5204 46.4897 41.4312 46.277 41.2528 46.0917C41.0744 45.8997 40.8618 45.8036 40.6148 45.8036C40.3815 45.8036 40.1688 45.8894 39.9767 46.0609C39.7915 46.2324 39.6989 46.4554 39.6989 46.7298V47.7589ZM43.5122 47.5736V46.7298C43.5122 46.1672 43.7318 45.6801 44.1708 45.2685C44.6099 44.85 45.1347 44.6407 45.7453 44.6407C46.3422 44.6407 46.8636 44.8466 47.3095 45.2582C47.7555 45.6698 47.9785 46.1604 47.9785 46.7298V47.5736C47.9785 48.1293 47.7555 48.6199 47.3095 49.0452C46.8636 49.4706 46.3422 49.6833 45.7453 49.6833C45.1485 49.6833 44.6271 49.4706 44.1811 49.0452C43.7352 48.6199 43.5122 48.1293 43.5122 47.5736ZM44.8397 47.5736C44.8397 47.8206 44.9289 48.0401 45.1073 48.2322C45.2857 48.4243 45.4984 48.5204 45.7453 48.5204C45.9855 48.5204 46.1947 48.4243 46.3731 48.2322C46.5583 48.0401 46.6509 47.8206 46.6509 47.5736V46.7298C46.6509 46.4965 46.5583 46.2838 46.3731 46.0917C46.1947 45.8997 45.9855 45.8036 45.7453 45.8036C45.4984 45.8036 45.2857 45.8997 45.1073 46.0917C44.9289 46.277 44.8397 46.4897 44.8397 46.7298V47.5736ZM48.7713 47.5942V45.1244C48.7713 45.0215 48.8365 44.9254 48.9669 44.8363C49.1041 44.7471 49.2619 44.7025 49.4402 44.7025C49.6118 44.7025 49.7627 44.7471 49.893 44.8363C50.0302 44.9254 50.0989 45.0215 50.0989 45.1244V47.5942C50.0989 47.8343 50.188 48.0504 50.3664 48.2425C50.5448 48.4278 50.7575 48.5204 51.0044 48.5204C51.2514 48.5204 51.4607 48.4278 51.6322 48.2425C51.8106 48.0504 51.8998 47.8343 51.8998 47.5942V45.1141C51.8998 45.0043 51.9649 44.9083 52.0953 44.826C52.2325 44.7436 52.3903 44.7025 52.5687 44.7025C52.7608 44.7025 52.9185 44.7436 53.042 44.826C53.1655 44.9083 53.2273 45.0043 53.2273 45.1141V47.5942C53.2273 48.1499 53.0077 48.637 52.5687 49.0555C52.1296 49.474 51.6082 49.6833 51.0044 49.6833C50.4007 49.6833 49.8759 49.474 49.4299 49.0555C48.9909 48.637 48.7713 48.1499 48.7713 47.5942ZM54.2092 47.9235V42.9325C54.2092 42.8158 54.2778 42.7198 54.415 42.6443C54.5522 42.562 54.7031 42.5208 54.8678 42.5208C55.0462 42.5208 55.2005 42.562 55.3309 42.6443C55.4681 42.7198 55.5367 42.8158 55.5367 42.9325V44.7025H56.751C56.8539 44.7025 56.9362 44.7505 56.998 44.8466C57.0597 44.9426 57.0906 45.0558 57.0906 45.1862C57.0906 45.3165 57.0597 45.4297 56.998 45.5257C56.9362 45.6218 56.8539 45.6698 56.751 45.6698H55.5367V47.9235C55.5367 48.1225 55.5778 48.2631 55.6602 48.3454C55.7494 48.4278 55.9003 48.4689 56.113 48.4689H56.5143C56.6927 48.4689 56.8299 48.5238 56.9259 48.6336C57.0289 48.7434 57.0803 48.8737 57.0803 49.0246C57.0803 49.1824 57.0289 49.3162 56.9259 49.426C56.8299 49.5358 56.6927 49.5906 56.5143 49.5906H56.113C54.8438 49.5906 54.2092 49.0349 54.2092 47.9235ZM59.3945 51.2989C59.3945 50.9284 59.5077 50.7432 59.7341 50.7432C60.0565 50.7432 60.3721 50.6266 60.6808 50.3933C60.9964 50.1601 61.1714 49.7724 61.2057 49.2305L59.4356 45.4434C59.4082 45.3748 59.3945 45.3165 59.3945 45.2685C59.3945 45.1038 59.4939 44.9563 59.6929 44.826C59.8987 44.6956 60.0942 44.6304 60.2795 44.6304C60.4853 44.6304 60.6122 44.7059 60.6602 44.8568L61.8951 47.9338L62.8934 44.8568C62.9414 44.7059 63.058 44.6304 63.2432 44.6304C63.4216 44.6304 63.6171 44.6991 63.8298 44.8363C64.0425 44.9666 64.1488 45.1175 64.1488 45.2891C64.1488 45.3439 64.1386 45.3954 64.118 45.4434L62.6155 49.2819L62.4406 49.7347C62.3582 49.968 62.2965 50.1292 62.2553 50.2184C62.221 50.3076 62.1558 50.4448 62.0598 50.63C61.9706 50.8221 61.8883 50.9593 61.8128 51.0416C61.7442 51.1308 61.6447 51.2372 61.5144 51.3607C61.384 51.491 61.2503 51.5836 61.113 51.6385C60.9827 51.7003 60.8215 51.7517 60.6294 51.7929C60.4373 51.8409 60.228 51.8649 60.0016 51.8649C59.8027 51.8649 59.6517 51.8272 59.5488 51.7517C59.4459 51.6763 59.3945 51.5253 59.3945 51.2989ZM64.5562 47.5736V46.7298C64.5562 46.1672 64.7758 45.6801 65.2148 45.2685C65.6539 44.85 66.1787 44.6407 66.7893 44.6407C67.3862 44.6407 67.9076 44.8466 68.3535 45.2582C68.7995 45.6698 69.0224 46.1604 69.0224 46.7298V47.5736C69.0224 48.1293 68.7995 48.6199 68.3535 49.0452C67.9076 49.4706 67.3862 49.6833 66.7893 49.6833C66.1925 49.6833 65.6711 49.4706 65.2251 49.0452C64.7792 48.6199 64.5562 48.1293 64.5562 47.5736ZM65.8837 47.5736C65.8837 47.8206 65.9729 48.0401 66.1513 48.2322C66.3297 48.4243 66.5424 48.5204 66.7893 48.5204C67.0295 48.5204 67.2387 48.4243 67.4171 48.2322C67.6023 48.0401 67.6949 47.8206 67.6949 47.5736V46.7298C67.6949 46.4965 67.6023 46.2838 67.4171 46.0917C67.2387 45.8997 67.0295 45.8036 66.7893 45.8036C66.5424 45.8036 66.3297 45.8997 66.1513 46.0917C65.9729 46.277 65.8837 46.4897 65.8837 46.7298V47.5736ZM69.8153 47.5942V45.1244C69.8153 45.0215 69.8805 44.9254 70.0109 44.8363C70.1481 44.7471 70.3059 44.7025 70.4842 44.7025C70.6557 44.7025 70.8067 44.7471 70.937 44.8363C71.0742 44.9254 71.1428 45.0215 71.1428 45.1244V47.5942C71.1428 47.8343 71.232 48.0504 71.4104 48.2425C71.5888 48.4278 71.8015 48.5204 72.0484 48.5204C72.2954 48.5204 72.5047 48.4278 72.6762 48.2425C72.8546 48.0504 72.9437 47.8343 72.9437 47.5942V45.1141C72.9437 45.0043 73.0089 44.9083 73.1393 44.826C73.2765 44.7436 73.4343 44.7025 73.6127 44.7025C73.8047 44.7025 73.9625 44.7436 74.086 44.826C74.2095 44.9083 74.2713 45.0043 74.2713 45.1141V47.5942C74.2713 48.1499 74.0517 48.637 73.6127 49.0555C73.1736 49.474 72.6522 49.6833 72.0484 49.6833C71.4447 49.6833 70.9199 49.474 70.4739 49.0555C70.0349 48.637 69.8153 48.1499 69.8153 47.5942ZM75.2635 49.1687V45.1141C75.2635 44.9906 75.3218 44.8911 75.4384 44.8157C75.5619 44.7402 75.7197 44.7025 75.9118 44.7025C76.0833 44.7025 76.2239 44.7402 76.3337 44.8157C76.4503 44.8911 76.5086 44.9906 76.5086 45.1141V45.536C76.6184 45.2959 76.7899 45.0867 77.0232 44.9083C77.2564 44.7299 77.5069 44.6407 77.7744 44.6407H78.0934C78.2169 44.6407 78.3267 44.6991 78.4227 44.8157C78.5257 44.9323 78.5771 45.0661 78.5771 45.217C78.5771 45.3748 78.5257 45.512 78.4227 45.6287C78.3267 45.7453 78.2169 45.8036 78.0934 45.8036H77.7744C77.4588 45.8036 77.181 45.9442 76.9409 46.2255C76.7076 46.5068 76.591 46.8739 76.591 47.3266V49.1687C76.591 49.2716 76.5224 49.3677 76.3852 49.4569C76.2479 49.546 76.0902 49.5906 75.9118 49.5906C75.7265 49.5906 75.5722 49.5495 75.4487 49.4671C75.3252 49.378 75.2635 49.2785 75.2635 49.1687ZM80.7603 45.1964C80.7603 45.0455 80.8563 44.9186 81.0484 44.8157C81.2405 44.7059 81.4326 44.651 81.6247 44.651C81.8237 44.651 81.9506 44.7231 82.0055 44.8671L83.0346 47.7897L83.8064 45.2479C83.8613 45.0695 84.0122 44.9803 84.2592 44.9803C84.5062 44.9803 84.6571 45.0695 84.712 45.2479L85.4735 47.8L86.5129 44.8671C86.5678 44.7231 86.6947 44.651 86.8936 44.651C87.0789 44.651 87.2675 44.7059 87.4596 44.8157C87.6517 44.9254 87.7478 45.0558 87.7478 45.2067C87.7478 45.2822 87.7341 45.3439 87.7066 45.392L86.1218 49.4671C86.0601 49.6249 85.8851 49.7038 85.597 49.7038C85.2951 49.7038 85.1133 49.6249 85.0516 49.4671L84.2592 47.2237L83.4771 49.4569C83.4153 49.6215 83.2267 49.7038 82.9111 49.7038C82.6298 49.7038 82.4583 49.6215 82.3965 49.4569L80.8117 45.392C80.7774 45.3234 80.7603 45.2582 80.7603 45.1964ZM88.1528 47.5736V46.7298C88.1528 46.1672 88.3724 45.6801 88.8114 45.2685C89.2505 44.85 89.7753 44.6407 90.3859 44.6407C90.9828 44.6407 91.5042 44.8466 91.9502 45.2582C92.3961 45.6698 92.6191 46.1604 92.6191 46.7298V47.5736C92.6191 48.1293 92.3961 48.6199 91.9502 49.0452C91.5042 49.4706 90.9828 49.6833 90.3859 49.6833C89.7891 49.6833 89.2677 49.4706 88.8217 49.0452C88.3758 48.6199 88.1528 48.1293 88.1528 47.5736ZM89.4803 47.5736C89.4803 47.8206 89.5695 48.0401 89.7479 48.2322C89.9263 48.4243 90.139 48.5204 90.3859 48.5204C90.6261 48.5204 90.8353 48.4243 91.0137 48.2322C91.1989 48.0401 91.2915 47.8206 91.2915 47.5736V46.7298C91.2915 46.4965 91.1989 46.2838 91.0137 46.0917C90.8353 45.8997 90.6261 45.8036 90.3859 45.8036C90.139 45.8036 89.9263 45.8997 89.7479 46.0917C89.5695 46.277 89.4803 46.4897 89.4803 46.7298V47.5736ZM93.4634 49.1687V45.1141C93.4634 44.9906 93.5217 44.8911 93.6383 44.8157C93.7618 44.7402 93.9196 44.7025 94.1117 44.7025C94.2832 44.7025 94.4239 44.7402 94.5336 44.8157C94.6503 44.8911 94.7086 44.9906 94.7086 45.1141V45.536C94.8184 45.2959 94.9899 45.0867 95.2231 44.9083C95.4564 44.7299 95.7068 44.6407 95.9744 44.6407H96.2934C96.4169 44.6407 96.5266 44.6991 96.6227 44.8157C96.7256 44.9323 96.777 45.0661 96.777 45.217C96.777 45.3748 96.7256 45.512 96.6227 45.6287C96.5266 45.7453 96.4169 45.8036 96.2934 45.8036H95.9744C95.6588 45.8036 95.3809 45.9442 95.1408 46.2255C94.9075 46.5068 94.7909 46.8739 94.7909 47.3266V49.1687C94.7909 49.2716 94.7223 49.3677 94.5851 49.4569C94.4479 49.546 94.2901 49.5906 94.1117 49.5906C93.9265 49.5906 93.7721 49.5495 93.6486 49.4671C93.5251 49.378 93.4634 49.2785 93.4634 49.1687ZM97.3529 49.1687V42.2635C97.3529 42.1401 97.4112 42.0406 97.5278 41.9651C97.6513 41.8896 97.8091 41.8519 98.0012 41.8519C98.1933 41.8519 98.3545 41.8896 98.4848 41.9651C98.6152 42.0406 98.6804 42.1401 98.6804 42.2635V46.5754L100.615 44.7539C100.697 44.6853 100.787 44.651 100.883 44.651C101.027 44.651 101.171 44.7196 101.315 44.8568C101.459 44.9941 101.531 45.1381 101.531 45.2891C101.531 45.3782 101.493 45.4606 101.418 45.536L100.203 46.6372L101.716 48.7982C101.764 48.8668 101.788 48.9389 101.788 49.0143C101.788 49.1653 101.702 49.3128 101.531 49.4569C101.366 49.6009 101.202 49.673 101.037 49.673C100.9 49.673 100.79 49.6146 100.708 49.498L99.3184 47.4501L98.6804 48.0367V49.1687C98.6804 49.2716 98.6118 49.3677 98.4746 49.4569C98.3373 49.546 98.1796 49.5906 98.0012 49.5906C97.8159 49.5906 97.6616 49.5495 97.5381 49.4671C97.4146 49.378 97.3529 49.2785 97.3529 49.1687ZM102.418 51.443V45.1141C102.418 44.9906 102.476 44.8911 102.593 44.8157C102.716 44.7402 102.867 44.7025 103.046 44.7025C103.224 44.7025 103.372 44.7402 103.488 44.8157C103.605 44.8911 103.663 44.9906 103.663 45.1141V45.4228C103.793 45.2033 103.979 45.0181 104.219 44.8671C104.466 44.7162 104.744 44.6407 105.052 44.6407C105.567 44.6407 106.003 44.8466 106.359 45.2582C106.716 45.663 106.894 46.1535 106.894 46.7298V47.5736C106.894 48.1293 106.713 48.6199 106.349 49.0452C105.985 49.4706 105.567 49.6833 105.094 49.6833C104.799 49.6833 104.524 49.6044 104.27 49.4466C104.023 49.2819 103.848 49.0898 103.745 48.8703V51.443C103.745 51.5528 103.677 51.6488 103.54 51.7311C103.409 51.8203 103.251 51.8649 103.066 51.8649C102.881 51.8649 102.727 51.8203 102.603 51.7311C102.48 51.6488 102.418 51.5528 102.418 51.443ZM103.745 47.7589C103.745 47.8961 103.838 48.0573 104.023 48.2425C104.208 48.4278 104.418 48.5204 104.651 48.5204C104.891 48.5204 105.104 48.4243 105.289 48.2322C105.474 48.0333 105.567 47.8137 105.567 47.5736V46.7298C105.567 46.4897 105.474 46.277 105.289 46.0917C105.104 45.8997 104.884 45.8036 104.63 45.8036C104.397 45.8036 104.191 45.8894 104.013 46.0609C103.835 46.2324 103.745 46.4554 103.745 46.7298V47.7589ZM107.837 49.1687V42.2635C107.837 42.1401 107.895 42.0406 108.012 41.9651C108.135 41.8896 108.296 41.8519 108.495 41.8519C108.68 41.8519 108.838 41.8896 108.969 41.9651C109.099 42.0406 109.164 42.1401 109.164 42.2635V49.1687C109.164 49.2716 109.095 49.3677 108.958 49.4569C108.828 49.546 108.674 49.5906 108.495 49.5906C108.31 49.5906 108.152 49.5495 108.022 49.4671C107.898 49.378 107.837 49.2785 107.837 49.1687ZM109.998 48.3146C109.998 47.7589 110.204 47.3678 110.616 47.1414C111.027 46.915 111.621 46.8018 112.396 46.8018H112.818V46.668C112.818 46.4142 112.743 46.1947 112.592 46.0094C112.448 45.8173 112.221 45.7213 111.912 45.7213C111.604 45.7213 111.34 45.7762 111.12 45.8859C110.901 45.9888 110.774 46.0403 110.739 46.0403C110.602 46.0403 110.492 45.9717 110.41 45.8345C110.328 45.6973 110.287 45.5463 110.287 45.3817C110.287 45.1827 110.461 45.0112 110.811 44.8671C111.168 44.7162 111.542 44.6407 111.933 44.6407C112.681 44.6407 113.237 44.8328 113.6 45.217C113.964 45.5944 114.146 46.0712 114.146 46.6475V49.1687C114.146 49.2853 114.084 49.3848 113.96 49.4671C113.837 49.5495 113.683 49.5906 113.497 49.5906C113.326 49.5906 113.182 49.5495 113.065 49.4671C112.955 49.3848 112.9 49.2853 112.9 49.1687V48.8703C112.427 49.4123 111.906 49.6833 111.336 49.6833C110.945 49.6833 110.623 49.5666 110.369 49.3334C110.122 49.1001 109.998 48.7605 109.998 48.3146ZM111.326 48.1396C111.326 48.3249 111.374 48.4655 111.47 48.5616C111.573 48.6507 111.707 48.6953 111.871 48.6953C112.091 48.6953 112.304 48.5924 112.509 48.3866C112.715 48.1808 112.818 47.9544 112.818 47.7074V47.4913H112.664C112.245 47.4913 111.916 47.5359 111.676 47.6251C111.443 47.7074 111.326 47.8789 111.326 48.1396ZM114.966 47.5736V46.7504C114.966 46.1192 115.151 45.6115 115.522 45.2273C115.892 44.8363 116.448 44.6407 117.189 44.6407C117.655 44.6407 118.046 44.7231 118.362 44.8877C118.677 45.0524 118.835 45.2376 118.835 45.4434C118.835 45.5875 118.784 45.7316 118.681 45.8756C118.578 46.0197 118.454 46.0917 118.31 46.0917C118.269 46.0917 118.146 46.0437 117.94 45.9477C117.741 45.8516 117.525 45.8036 117.292 45.8036C116.626 45.8036 116.293 46.1192 116.293 46.7504V47.5736C116.293 48.2048 116.629 48.5204 117.302 48.5204C117.535 48.5204 117.751 48.4689 117.95 48.366C118.149 48.2631 118.276 48.2117 118.331 48.2117C118.496 48.2117 118.629 48.2803 118.732 48.4175C118.842 48.5547 118.897 48.6953 118.897 48.8394C118.897 49.0521 118.729 49.2476 118.393 49.426C118.063 49.5975 117.665 49.6833 117.199 49.6833C116.451 49.6833 115.892 49.4912 115.522 49.107C115.151 48.7228 114.966 48.2117 114.966 47.5736ZM119.367 47.5736V46.6989C119.367 46.1363 119.587 45.6527 120.026 45.2479C120.465 44.8431 120.996 44.6407 121.621 44.6407C122.204 44.6407 122.701 44.826 123.113 45.1964C123.531 45.5601 123.741 46.0197 123.741 46.5754C123.741 46.7812 123.713 46.9527 123.658 47.09C123.61 47.2203 123.531 47.3129 123.422 47.3678C123.319 47.4227 123.223 47.457 123.134 47.4707C123.044 47.4844 122.928 47.4913 122.784 47.4913H120.695V47.6457C120.695 47.9407 120.804 48.1808 121.024 48.366C121.243 48.5444 121.535 48.6336 121.899 48.6336C122.159 48.6336 122.417 48.5684 122.67 48.4381C122.924 48.3077 123.089 48.2425 123.164 48.2425C123.308 48.2425 123.429 48.3111 123.525 48.4484C123.621 48.5787 123.669 48.7056 123.669 48.8291C123.669 49.0212 123.494 49.2133 123.144 49.4054C122.801 49.5906 122.372 49.6833 121.857 49.6833C121.123 49.6833 120.523 49.4912 120.057 49.107C119.597 48.7159 119.367 48.2048 119.367 47.5736ZM120.695 46.7092H122.197C122.307 46.7092 122.382 46.692 122.423 46.6577C122.471 46.6166 122.496 46.5411 122.496 46.4313C122.496 46.1912 122.406 45.9957 122.228 45.8448C122.056 45.6938 121.844 45.6184 121.59 45.6184C121.35 45.6184 121.141 45.6938 120.962 45.8448C120.784 45.9888 120.695 46.1809 120.695 46.4211V46.7092Z" fill="white"/>
<defs>
<linearGradient id="paint0_linear" x1="81.0303" y1="7.56449e-06" x2="56.7748" y2="288.58" gradientUnits="userSpaceOnUse">
<stop stop-color="#5464BD" stop-opacity="0.34"/>
<stop offset="0.460316" stop-color="#477DDE"/>
<stop offset="0.905036" stop-color="#477DDE" stop-opacity="0"/>
</linearGradient>
<linearGradient id="paint1_linear" x1="19.0214" y1="74.6086" x2="22.8024" y2="107.827" gradientUnits="userSpaceOnUse">
<stop stop-color="#914EFF"/>
<stop offset="1" stop-color="#005CFF"/>
</linearGradient>
<linearGradient id="paint2_linear" x1="19.0214" y1="98.6207" x2="22.8024" y2="131.839" gradientUnits="userSpaceOnUse">
<stop stop-color="#914EFF"/>
<stop offset="1" stop-color="#005CFF"/>
</linearGradient>
</defs>
</svg>
